<svg version="1.1" viewBox="0.0 0.0 911.0 644.0" fill="none" stroke="none" stroke-linecap="square" stroke-miterlimit="10" width="911" height="644" xmlns:xlink="http://www.w3.org/1999/xlink" xmlns="http://www.w3.org/2000/svg"><path fill="#ffffff" d="M0 0L911.0 0L911.0 644.0L0 644.0L0 0Z" fill-rule="nonzero"/><path stroke="#333333" stroke-width="1.0" stroke-linecap="butt" d="M71.5 513.5L878.5 513.5" fill-rule="nonzero"/><path stroke="#cccccc" stroke-width="1.0" stroke-linecap="butt" d="M71.5 422.5L878.5 422.5" fill-rule="nonzero"/><path stroke="#cccccc" stroke-width="1.0" stroke-linecap="butt" d="M71.5 330.5L878.5 330.5" fill-rule="nonzero"/><path stroke="#cccccc" stroke-width="1.0" stroke-linecap="butt" d="M71.5 239.5L878.5 239.5" fill-rule="nonzero"/><path stroke="#cccccc" stroke-width="1.0" stroke-linecap="butt" d="M71.5 147.5L878.5 147.5" fill-rule="nonzero"/><clipPath id="id_0"><path d="M71.2 147.63333L878.8 147.63333L878.8 513.8L71.2 513.8L71.2 147.63333Z" clip-rule="nonzero"/></clipPath><path stroke="#000000" stroke-width="2.0" stroke-linecap="butt" stroke-opacity="0.0" clip-path="url(#id_0)" d="M199.0 514.0L116.0 514.0L116.0 358.0L199.0 358.0Z" fill-rule="nonzero"/><path fill="#4285f4" clip-path="url(#id_0)" d="M199.0 514.0L116.0 514.0L116.0 358.0L199.0 358.0Z" fill-rule="nonzero"/><path stroke="#000000" stroke-width="2.0" stroke-linecap="butt" stroke-opacity="0.0" clip-path="url(#id_0)" d="M326.0 514.0L243.0 514.0L243.0 366.0L326.0 366.0Z" fill-rule="nonzero"/><path fill="#4285f4" clip-path="url(#id_0)" d="M326.0 514.0L243.0 514.0L243.0 366.0L326.0 366.0Z" fill-rule="nonzero"/><path stroke="#000000" stroke-width="2.0" stroke-linecap="butt" stroke-opacity="0.0" clip-path="url(#id_0)" d="M453.0 514.0L370.0 514.0L370.0 328.0L453.0 328.0Z" fill-rule="nonzero"/><path fill="#4285f4" clip-path="url(#id_0)" d="M453.0 514.0L370.0 514.0L370.0 328.0L453.0 328.0Z" fill-rule="nonzero"/><path stroke="#000000" stroke-width="2.0" stroke-linecap="butt" stroke-opacity="0.0" clip-path="url(#id_0)" d="M581.0 514.0L498.0 514.0L498.0 355.0L581.0 355.0Z" fill-rule="nonzero"/><path fill="#4285f4" clip-path="url(#id_0)" d="M581.0 514.0L498.0 514.0L498.0 355.0L581.0 355.0Z" fill-rule="nonzero"/><path stroke="#000000" stroke-width="2.0" stroke-linecap="butt" stroke-opacity="0.0" clip-path="url(#id_0)" d="M708.0 514.0L625.0 514.0L625.0 385.0L708.0 385.0Z" fill-rule="nonzero"/><path fill="#4285f4" clip-path="url(#id_0)" d="M708.0 514.0L625.0 514.0L625.0 385.0L708.0 385.0Z" fill-rule="nonzero"/><path stroke="#000000" stroke-width="2.0" stroke-linecap="butt" stroke-opacity="0.0" clip-path="url(#id_0)" d="M835.0 514.0L752.0 514.0L752.0 386.0L835.0 386.0Z" fill-rule="nonzero"/><path fill="#4285f4" clip-path="url(#id_0)" d="M835.0 514.0L752.0 514.0L752.0 386.0L835.0 386.0Z" fill-rule="nonzero"/><path stroke="#000000" stroke-width="2.0" stroke-linecap="butt" stroke-opacity="0.0" clip-path="url(#id_0)" d="M199.0 358.0L116.0 358.0L116.0 331.0L199.0 331.0Z" fill-rule="nonzero"/><path fill="#ea4335" clip-path="url(#id_0)" d="M199.0 358.0L116.0 358.0L116.0 331.0L199.0 331.0Z" fill-rule="nonzero"/><path stroke="#000000" stroke-width="2.0" stroke-linecap="butt" stroke-opacity="0.0" clip-path="url(#id_0)" d="M326.0 366.0L243.0 366.0L243.0 351.0L326.0 351.0Z" fill-rule="nonzero"/><path fill="#ea4335" clip-path="url(#id_0)" d="M326.0 366.0L243.0 366.0L243.0 351.0L326.0 351.0Z" fill-rule="nonzero"/><path stroke="#000000" stroke-width="2.0" stroke-linecap="butt" stroke-opacity="0.0" clip-path="url(#id_0)" d="M453.0 328.0L370.0 328.0L370.0 308.0L453.0 308.0Z" fill-rule="nonzero"/><path fill="#ea4335" clip-path="url(#id_0)" d="M453.0 328.0L370.0 328.0L370.0 308.0L453.0 308.0Z" fill-rule="nonzero"/><path stroke="#000000" stroke-width="2.0" stroke-linecap="butt" stroke-opacity="0.0" clip-path="url(#id_0)" d="M581.0 355.0L498.0 355.0L498.0 286.0L581.0 286.0Z" fill-rule="nonzero"/><path fill="#ea4335" clip-path="url(#id_0)" d="M581.0 355.0L498.0 355.0L498.0 286.0L581.0 286.0Z" fill-rule="nonzero"/><path stroke="#000000" stroke-width="2.0" stroke-linecap="butt" stroke-opacity="0.0" clip-path="url(#id_0)" d="M708.0 385.0L625.0 385.0L625.0 341.0L708.0 341.0Z" fill-rule="nonzero"/><path fill="#ea4335" clip-path="url(#id_0)" d="M708.0 385.0L625.0 385.0L625.0 341.0L708.0 341.0Z" fill-rule="nonzero"/><path stroke="#000000" stroke-width="2.0" stroke-linecap="butt" stroke-opacity="0.0" clip-path="url(#id_0)" d="M835.0 386.0L752.0 386.0L752.0 378.0L835.0 378.0Z" fill-rule="nonzero"/><path fill="#ea4335" clip-path="url(#id_0)" d="M835.0 386.0L752.0 386.0L752.0 378.0L835.0 378.0Z" fill-rule="nonzero"/><path stroke="#000000" stroke-width="2.0" stroke-linecap="butt" stroke-opacity="0.0" clip-path="url(#id_0)" d="M199.0 331.0L116.0 331.0L116.0 150.0C116.0 148.89543 116.89543 148.0 118.0 148.0L197.0 148.0C198.10457 148.0 199.0 148.89543 199.0 150.0Z" fill-rule="nonzero"/><path fill="#fbbc04" clip-path="url(#id_0)" d="M199.0 331.0L116.0 331.0L116.0 150.0C116.0 148.89543 116.89543 148.0 118.0 148.0L197.0 148.0C198.10457 148.0 199.0 148.89543 199.0 150.0Z" fill-rule="nonzero"/><path stroke="#000000" stroke-width="2.0" stroke-linecap="butt" stroke-opacity="0.0" clip-path="url(#id_0)" d="M326.0 351.0L243.0 351.0L243.0 150.0C243.0 148.89543 243.89543 148.0 245.0 148.0L324.0 148.0C325.10458 148.0 326.0 148.89543 326.0 150.0Z" fill-rule="nonzero"/><path fill="#fbbc04" clip-path="url(#id_0)" d="M326.0 351.0L243.0 351.0L243.0 150.0C243.0 148.89543 243.89543 148.0 245.0 148.0L324.0 148.0C325.10458 148.0 326.0 148.89543 326.0 150.0Z" fill-rule="nonzero"/><path stroke="#000000" stroke-width="2.0" stroke-linecap="butt" stroke-opacity="0.0" clip-path="url(#id_0)" d="M453.0 308.0L370.0 308.0L370.0 150.0C370.0 148.89543 370.89542 148.0 372.0 148.0L451.0 148.0C452.10458 148.0 453.0 148.89543 453.0 150.0Z" fill-rule="nonzero"/><path fill="#fbbc04" clip-path="url(#id_0)" d="M453.0 308.0L370.0 308.0L370.0 150.0C370.0 148.89543 370.89542 148.0 372.0 148.0L451.0 148.0C452.10458 148.0 453.0 148.89543 453.0 150.0Z" fill-rule="nonzero"/><path stroke="#000000" stroke-width="2.0" stroke-linecap="butt" stroke-opacity="0.0" clip-path="url(#id_0)" d="M581.0 286.0L498.0 286.0L498.0 150.0C498.0 148.89543 498.89542 148.0 500.0 148.0L579.0 148.0C580.10455 148.0 581.0 148.89543 581.0 150.0Z" fill-rule="nonzero"/><path fill="#fbbc04" clip-path="url(#id_0)" d="M581.0 286.0L498.0 286.0L498.0 150.0C498.0 148.89543 498.89542 148.0 500.0 148.0L579.0 148.0C580.10455 148.0 581.0 148.89543 581.0 150.0Z" fill-rule="nonzero"/><path stroke="#000000" stroke-width="2.0" stroke-linecap="butt" stroke-opacity="0.0" clip-path="url(#id_0)" d="M708.0 341.0L625.0 341.0L625.0 150.0C625.0 148.89543 625.89545 148.0 627.0 148.0L706.0 148.0C707.10455 148.0 708.0 148.89543 708.0 150.0Z" fill-rule="nonzero"/><path fill="#fbbc04" clip-path="url(#id_0)" d="M708.0 341.0L625.0 341.0L625.0 150.0C625.0 148.89543 625.89545 148.0 627.0 148.0L706.0 148.0C707.10455 148.0 708.0 148.89543 708.0 150.0Z" fill-rule="nonzero"/><path stroke="#000000" stroke-width="2.0" stroke-linecap="butt" stroke-opacity="0.0" clip-path="url(#id_0)" d="M835.0 378.0L752.0 378.0L752.0 150.0C752.0 148.89543 752.89545 148.0 754.0 148.0L833.0 148.0C834.10455 148.0 835.0 148.89543 835.0 150.0Z" fill-rule="nonzero"/><path fill="#fbbc04" clip-path="url(#id_0)" d="M835.0 378.0L752.0 378.0L752.0 150.0C752.0 148.89543 752.89545 148.0 754.0 148.0L833.0 148.0C834.10455 148.0 835.0 148.89543 835.0 150.0Z" fill-rule="nonzero"/><path fill="#000000" d="M423.60938 599.76874L425.89062 600.34686Q425.17188 603.14374 423.3125 604.6281Q421.45312 606.09686 418.76562 606.09686Q416.0 606.09686 414.25 604.97186Q412.51562 603.83124 411.60938 601.6906Q410.70312 599.53436 410.70312 597.08124Q410.70312 594.39374 411.71875 592.39374Q412.75 590.39374 414.64062 589.3625Q416.53125 588.33124 418.8125 588.33124Q421.39062 588.33124 423.14062 589.64374Q424.90625 590.95624 425.59375 593.33124L423.35938 593.8625Q422.75 591.9875 421.60938 591.1281Q420.48438 590.26874 418.76562 590.26874Q416.78125 590.26874 415.45312 591.22186Q414.125 592.175 413.57812 593.76874Q413.04688 595.3625 413.04688 597.0656Q413.04688 599.2531 413.67188 600.89374Q414.3125 602.53436 415.65625 603.34686Q417.01562 604.14374 418.57812 604.14374Q420.5 604.14374 421.8125 603.05Q423.14062 601.9406 423.60938 599.76874ZM427.29688 599.58124Q427.29688 596.1125 429.21875 594.45624Q430.82812 593.0656 433.14062 593.0656Q435.70312 593.0656 437.32812 594.7531Q438.95312 596.4406 438.95312 599.39374Q438.95312 601.8 438.23438 603.175Q437.51562 604.55 436.14062 605.3156Q434.76562 606.08124 433.14062 606.08124Q430.51562 606.08124 428.90625 604.40936Q427.29688 602.72186 427.29688 599.58124ZM429.46875 599.58124Q429.46875 601.97186 430.5 603.15936Q431.54688 604.34686 433.14062 604.34686Q434.70312 604.34686 435.75 603.15936Q436.79688 601.95624 436.79688 599.5031Q436.79688 597.1906 435.73438 596.0031Q434.6875 594.8156 433.14062 594.8156Q431.54688 594.8156 430.5 596.0031Q429.46875 597.1906 429.46875 599.58124ZM441.07812 605.8L441.07812 593.34686L442.98438 593.34686L442.98438 595.1281Q444.35938 593.0656 446.9375 593.0656Q448.0625 593.0656 449.0 593.47186Q449.95312 593.8781 450.42188 594.53436Q450.89062 595.1906 451.07812 596.09686Q451.20312 596.675 451.20312 598.14374L451.20312 605.8L449.09375 605.8L449.09375 598.22186Q449.09375 596.9406 448.84375 596.3Q448.59375 595.65936 447.96875 595.28436Q447.34375 594.89374 446.5 594.89374Q445.15625 594.89374 444.17188 595.7531Q443.1875 596.6125 443.1875 599.0031L443.1875 605.8L441.07812 605.8ZM459.6875 603.90936L460.0 605.76874Q459.10938 605.97186 458.40625 605.97186Q457.25 605.97186 456.60938 605.6125Q455.98438 605.2375 455.71875 604.64374Q455.46875 604.05 455.46875 602.15936L455.46875 594.9875L453.92188 594.9875L453.92188 593.34686L455.46875 593.34686L455.46875 590.26874L457.5625 589.0031L457.5625 593.34686L459.6875 593.34686L459.6875 594.9875L457.5625 594.9875L457.5625 602.26874Q457.5625 603.175 457.67188 603.4406Q457.79688 603.6906 458.04688 603.84686Q458.29688 603.9875 458.76562 603.9875Q459.10938 603.9875 459.6875 603.90936ZM462.0625 605.8L462.0625 593.34686L463.95312 593.34686L463.95312 595.2375Q464.6875 593.90936 465.29688 593.4875Q465.92188 593.0656 466.65625 593.0656Q467.71875 593.0656 468.82812 593.7531L468.09375 595.70624Q467.32812 595.2531 466.54688 595.2531Q465.85938 595.2531 465.29688 595.675Q464.75 596.08124 464.51562 596.8156Q464.17188 597.9406 464.17188 599.28436L464.17188 605.8L462.0625 605.8ZM470.09375 591.05L470.09375 588.6125L472.20312 588.6125L472.20312 591.05L470.09375 591.05ZM470.09375 605.8L470.09375 593.34686L472.20312 593.34686L472.20312 605.8L470.09375 605.8ZM477.03125 605.8L475.07812 605.8L475.07812 588.6125L477.1875 588.6125L477.1875 594.7531Q478.51562 593.0656 480.59375 593.0656Q481.73438 593.0656 482.76562 593.53436Q483.79688 594.0031 484.45312 594.84686Q485.10938 595.675 485.48438 596.8625Q485.85938 598.03436 485.85938 599.39374Q485.85938 602.58124 484.28125 604.33124Q482.70312 606.08124 480.48438 606.08124Q478.28125 606.08124 477.03125 604.2375L477.03125 605.8ZM477.0 599.4875Q477.0 601.72186 477.60938 602.72186Q478.60938 604.34686 480.3125 604.34686Q481.6875 604.34686 482.6875 603.14374Q483.70312 601.9406 483.70312 599.5656Q483.70312 597.1281 482.73438 595.97186Q481.78125 594.8 480.40625 594.8Q479.01562 594.8 478.0 596.0031Q477.0 597.20624 477.0 599.4875ZM497.23438 605.8L497.23438 603.97186Q495.78125 606.08124 493.29688 606.08124Q492.1875 606.08124 491.23438 605.65936Q490.28125 605.2375 489.8125 604.59686Q489.35938 603.95624 489.17188 603.03436Q489.03125 602.40936 489.03125 601.0656L489.03125 593.34686L491.14062 593.34686L491.14062 600.2531Q491.14062 601.90936 491.28125 602.4875Q491.46875 603.3156 492.10938 603.8Q492.76562 604.26874 493.71875 604.26874Q494.65625 604.26874 495.48438 603.78436Q496.32812 603.28436 496.67188 602.45624Q497.01562 601.6125 497.01562 600.01874L497.01562 593.34686L499.125 593.34686L499.125 605.8L497.23438 605.8ZM507.6875 603.90936L508.0 605.76874Q507.10938 605.97186 506.40625 605.97186Q505.25 605.97186 504.60938 605.6125Q503.98438 605.2375 503.71875 604.64374Q503.46875 604.05 503.46875 602.15936L503.46875 594.9875L501.92188 594.9875L501.92188 593.34686L503.46875 593.34686L503.46875 590.26874L505.5625 589.0031L505.5625 593.34686L507.6875 593.34686L507.6875 594.9875L505.5625 594.9875L505.5625 602.26874Q505.5625 603.175 505.67188 603.4406Q505.79688 603.6906 506.04688 603.84686Q506.29688 603.9875 506.76562 603.9875Q507.10938 603.9875 507.6875 603.90936ZM510.09375 591.05L510.09375 588.6125L512.2031 588.6125L512.2031 591.05L510.09375 591.05ZM510.09375 605.8L510.09375 593.34686L512.2031 593.34686L512.2031 605.8L510.09375 605.8ZM514.2969 599.58124Q514.2969 596.1125 516.21875 594.45624Q517.8281 593.0656 520.1406 593.0656Q522.7031 593.0656 524.3281 594.7531Q525.9531 596.4406 525.9531 599.39374Q525.9531 601.8 525.2344 603.175Q524.5156 604.55 523.1406 605.3156Q521.7656 606.08124 520.1406 606.08124Q517.5156 606.08124 515.90625 604.40936Q514.2969 602.72186 514.2969 599.58124ZM516.46875 599.58124Q516.46875 601.97186 517.5 603.15936Q518.5469 604.34686 520.1406 604.34686Q521.7031 604.34686 522.75 603.15936Q523.7969 601.95624 523.7969 599.5031Q523.7969 597.1906 522.7344 596.0031Q521.6875 594.8156 520.1406 594.8156Q518.5469 594.8156 517.5 596.0031Q516.46875 597.1906 516.46875 599.58124ZM528.0781 605.8L528.0781 593.34686L529.9844 593.34686L529.9844 595.1281Q531.3594 593.0656 533.9375 593.0656Q535.0625 593.0656 536.0 593.47186Q536.9531 593.8781 537.4219 594.53436Q537.8906 595.1906 538.0781 596.09686Q538.2031 596.675 538.2031 598.14374L538.2031 605.8L536.09375 605.8L536.09375 598.22186Q536.09375 596.9406 535.84375 596.3Q535.59375 595.65936 534.96875 595.28436Q534.34375 594.89374 533.5 594.89374Q532.15625 594.89374 531.1719 595.7531Q530.1875 596.6125 530.1875 599.0031L530.1875 605.8L528.0781 605.8Z" fill-rule="nonzero"/><path fill="#000000" d="M52.95 513.9406Q52.95 511.65936 53.41875 510.26874Q53.8875 508.8781 54.809376 508.1281Q55.746876 507.3625 57.153126 507.3625Q58.184376 507.3625 58.965626 507.78436Q59.746876 508.1906 60.246876 508.9875Q60.7625 509.76874 61.059376 510.90936Q61.35625 512.03436 61.35625 513.9406Q61.35625 516.20624 60.8875 517.6125Q60.41875 519.0031 59.48125 519.76874Q58.559376 520.51874 57.153126 520.51874Q55.278126 520.51874 54.215626 519.1906Q52.95 517.58124 52.95 513.9406ZM54.575 513.9406Q54.575 517.1125 55.309376 518.175Q56.059376 519.22186 57.153126 519.22186Q58.23125 519.22186 58.98125 518.175Q59.73125 517.1125 59.73125 513.9406Q59.73125 510.76874 58.98125 509.72186Q58.23125 508.675 57.1375 508.675Q56.04375 508.675 55.3875 509.59686Q54.575 510.76874 54.575 513.9406Z" fill-rule="nonzero"/><path fill="#000000" d="M51.2625 427.2427L51.2625 428.75833L42.746876 428.75833Q42.73125 428.1802 42.934376 427.66458Q43.2625 426.78958 43.965626 425.94583Q44.684376 425.10208 46.04375 423.9927Q48.1375 422.27396 48.871876 421.27396Q49.621876 420.25833 49.621876 419.3677Q49.621876 418.41458 48.95 417.77396Q48.278126 417.13333 47.2 417.13333Q46.04375 417.13333 45.35625 417.82083Q44.684376 418.50833 44.66875 419.71146L43.04375 419.53958Q43.215626 417.72708 44.29375 416.77396Q45.3875 415.82083 47.23125 415.82083Q49.075 415.82083 50.153126 416.85208Q51.246876 417.88333 51.246876 419.39896Q51.246876 420.16458 50.91875 420.91458Q50.60625 421.66458 49.871876 422.4927Q49.1375 423.32083 47.434376 424.75833Q46.0125 425.96146 45.60625 426.38333Q45.2 426.8052 44.95 427.2427L51.2625 427.2427ZM52.95 425.38333L54.60625 425.2427Q54.79375 426.46146 55.465626 427.07083Q56.1375 427.6802 57.090626 427.6802Q58.23125 427.6802 59.0125 426.82083Q59.809376 425.96146 59.809376 424.52396Q59.809376 423.1802 59.04375 422.39896Q58.29375 421.6177 57.059376 421.6177Q56.29375 421.6177 55.66875 421.96146Q55.059376 422.3052 54.715626 422.8677L53.23125 422.66458L54.48125 416.0552L60.8875 416.0552L60.8875 417.5552L55.746876 417.5552L55.04375 421.02396Q56.215626 420.21146 57.48125 420.21146Q59.16875 420.21146 60.325 421.38333Q61.496876 422.5552 61.496876 424.38333Q61.496876 426.13333 60.465626 427.41458Q59.23125 428.97708 57.090626 428.97708Q55.325 428.97708 54.215626 427.9927Q53.10625 427.00833 52.95 425.38333Z" fill-rule="nonzero"/><path fill="#000000" d="M42.95 333.84167L44.60625 333.70105Q44.79375 334.9198 45.465626 335.52917Q46.1375 336.13855 47.090626 336.13855Q48.23125 336.13855 49.0125 335.27917Q49.809376 334.4198 49.809376 332.9823Q49.809376 331.63855 49.04375 330.8573Q48.29375 330.07605 47.059376 330.07605Q46.29375 330.07605 45.66875 330.4198Q45.059376 330.76355 44.715626 331.32605L43.23125 331.12292L44.48125 324.51355L50.8875 324.51355L50.8875 326.01355L45.746876 326.01355L45.04375 329.4823Q46.215626 328.6698 47.48125 328.6698Q49.16875 328.6698 50.325 329.84167Q51.496876 331.01355 51.496876 332.84167Q51.496876 334.59167 50.465626 335.87292Q49.23125 337.43542 47.090626 337.43542Q45.325 337.43542 44.215626 336.45105Q43.10625 335.46667 42.95 333.84167ZM52.95 330.8573Q52.95 328.57605 53.41875 327.18542Q53.8875 325.7948 54.809376 325.0448Q55.746876 324.27917 57.153126 324.27917Q58.184376 324.27917 58.965626 324.70105Q59.746876 325.1073 60.246876 325.90417Q60.7625 326.68542 61.059376 327.82605Q61.35625 328.95105 61.35625 330.8573Q61.35625 333.12292 60.8875 334.52917Q60.41875 335.9198 59.48125 336.68542Q58.559376 337.43542 57.153126 337.43542Q55.278126 337.43542 54.215626 336.1073Q52.95 334.49792 52.95 330.8573ZM54.575 330.8573Q54.575 334.02917 55.309376 335.09167Q56.059376 336.13855 57.153126 336.13855Q58.23125 336.13855 58.98125 335.09167Q59.73125 334.02917 59.73125 330.8573Q59.73125 327.68542 58.98125 326.63855Q58.23125 325.59167 57.1375 325.59167Q56.04375 325.59167 55.3875 326.51355Q54.575 327.68542 54.575 330.8573Z" fill-rule="nonzero"/><path fill="#000000" d="M43.059376 234.47188L43.059376 232.95625L51.3875 232.95625L51.3875 234.19063Q50.16875 235.50313 48.95 237.675Q47.746876 239.83125 47.090626 242.12813Q46.60625 243.75313 46.48125 245.675L44.85625 245.675Q44.8875 244.15938 45.45 242.00313Q46.028126 239.84688 47.090626 237.84688Q48.153126 235.84688 49.35625 234.47188L43.059376 234.47188ZM52.95 242.3L54.60625 242.15938Q54.79375 243.37813 55.465626 243.9875Q56.1375 244.59688 57.090626 244.59688Q58.23125 244.59688 59.0125 243.7375Q59.809376 242.87813 59.809376 241.44063Q59.809376 240.09688 59.04375 239.31563Q58.29375 238.53438 57.059376 238.53438Q56.29375 238.53438 55.66875 238.87813Q55.059376 239.22188 54.715626 239.78438L53.23125 239.58125L54.48125 232.97188L60.8875 232.97188L60.8875 234.47188L55.746876 234.47188L55.04375 237.94063Q56.215626 237.12813 57.48125 237.12813Q59.16875 237.12813 60.325 238.3Q61.496876 239.47188 61.496876 241.3Q61.496876 243.05 60.465626 244.33125Q59.23125 245.89375 57.090626 245.89375Q55.325 245.89375 54.215626 244.90938Q53.10625 243.925 52.95 242.3Z" fill-rule="nonzero"/><path fill="#000000" d="M38.903126 154.13333L37.325 154.13333L37.325 144.0552Q36.746876 144.60208 35.825 145.14896Q34.903126 145.6802 34.153126 145.96146L34.153126 144.4302Q35.48125 143.8052 36.48125 142.91458Q37.48125 142.02396 37.8875 141.19583L38.903126 141.19583L38.903126 154.13333ZM42.95 147.77396Q42.95 145.4927 43.41875 144.10208Q43.8875 142.71146 44.809376 141.96146Q45.746876 141.19583 47.153126 141.19583Q48.184376 141.19583 48.965626 141.6177Q49.746876 142.02396 50.246876 142.82083Q50.7625 143.60208 51.059376 144.7427Q51.35625 145.8677 51.35625 147.77396Q51.35625 150.03958 50.8875 151.44583Q50.41875 152.83646 49.48125 153.60208Q48.559376 154.35208 47.153126 154.35208Q45.278126 154.35208 44.215626 153.02396Q42.95 151.41458 42.95 147.77396ZM44.575 147.77396Q44.575 150.94583 45.309376 152.00833Q46.059376 153.0552 47.153126 153.0552Q48.23125 153.0552 48.98125 152.00833Q49.73125 150.94583 49.73125 147.77396Q49.73125 144.60208 48.98125 143.5552Q48.23125 142.50833 47.1375 142.50833Q46.04375 142.50833 45.3875 143.4302Q44.575 144.60208 44.575 147.77396ZM52.95 147.77396Q52.95 145.4927 53.41875 144.10208Q53.8875 142.71146 54.809376 141.96146Q55.746876 141.19583 57.153126 141.19583Q58.184376 141.19583 58.965626 141.6177Q59.746876 142.02396 60.246876 142.82083Q60.7625 143.60208 61.059376 144.7427Q61.35625 145.8677 61.35625 147.77396Q61.35625 150.03958 60.8875 151.44583Q60.41875 152.83646 59.48125 153.60208Q58.559376 154.35208 57.153126 154.35208Q55.278126 154.35208 54.215626 153.02396Q52.95 151.41458 52.95 147.77396ZM54.575 147.77396Q54.575 150.94583 55.309376 152.00833Q56.059376 153.0552 57.153126 153.0552Q58.23125 153.0552 58.98125 152.00833Q59.73125 150.94583 59.73125 147.77396Q59.73125 144.60208 58.98125 143.5552Q58.23125 142.50833 57.1375 142.50833Q56.04375 142.50833 55.3875 143.4302Q54.575 144.60208 54.575 147.77396Z" fill-rule="nonzero"/><path fill="#000000" d="M142.93787 541.26874Q144.26599 542.175 145.37537 542.59686L144.81287 543.90936Q143.26599 543.3625 141.73474 542.15936Q140.14099 543.05 138.21912 543.05Q136.28162 543.05 134.68787 542.1125Q133.10974 541.175 132.25037 539.47186Q131.40662 537.76874 131.40662 535.64374Q131.40662 533.51874 132.26599 531.78436Q133.12537 530.05 134.70349 529.14374Q136.29724 528.22186 138.26599 528.22186Q140.25037 528.22186 141.82849 529.175Q143.42224 530.1125 144.25037 531.8156Q145.09412 533.5031 145.09412 535.6281Q145.09412 537.39374 144.56287 538.8156Q144.03162 540.22186 142.93787 541.26874ZM138.76599 538.84686Q140.40662 539.3 141.46912 540.20624Q143.14099 538.6906 143.14099 535.6281Q143.14099 533.89374 142.54724 532.59686Q141.96912 531.3 140.82849 530.58124Q139.68787 529.8625 138.26599 529.8625Q136.15662 529.8625 134.75037 531.3156Q133.35974 532.7531 133.35974 535.64374Q133.35974 538.4406 134.73474 539.9406Q136.12537 541.425 138.26599 541.425Q139.28162 541.425 140.18787 541.03436Q139.29724 540.47186 138.31287 540.22186L138.76599 538.84686ZM154.65662 542.8L154.65662 541.26874Q153.45349 543.03436 151.37537 543.03436Q150.45349 543.03436 149.65662 542.6906Q148.85974 542.33124 148.46912 541.8Q148.09412 541.26874 147.93787 540.4875Q147.82849 539.97186 147.82849 538.84686L147.82849 532.425L149.57849 532.425L149.57849 538.175Q149.57849 539.55 149.68787 540.03436Q149.85974 540.72186 150.39099 541.1281Q150.93787 541.51874 151.71912 541.51874Q152.51599 541.51874 153.20349 541.1125Q153.90662 540.70624 154.18787 540.01874Q154.48474 539.3156 154.48474 537.9875L154.48474 532.425L156.23474 532.425L156.23474 542.8L154.65662 542.8ZM164.64099 541.51874Q163.65662 542.34686 162.75037 542.6906Q161.84412 543.03436 160.81287 543.03436Q159.10974 543.03436 158.18787 542.20624Q157.26599 541.3625 157.26599 540.0656Q157.26599 539.3 157.60974 538.675Q157.96912 538.05 158.53162 537.675Q159.09412 537.28436 159.79724 537.08124Q160.31287 536.95624 161.35974 536.8156Q163.48474 536.5656 164.48474 536.22186Q164.50037 535.8625 164.50037 535.7531Q164.50037 534.6906 164.00037 534.2375Q163.32849 533.64374 162.00037 533.64374Q160.75037 533.64374 160.15662 534.08124Q159.57849 534.51874 159.29724 535.6281L157.57849 535.39374Q157.81287 534.28436 158.34412 533.6125Q158.87537 532.925 159.89099 532.5656Q160.90662 532.1906 162.25037 532.1906Q163.57849 532.1906 164.40662 532.5031Q165.23474 532.8156 165.62537 533.3Q166.01599 533.76874 166.17224 534.4875Q166.26599 534.9406 166.26599 536.1125L166.26599 538.45624Q166.26599 540.90936 166.37537 541.5656Q166.48474 542.20624 166.82849 542.8L164.98474 542.8Q164.71912 542.2531 164.64099 541.51874ZM164.48474 537.59686Q163.53162 537.9875 161.60974 538.2531Q160.53162 538.40936 160.07849 538.6125Q159.64099 538.8 159.39099 539.175Q159.14099 539.55 159.14099 540.01874Q159.14099 540.72186 159.67224 541.1906Q160.20349 541.65936 161.23474 541.65936Q162.25037 541.65936 163.03162 541.22186Q163.82849 540.76874 164.20349 540.0031Q164.48474 539.39374 164.48474 538.2375L164.48474 537.59686ZM168.85974 542.8L168.85974 532.425L170.45349 532.425L170.45349 533.90936Q171.59412 532.1906 173.75037 532.1906Q174.68787 532.1906 175.46912 532.53436Q176.26599 532.8625 176.65662 533.40936Q177.04724 533.95624 177.20349 534.70624Q177.29724 535.20624 177.29724 536.425L177.29724 542.8L175.53162 542.8L175.53162 536.4875Q175.53162 535.40936 175.32849 534.8781Q175.12537 534.34686 174.59412 534.03436Q174.07849 533.72186 173.37537 533.72186Q172.25037 533.72186 171.43787 534.4406Q170.62537 535.14374 170.62537 537.1281L170.62537 542.8L168.85974 542.8ZM182.70349 541.22186L182.95349 542.78436Q182.21912 542.9406 181.62537 542.9406Q180.67224 542.9406 180.14099 542.64374Q179.62537 542.33124 179.40662 541.84686Q179.18787 541.34686 179.18787 539.76874L179.18787 533.8L177.90662 533.8L177.90662 532.425L179.18787 532.425L179.18787 529.8625L180.93787 528.8L180.93787 532.425L182.70349 532.425L182.70349 533.8L180.93787 533.8L180.93787 539.8625Q180.93787 540.6125 181.03162 540.83124Q181.12537 541.03436 181.32849 541.175Q181.54724 541.3 181.93787 541.3Q182.21912 541.3 182.70349 541.22186Z" fill-rule="nonzero"/><path fill="#000000" d="M276.11896 541.26874Q277.44708 542.175 278.55646 542.59686L277.99396 543.90936Q276.44708 543.3625 274.91583 542.15936Q273.32208 543.05 271.4002 543.05Q269.4627 543.05 267.86896 542.1125Q266.29083 541.175 265.43146 539.47186Q264.5877 537.76874 264.5877 535.64374Q264.5877 533.51874 265.44708 531.78436Q266.30646 530.05 267.88458 529.14374Q269.47833 528.22186 271.44708 528.22186Q273.43146 528.22186 275.00958 529.175Q276.60333 530.1125 277.43146 531.8156Q278.2752 533.5031 278.2752 535.6281Q278.2752 537.39374 277.74396 538.8156Q277.2127 540.22186 276.11896 541.26874ZM271.94708 538.84686Q273.5877 539.3 274.6502 540.20624Q276.32208 538.6906 276.32208 535.6281Q276.32208 533.89374 275.72833 532.59686Q275.1502 531.3 274.00958 530.58124Q272.86896 529.8625 271.44708 529.8625Q269.3377 529.8625 267.93146 531.3156Q266.54083 532.7531 266.54083 535.64374Q266.54083 538.4406 267.91583 539.9406Q269.30646 541.425 271.44708 541.425Q272.4627 541.425 273.36896 541.03436Q272.47833 540.47186 271.49396 540.22186L271.94708 538.84686ZM287.8377 542.8L287.8377 541.26874Q286.63458 543.03436 284.55646 543.03436Q283.63458 543.03436 282.8377 542.6906Q282.04083 542.33124 281.6502 541.8Q281.2752 541.26874 281.11896 540.4875Q281.00958 539.97186 281.00958 538.84686L281.00958 532.425L282.75958 532.425L282.75958 538.175Q282.75958 539.55 282.86896 540.03436Q283.04083 540.72186 283.57208 541.1281Q284.11896 541.51874 284.9002 541.51874Q285.69708 541.51874 286.38458 541.1125Q287.0877 540.70624 287.36896 540.01874Q287.66583 539.3156 287.66583 537.9875L287.66583 532.425L289.41583 532.425L289.41583 542.8L287.8377 542.8ZM297.82208 541.51874Q296.8377 542.34686 295.93146 542.6906Q295.0252 543.03436 293.99396 543.03436Q292.29083 543.03436 291.36896 542.20624Q290.44708 541.3625 290.44708 540.0656Q290.44708 539.3 290.79083 538.675Q291.1502 538.05 291.7127 537.675Q292.2752 537.28436 292.97833 537.08124Q293.49396 536.95624 294.54083 536.8156Q296.66583 536.5656 297.66583 536.22186Q297.68146 535.8625 297.68146 535.7531Q297.68146 534.6906 297.18146 534.2375Q296.50958 533.64374 295.18146 533.64374Q293.93146 533.64374 293.3377 534.08124Q292.75958 534.51874 292.47833 535.6281L290.75958 535.39374Q290.99396 534.28436 291.5252 533.6125Q292.05646 532.925 293.07208 532.5656Q294.0877 532.1906 295.43146 532.1906Q296.75958 532.1906 297.5877 532.5031Q298.41583 532.8156 298.80646 533.3Q299.19708 533.76874 299.35333 534.4875Q299.44708 534.9406 299.44708 536.1125L299.44708 538.45624Q299.44708 540.90936 299.55646 541.5656Q299.66583 542.20624 300.00958 542.8L298.16583 542.8Q297.9002 542.2531 297.82208 541.51874ZM297.66583 537.59686Q296.7127 537.9875 294.79083 538.2531Q293.7127 538.40936 293.25958 538.6125Q292.82208 538.8 292.57208 539.175Q292.32208 539.55 292.32208 540.01874Q292.32208 540.72186 292.85333 541.1906Q293.38458 541.65936 294.41583 541.65936Q295.43146 541.65936 296.2127 541.22186Q297.00958 540.76874 297.38458 540.0031Q297.66583 539.39374 297.66583 538.2375L297.66583 537.59686ZM302.00958 542.8L302.00958 528.4875L303.75958 528.4875L303.75958 542.8L302.00958 542.8Z" fill-rule="nonzero"/><path fill="#000000" d="M386.89383 542.8L386.89383 528.4875L389.7532 528.4875L393.1282 538.6125Q393.59695 540.03436 393.8157 540.7375Q394.0657 539.95624 394.58133 538.4406L398.0032 528.4875L400.55008 528.4875L400.55008 542.8L398.73758 542.8L398.73758 530.8156L394.5657 542.8L392.86258 542.8L388.72195 530.6125L388.72195 542.8L386.89383 542.8ZM403.73758 530.5031L403.73758 528.4875L405.5032 528.4875L405.5032 530.5031L403.73758 530.5031ZM403.73758 542.8L403.73758 532.425L405.5032 532.425L405.5032 542.8L403.73758 542.8ZM406.55008 542.8L410.34695 537.40936L406.84695 532.425L409.03445 532.425L410.6282 534.8625Q411.08133 535.55 411.34695 536.01874Q411.78445 535.3781 412.14383 534.8781L413.89383 532.425L415.98758 532.425L412.40945 537.3156L416.26883 542.8L414.11258 542.8L411.97195 539.58124L411.40945 538.70624L408.6907 542.8L406.55008 542.8ZM423.83133 539.45624L425.64383 539.6906Q425.22195 541.26874 424.05008 542.15936Q422.89383 543.03436 421.08133 543.03436Q418.8157 543.03436 417.47195 541.64374Q416.14383 540.2375 416.14383 537.70624Q416.14383 535.08124 417.48758 533.64374Q418.83133 532.1906 420.98758 532.1906Q423.0657 532.1906 424.3782 533.6125Q425.70633 535.01874 425.70633 537.59686Q425.70633 537.7531 425.6907 538.0656L417.95633 538.0656Q418.05008 539.76874 418.92508 540.675Q419.80008 541.58124 421.09695 541.58124Q422.0657 541.58124 422.73758 541.08124Q423.42508 540.5656 423.83133 539.45624ZM418.05008 536.6125L423.84695 536.6125Q423.73758 535.3156 423.1907 534.65936Q422.34695 533.64374 421.0032 533.64374Q419.80008 533.64374 418.97195 534.45624Q418.14383 535.2531 418.05008 536.6125ZM434.45633 542.8L434.45633 541.4875Q433.47195 543.03436 431.55008 543.03436Q430.3157 543.03436 429.26883 542.34686Q428.23758 541.65936 427.65945 540.4406Q427.09695 539.22186 427.09695 537.6281Q427.09695 536.0656 427.61258 534.8Q428.1282 533.53436 429.15945 532.8625Q430.20633 532.1906 431.47195 532.1906Q432.40945 532.1906 433.14383 532.59686Q433.8782 532.9875 434.34695 533.6125L434.34695 528.4875L436.08133 528.4875L436.08133 542.8L434.45633 542.8ZM428.89383 537.6281Q428.89383 539.6125 429.73758 540.59686Q430.58133 541.58124 431.72195 541.58124Q432.8782 541.58124 433.67508 540.64374Q434.48758 539.70624 434.48758 537.76874Q434.48758 535.64374 433.65945 534.64374Q432.84695 533.64374 431.64383 533.64374Q430.47195 533.64374 429.67508 534.6125Q428.89383 535.5656 428.89383 537.6281Z" fill-rule="nonzero"/><path fill="#000000" d="M506.4968 538.20624L508.27805 538.05Q508.40305 539.1125 508.85617 539.8Q509.32492 540.4875 510.29367 540.925Q511.27805 541.34686 512.51245 541.34686Q513.5906 541.34686 514.4187 541.03436Q515.2468 540.70624 515.6531 540.14374Q516.0593 539.58124 516.0593 538.90936Q516.0593 538.2375 515.6687 537.7375Q515.2781 537.2375 514.38745 536.89374Q513.8093 536.65936 511.82492 536.1906Q509.85617 535.72186 509.07492 535.3Q508.04367 534.76874 507.54367 533.97186Q507.04367 533.175 507.04367 532.1906Q507.04367 531.09686 507.65305 530.15936Q508.26242 529.22186 509.44992 528.7375Q510.63742 528.2375 512.07495 528.2375Q513.6687 528.2375 514.88745 528.7531Q516.1062 529.26874 516.7468 530.26874Q517.4031 531.2531 517.44995 532.51874L515.63745 532.65936Q515.4968 531.3 514.6531 530.6125Q513.8093 529.90936 512.1531 529.90936Q510.4343 529.90936 509.63742 530.55Q508.85617 531.175 508.85617 532.05Q508.85617 532.83124 509.41867 533.33124Q509.96555 533.83124 512.2781 534.34686Q514.5906 534.8625 515.44995 535.2531Q516.69995 535.83124 517.2937 536.72186Q517.88745 537.59686 517.88745 538.7531Q517.88745 539.89374 517.2312 540.90936Q516.57495 541.925 515.3406 542.4875Q514.1218 543.05 512.5906 543.05Q510.65305 543.05 509.34055 542.4875Q508.02805 541.90936 507.27805 540.76874Q506.52805 539.6281 506.4968 538.20624ZM519.82495 546.8L519.63745 545.14374Q520.2156 545.3 520.63745 545.3Q521.2312 545.3 521.57495 545.09686Q521.9343 544.90936 522.1531 544.5656Q522.32495 544.3 522.69995 543.2531Q522.7468 543.09686 522.8562 542.8156L518.9187 532.425L520.8093 532.425L522.9656 538.4406Q523.38745 539.58124 523.7156 540.83124Q524.0281 539.6281 524.4343 538.47186L526.6531 532.425L528.4187 532.425L524.4656 542.97186Q523.8406 544.6906 523.4812 545.33124Q523.01245 546.20624 522.4031 546.59686Q521.8093 547.0031 520.9656 547.0031Q520.44995 547.0031 519.82495 546.8ZM529.19995 539.70624L530.94995 539.425Q531.0906 540.47186 531.76245 541.03436Q532.4343 541.58124 533.63745 541.58124Q534.8406 541.58124 535.4187 541.09686Q536.01245 540.59686 536.01245 539.9406Q536.01245 539.34686 535.4968 539.0031Q535.13745 538.76874 533.69995 538.40936Q531.76245 537.90936 531.01245 537.5656Q530.2781 537.20624 529.88745 536.58124Q529.4968 535.9406 529.4968 535.175Q529.4968 534.4875 529.8093 533.89374Q530.13745 533.3 530.6843 532.90936Q531.0906 532.6125 531.7937 532.40936Q532.51245 532.1906 533.32495 532.1906Q534.5437 532.1906 535.4656 532.55Q536.38745 532.89374 536.82495 533.5031Q537.26245 534.09686 537.4343 535.09686L535.7156 535.33124Q535.5906 534.53436 535.0281 534.09686Q534.4656 533.64374 533.44995 533.64374Q532.2312 533.64374 531.7156 534.05Q531.19995 534.4406 531.19995 534.97186Q531.19995 535.3156 531.4187 535.59686Q531.6218 535.8781 532.0906 536.0656Q532.3562 536.15936 533.63745 536.5031Q535.51245 537.0031 536.2468 537.33124Q536.9812 537.64374 537.4031 538.2531Q537.82495 538.84686 537.82495 539.7531Q537.82495 540.6281 537.3093 541.40936Q536.7937 542.1906 535.82495 542.6125Q534.8562 543.03436 533.63745 543.03436Q531.6218 543.03436 530.5593 542.1906Q529.4968 541.34686 529.19995 539.70624ZM543.7468 541.22186L543.9968 542.78436Q543.26245 542.9406 542.6687 542.9406Q541.7156 542.9406 541.1843 542.64374Q540.6687 542.33124 540.44995 541.84686Q540.2312 541.34686 540.2312 539.76874L540.2312 533.8L538.94995 533.8L538.94995 532.425L540.2312 532.425L540.2312 529.8625L541.9812 528.8L541.9812 532.425L543.7468 532.425L543.7468 533.8L541.9812 533.8L541.9812 539.8625Q541.9812 540.6125 542.07495 540.83124Q542.1687 541.03436 542.3718 541.175Q542.5906 541.3 542.9812 541.3Q543.26245 541.3 543.7468 541.22186ZM553.01245 539.45624L554.82495 539.6906Q554.4031 541.26874 553.2312 542.15936Q552.07495 543.03436 550.26245 543.03436Q547.9968 543.03436 546.6531 541.64374Q545.32495 540.2375 545.32495 537.70624Q545.32495 535.08124 546.6687 533.64374Q548.01245 532.1906 550.1687 532.1906Q552.2468 532.1906 553.5593 533.6125Q554.88745 535.01874 554.88745 537.59686Q554.88745 537.7531 554.8718 538.0656L547.13745 538.0656Q547.2312 539.76874 548.1062 540.675Q548.9812 541.58124 550.2781 541.58124Q551.2468 541.58124 551.9187 541.08124Q552.6062 540.5656 553.01245 539.45624ZM547.2312 536.6125L553.0281 536.6125Q552.9187 535.3156 552.3718 534.65936Q551.5281 533.64374 550.1843 533.64374Q548.9812 533.64374 548.1531 534.45624Q547.32495 535.2531 547.2312 536.6125ZM556.9031 542.8L556.9031 532.425L558.4812 532.425L558.4812 533.8781Q558.9656 533.1281 559.7781 532.65936Q560.5906 532.1906 561.6218 532.1906Q562.7781 532.1906 563.51245 532.675Q564.2468 533.14374 564.5593 534.0031Q565.7937 532.1906 567.76245 532.1906Q569.3093 532.1906 570.13745 533.05Q570.9656 533.90936 570.9656 535.675L570.9656 542.8L569.2156 542.8L569.2156 536.26874Q569.2156 535.20624 569.0437 534.7531Q568.8718 534.28436 568.4187 534.0031Q567.9812 533.72186 567.3718 533.72186Q566.2781 533.72186 565.5437 534.45624Q564.82495 535.175 564.82495 536.76874L564.82495 542.8L563.07495 542.8L563.07495 536.0656Q563.07495 534.89374 562.63745 534.3156Q562.2156 533.72186 561.2312 533.72186Q560.4968 533.72186 559.8562 534.1125Q559.2312 534.5031 558.94995 535.2531Q558.6687 536.0031 558.6687 537.425L558.6687 542.8L556.9031 542.8Z" fill-rule="nonzero"/><path fill="#000000" d="M637.31854 542.8L637.31854 528.4875L642.2404 528.4875Q643.9123 528.4875 644.8029 528.6906Q646.02167 528.97186 646.89667 529.70624Q648.02167 530.675 648.58417 532.15936Q649.14667 533.64374 649.14667 535.5656Q649.14667 537.1906 648.77167 538.45624Q648.39667 539.70624 647.7873 540.53436Q647.19354 541.3625 646.4904 541.84686Q645.7873 542.3156 644.7873 542.5656Q643.7873 542.8 642.4748 542.8L637.31854 542.8ZM639.20917 541.1125L642.27167 541.1125Q643.6779 541.1125 644.4748 540.84686Q645.2873 540.58124 645.77167 540.09686Q646.44354 539.425 646.81854 538.3Q647.19354 537.15936 647.19354 535.53436Q647.19354 533.28436 646.45917 532.08124Q645.7248 530.8781 644.6623 530.47186Q643.9123 530.175 642.2248 530.175L639.20917 530.175L639.20917 541.1125ZM658.19354 539.45624L660.00604 539.6906Q659.58417 541.26874 658.4123 542.15936Q657.25604 543.03436 655.44354 543.03436Q653.1779 543.03436 651.83417 541.64374Q650.50604 540.2375 650.50604 537.70624Q650.50604 535.08124 651.8498 533.64374Q653.19354 532.1906 655.3498 532.1906Q657.4279 532.1906 658.7404 533.6125Q660.06854 535.01874 660.06854 537.59686Q660.06854 537.7531 660.0529 538.0656L652.31854 538.0656Q652.4123 539.76874 653.2873 540.675Q654.1623 541.58124 655.45917 541.58124Q656.4279 541.58124 657.0998 541.08124Q657.7873 540.5656 658.19354 539.45624ZM652.4123 536.6125L658.20917 536.6125Q658.0998 535.3156 657.5529 534.65936Q656.70917 533.64374 655.3654 533.64374Q654.1623 533.64374 653.33417 534.45624Q652.50604 535.2531 652.4123 536.6125ZM661.38104 539.70624L663.13104 539.425Q663.27167 540.47186 663.94354 541.03436Q664.6154 541.58124 665.81854 541.58124Q667.02167 541.58124 667.5998 541.09686Q668.19354 540.59686 668.19354 539.9406Q668.19354 539.34686 667.6779 539.0031Q667.31854 538.76874 665.88104 538.40936Q663.94354 537.90936 663.19354 537.5656Q662.45917 537.20624 662.06854 536.58124Q661.6779 535.9406 661.6779 535.175Q661.6779 534.4875 661.9904 533.89374Q662.31854 533.3 662.8654 532.90936Q663.27167 532.6125 663.9748 532.40936Q664.69354 532.1906 665.50604 532.1906Q666.7248 532.1906 667.64667 532.55Q668.56854 532.89374 669.00604 533.5031Q669.44354 534.09686 669.6154 535.09686L667.89667 535.33124Q667.77167 534.53436 667.20917 534.09686Q666.64667 533.64374 665.63104 533.64374Q664.4123 533.64374 663.89667 534.05Q663.38104 534.4406 663.38104 534.97186Q663.38104 535.3156 663.5998 535.59686Q663.8029 535.8781 664.27167 536.0656Q664.5373 536.15936 665.81854 536.5031Q667.69354 537.0031 668.4279 537.33124Q669.1623 537.64374 669.58417 538.2531Q670.00604 538.84686 670.00604 539.7531Q670.00604 540.6281 669.4904 541.40936Q668.9748 542.1906 668.00604 542.6125Q667.0373 543.03436 665.81854 543.03436Q663.8029 543.03436 662.7404 542.1906Q661.6779 541.34686 661.38104 539.70624ZM672.0998 530.5031L672.0998 528.4875L673.8654 528.4875L673.8654 530.5031L672.0998 530.5031ZM672.0998 542.8L672.0998 532.425L673.8654 532.425L673.8654 542.8L672.0998 542.8ZM675.77167 543.65936L677.4748 543.90936Q677.58417 544.70624 678.06854 545.0656Q678.7248 545.55 679.8654 545.55Q681.08417 545.55 681.7404 545.0656Q682.4123 544.58124 682.64667 543.70624Q682.7873 543.15936 682.77167 541.4406Q681.6154 542.8 679.89667 542.8Q677.75604 542.8 676.58417 541.2531Q675.4123 539.70624 675.4123 537.55Q675.4123 536.0656 675.94354 534.8156Q676.4904 533.5656 677.50604 532.8781Q678.5373 532.1906 679.9123 532.1906Q681.7404 532.1906 682.94354 533.675L682.94354 532.425L684.5529 532.425L684.5529 541.39374Q684.5529 543.8156 684.0529 544.8156Q683.56854 545.83124 682.4904 546.40936Q681.4279 547.0031 679.8654 547.0031Q678.02167 547.0031 676.8654 546.175Q675.7248 545.34686 675.77167 543.65936ZM677.2248 537.425Q677.2248 539.47186 678.0373 540.40936Q678.8498 541.34686 680.06854 541.34686Q681.27167 541.34686 682.08417 540.40936Q682.9123 539.47186 682.9123 537.4875Q682.9123 535.58124 682.06854 534.6125Q681.2248 533.64374 680.0373 533.64374Q678.8654 533.64374 678.0373 534.59686Q677.2248 535.55 677.2248 537.425ZM687.08417 542.8L687.08417 532.425L688.6779 532.425L688.6779 533.90936Q689.81854 532.1906 691.9748 532.1906Q692.9123 532.1906 693.69354 532.53436Q694.4904 532.8625 694.88104 533.40936Q695.27167 533.95624 695.4279 534.70624Q695.52167 535.20624 695.52167 536.425L695.52167 542.8L693.75604 542.8L693.75604 536.4875Q693.75604 535.40936 693.5529 534.8781Q693.3498 534.34686 692.81854 534.03436Q692.3029 533.72186 691.5998 533.72186Q690.4748 533.72186 689.6623 534.4406Q688.8498 535.14374 688.8498 537.1281L688.8498 542.8L687.08417 542.8Z" fill-rule="nonzero"/><path fill="#000000" d="M767.64026 542.8L767.64026 530.175L762.9215 530.175L762.9215 528.4875L774.26526 528.4875L774.26526 530.175L769.5309 530.175L769.5309 542.8L767.64026 542.8ZM775.76526 542.8L775.76526 528.4875L777.5309 528.4875L777.5309 533.6125Q778.76526 532.1906 780.64026 532.1906Q781.7809 532.1906 782.62463 532.64374Q783.484 533.09686 783.8434 533.90936Q784.2184 534.70624 784.2184 536.22186L784.2184 542.8L782.4684 542.8L782.4684 536.22186Q782.4684 534.90936 781.89026 534.3156Q781.31213 533.70624 780.2809 533.70624Q779.49963 533.70624 778.7965 534.1125Q778.109 534.51874 777.81213 535.22186Q777.5309 535.90936 777.5309 537.1281L777.5309 542.8L775.76526 542.8ZM792.87463 539.45624L794.68713 539.6906Q794.26526 541.26874 793.0934 542.15936Q791.93713 543.03436 790.12463 543.03436Q787.859 543.03436 786.51526 541.64374Q785.18713 540.2375 785.18713 537.70624Q785.18713 535.08124 786.5309 533.64374Q787.87463 532.1906 790.0309 532.1906Q792.109 532.1906 793.4215 533.6125Q794.74963 535.01874 794.74963 537.59686Q794.74963 537.7531 794.734 538.0656L786.99963 538.0656Q787.0934 539.76874 787.9684 540.675Q788.8434 541.58124 790.14026 541.58124Q791.109 541.58124 791.7809 541.08124Q792.4684 540.5656 792.87463 539.45624ZM787.0934 536.6125L792.89026 536.6125Q792.7809 535.3156 792.234 534.65936Q791.39026 533.64374 790.0465 533.64374Q788.8434 533.64374 788.01526 534.45624Q787.18713 535.2531 787.0934 536.6125ZM796.12463 537.6125Q796.12463 534.7375 797.7184 533.34686Q799.06213 532.1906 800.984 532.1906Q803.12463 532.1906 804.4684 533.59686Q805.82776 535.0031 805.82776 537.47186Q805.82776 539.47186 805.234 540.6281Q804.64026 541.76874 803.484 542.40936Q802.3434 543.03436 800.984 543.03436Q798.7965 543.03436 797.45276 541.64374Q796.12463 540.2375 796.12463 537.6125ZM797.9215 537.6125Q797.9215 539.6125 798.7809 540.59686Q799.6559 541.58124 800.984 541.58124Q802.2965 541.58124 803.1559 540.59686Q804.0309 539.59686 804.0309 537.55Q804.0309 535.6281 803.1559 534.64374Q802.2809 533.64374 800.984 533.64374Q799.6559 533.64374 798.7809 534.64374Q797.9215 535.6281 797.9215 537.6125ZM807.74963 542.8L807.74963 532.425L809.32776 532.425L809.32776 534.0031Q809.93713 532.89374 810.45276 532.55Q810.9684 532.1906 811.57776 532.1906Q812.4684 532.1906 813.39026 532.7531L812.7809 534.39374Q812.14026 534.0031 811.49963 534.0031Q810.9215 534.0031 810.45276 534.3625Q809.99963 534.70624 809.7965 535.3156Q809.51526 536.2531 809.51526 537.3625L809.51526 542.8L807.74963 542.8ZM814.68713 546.8L814.49963 545.14374Q815.07776 545.3 815.49963 545.3Q816.0934 545.3 816.43713 545.09686Q816.7965 544.90936 817.01526 544.5656Q817.18713 544.3 817.56213 543.2531Q817.609 543.09686 817.7184 542.8156L813.7809 532.425L815.6715 532.425L817.82776 538.4406Q818.24963 539.58124 818.57776 540.83124Q818.89026 539.6281 819.2965 538.47186L821.51526 532.425L823.2809 532.425L819.32776 542.97186Q818.70276 544.6906 818.3434 545.33124Q817.87463 546.20624 817.26526 546.59686Q816.6715 547.0031 815.82776 547.0031Q815.31213 547.0031 814.68713 546.8Z" fill-rule="nonzero"/><path fill="#fbbc04" d="M359.0 100.166664C359.0 99.61438 359.44772 99.166664 360.0 99.166664L370.0 99.166664C370.55228 99.166664 371.0 99.61438 371.0 100.166664L371.0 110.166664C371.0 110.71895 370.55228 111.166664 370.0 111.166664L360.0 111.166664C359.44772 111.166664 359.0 110.71895 359.0 110.166664Z" fill-rule="nonzero"/><path fill="#1a1a1a" d="M380.42188 111.666664L380.42188 98.77604L386.125 98.77604Q387.84375 98.77604 388.73438 99.135414Q389.64062 99.479164 390.17188 100.354164Q390.71875 101.229164 390.71875 102.291664Q390.71875 103.666664 389.82812 104.604164Q388.9375 105.541664 387.09375 105.80729Q387.76562 106.135414 388.10938 106.447914Q388.85938 107.135414 389.53125 108.166664L391.76562 111.666664L389.625 111.666664L387.92188 108.979164Q387.17188 107.822914 386.6875 107.21354Q386.20312 106.58854 385.8125 106.354164Q385.4375 106.104164 385.04688 106.010414Q384.75 105.947914 384.09375 105.947914L382.125 105.947914L382.125 111.666664L380.42188 111.666664ZM382.125 104.46354L385.78125 104.46354Q386.95312 104.46354 387.60938 104.229164Q388.26562 103.979164 388.60938 103.447914Q388.95312 102.916664 388.95312 102.291664Q388.95312 101.385414 388.28125 100.791664Q387.625 100.197914 386.20312 100.197914L382.125 100.197914L382.125 104.46354ZM393.42188 111.666664L393.42188 98.77604L402.73438 98.77604L402.73438 100.30729L395.125 100.30729L395.125 104.24479L402.25 104.24479L402.25 105.760414L395.125 105.760414L395.125 110.15104L403.04688 110.15104L403.04688 111.666664L393.42188 111.666664ZM405.42188 111.666664L405.42188 98.77604L411.125 98.77604Q412.84375 98.77604 413.73438 99.135414Q414.64062 99.479164 415.17188 100.354164Q415.71875 101.229164 415.71875 102.291664Q415.71875 103.666664 414.82812 104.604164Q413.9375 105.541664 412.09375 105.80729Q412.76562 106.135414 413.10938 106.447914Q413.85938 107.135414 414.53125 108.166664L416.76562 111.666664L414.625 111.666664L412.92188 108.979164Q412.17188 107.822914 411.6875 107.21354Q411.20312 106.58854 410.8125 106.354164Q410.4375 106.104164 410.04688 106.010414Q409.75 105.947914 409.09375 105.947914L407.125 105.947914L407.125 111.666664L405.42188 111.666664ZM407.125 104.46354L410.78125 104.46354Q411.95312 104.46354 412.60938 104.229164Q413.26562 103.979164 413.60938 103.447914Q413.95312 102.916664 413.95312 102.291664Q413.95312 101.385414 413.28125 100.791664Q412.625 100.197914 411.20312 100.197914L407.125 100.197914L407.125 104.46354Z" fill-rule="nonzero"/><path fill="#ea4335" d="M433.0 100.166664C433.0 99.61438 433.44772 99.166664 434.0 99.166664L444.0 99.166664C444.55228 99.166664 445.0 99.61438 445.0 100.166664L445.0 110.166664C445.0 110.71895 444.55228 111.166664 444.0 111.166664L434.0 111.166664C433.44772 111.166664 433.0 110.71895 433.0 110.166664Z" fill-rule="nonzero"/><path fill="#1a1a1a" d="M454.39062 111.666664L454.39062 98.77604L458.82812 98.77604Q460.32812 98.77604 461.125 98.96354Q462.23438 99.21354 463.01562 99.885414Q464.03125 100.74479 464.53125 102.08854Q465.04688 103.43229 465.04688 105.15104Q465.04688 106.61979 464.70312 107.760414Q464.35938 108.885414 463.8125 109.635414Q463.28125 110.36979 462.64062 110.80729Q462.01562 111.229164 461.10938 111.447914Q460.20312 111.666664 459.03125 111.666664L454.39062 111.666664ZM456.09375 110.15104L458.84375 110.15104Q460.125 110.15104 460.84375 109.916664Q461.5625 109.666664 462.0 109.24479Q462.60938 108.635414 462.9375 107.61979Q463.28125 106.58854 463.28125 105.11979Q463.28125 103.104164 462.60938 102.02604Q461.95312 100.93229 461.0 100.572914Q460.32812 100.30729 458.79688 100.30729L456.09375 100.30729L456.09375 110.15104ZM467.42188 111.666664L467.42188 98.77604L473.125 98.77604Q474.84375 98.77604 475.73438 99.135414Q476.64062 99.479164 477.17188 100.354164Q477.71875 101.229164 477.71875 102.291664Q477.71875 103.666664 476.82812 104.604164Q475.9375 105.541664 474.09375 105.80729Q474.76562 106.135414 475.10938 106.447914Q475.85938 107.135414 476.53125 108.166664L478.76562 111.666664L476.625 111.666664L474.92188 108.979164Q474.17188 107.822914 473.6875 107.21354Q473.20312 106.58854 472.8125 106.354164Q472.4375 106.104164 472.04688 106.010414Q471.75 105.947914 471.09375 105.947914L469.125 105.947914L469.125 111.666664L467.42188 111.666664ZM469.125 104.46354L472.78125 104.46354Q473.95312 104.46354 474.60938 104.229164Q475.26562 103.979164 475.60938 103.447914Q475.95312 102.916664 475.95312 102.291664Q475.95312 101.385414 475.28125 100.791664Q474.625 100.197914 473.20312 100.197914L469.125 100.197914L469.125 104.46354Z" fill-rule="nonzero"/><path fill="#4285f4" d="M495.0 100.166664C495.0 99.61438 495.44772 99.166664 496.0 99.166664L506.0 99.166664C506.55228 99.166664 507.0 99.61438 507.0 100.166664L507.0 110.166664C507.0 110.71895 506.55228 111.166664 506.0 111.166664L496.0 111.166664C495.44772 111.166664 495.0 110.71895 495.0 110.166664Z" fill-rule="nonzero"/><path fill="#1a1a1a" d="M514.96875 111.666664L519.9219 98.77604L521.7656 98.77604L527.03125 111.666664L525.09375 111.666664L523.59375 107.760414L518.2031 107.760414L516.78125 111.666664L514.96875 111.666664ZM518.6875 106.36979L523.0625 106.36979L521.71875 102.80729Q521.09375 101.18229 520.7969 100.135414Q520.5625 101.36979 520.1094 102.58854L518.6875 106.36979ZM527.3906 111.666664L527.3906 98.77604L531.8281 98.77604Q533.3281 98.77604 534.125 98.96354Q535.2344 99.21354 536.0156 99.885414Q537.03125 100.74479 537.53125 102.08854Q538.0469 103.43229 538.0469 105.15104Q538.0469 106.61979 537.7031 107.760414Q537.3594 108.885414 536.8125 109.635414Q536.28125 110.36979 535.6406 110.80729Q535.0156 111.229164 534.1094 111.447914Q533.2031 111.666664 532.03125 111.666664L527.3906 111.666664ZM529.09375 110.15104L531.84375 110.15104Q533.125 110.15104 533.84375 109.916664Q534.5625 109.666664 535.0 109.24479Q535.6094 108.635414 535.9375 107.61979Q536.28125 106.58854 536.28125 105.11979Q536.28125 103.104164 535.6094 102.02604Q534.9531 100.93229 534.0 100.572914Q533.3281 100.30729 531.7969 100.30729L529.09375 100.30729L529.09375 110.15104ZM540.4219 111.666664L540.4219 98.77604L546.125 98.77604Q547.84375 98.77604 548.7344 99.135414Q549.6406 99.479164 550.1719 100.354164Q550.71875 101.229164 550.71875 102.291664Q550.71875 103.666664 549.8281 104.604164Q548.9375 105.541664 547.09375 105.80729Q547.7656 106.135414 548.1094 106.447914Q548.8594 107.135414 549.53125 108.166664L551.7656 111.666664L549.625 111.666664L547.9219 108.979164Q547.1719 107.822914 546.6875 107.21354Q546.2031 106.58854 545.8125 106.354164Q545.4375 106.104164 545.0469 106.010414Q544.75 105.947914 544.09375 105.947914L542.125 105.947914L542.125 111.666664L540.4219 111.666664ZM542.125 104.46354L545.78125 104.46354Q546.9531 104.46354 547.6094 104.229164Q548.2656 103.979164 548.6094 103.447914Q548.9531 102.916664 548.9531 102.291664Q548.9531 101.385414 548.28125 100.791664Q547.625 100.197914 546.2031 100.197914L542.125 100.197914L542.125 104.46354Z" fill-rule="nonzero"/><path fill="#757575" d="M34.840626 56.2L34.840626 30.434376L44.5125 30.434376Q47.465626 30.434376 49.246876 31.215626Q51.028126 31.996876 52.028126 33.621876Q53.04375 35.246876 53.04375 37.028126Q53.04375 38.66875 52.153126 40.1375Q51.2625 41.590626 49.45 42.48125Q51.778126 43.16875 53.028126 44.825Q54.29375 46.48125 54.29375 48.73125Q54.29375 50.54375 53.528126 52.10625Q52.7625 53.653126 51.6375 54.496876Q50.5125 55.340626 48.809376 55.778126Q47.121876 56.2 44.66875 56.2L34.840626 56.2ZM38.246876 41.2625L43.825 41.2625Q46.090626 41.2625 47.075 40.965626Q48.371876 40.575 49.028126 39.684376Q49.684376 38.778126 49.684376 37.41875Q49.684376 36.1375 49.075 35.16875Q48.465626 34.184376 47.309376 33.825Q46.16875 33.465626 43.403126 33.465626L38.246876 33.465626L38.246876 41.2625ZM38.246876 53.153126L44.66875 53.153126Q46.309376 53.153126 46.98125 53.028126Q48.16875 52.825 48.95 52.340626Q49.746876 51.840626 50.246876 50.903126Q50.7625 49.965626 50.7625 48.73125Q50.7625 47.29375 50.028126 46.23125Q49.29375 45.153126 47.98125 44.73125Q46.66875 44.29375 44.2 44.29375L38.246876 44.29375L38.246876 53.153126ZM58.54375 56.2L58.54375 37.528126L61.3875 37.528126L61.3875 40.35625Q62.48125 38.371876 63.403126 37.746876Q64.325 37.10625 65.43437 37.10625Q67.02812 37.10625 68.68437 38.121876L67.59062 41.059376Q66.43437 40.371876 65.27812 40.371876Q64.23125 40.371876 63.403126 40.996876Q62.575 41.621876 62.23125 42.73125Q61.7 44.41875 61.7 46.41875L61.7 56.2L58.54375 56.2ZM83.35625 50.184376L86.62187 50.590626Q85.85625 53.45 83.7625 55.04375Q81.66875 56.621876 78.41875 56.621876Q74.325 56.621876 71.91875 54.10625Q69.5125 51.575 69.5125 47.028126Q69.5125 42.309376 71.93437 39.715626Q74.37187 37.10625 78.23125 37.10625Q81.98125 37.10625 84.35625 39.653126Q86.73125 42.2 86.73125 46.825Q86.73125 47.10625 86.71562 47.66875L72.79375 47.66875Q72.96562 50.746876 74.52812 52.3875Q76.09062 54.0125 78.43437 54.0125Q80.16875 54.0125 81.40312 53.10625Q82.6375 52.184376 83.35625 50.184376ZM72.96562 45.075L83.3875 45.075Q83.18437 42.715626 82.2 41.54375Q80.68437 39.715626 78.27812 39.715626Q76.09062 39.715626 74.60625 41.16875Q73.12187 42.621876 72.96562 45.075ZM102.7625 53.903126Q100.99687 55.3875 99.37187 56.0125Q97.74687 56.621876 95.8875 56.621876Q92.80937 56.621876 91.15312 55.121876Q89.49687 53.621876 89.49687 51.278126Q89.49687 49.903126 90.12187 48.778126Q90.74687 47.6375 91.7625 46.95Q92.77812 46.2625 94.04375 45.91875Q94.96562 45.66875 96.85625 45.434376Q100.68437 44.98125 102.49687 44.35625Q102.5125 43.7 102.5125 43.528126Q102.5125 41.590626 101.60625 40.79375Q100.40312 39.73125 98.0125 39.73125Q95.77812 39.73125 94.71562 40.5125Q93.65312 41.29375 93.1375 43.278126L90.04375 42.85625Q90.46562 40.871876 91.43437 39.653126Q92.40312 38.434376 94.23125 37.778126Q96.05937 37.10625 98.46562 37.10625Q100.85625 37.10625 102.34062 37.66875Q103.84062 38.23125 104.54375 39.090626Q105.24687 39.934376 105.52812 41.246876Q105.68437 42.04375 105.68437 44.153126L105.68437 48.371876Q105.68437 52.79375 105.8875 53.965626Q106.09062 55.121876 106.7 56.2L103.3875 56.2Q102.90312 55.215626 102.7625 53.903126ZM102.49687 46.825Q100.7625 47.528126 97.325 48.028126Q95.37187 48.309376 94.55937 48.66875Q93.7625 49.0125 93.30937 49.684376Q92.87187 50.35625 92.87187 51.184376Q92.87187 52.45 93.825 53.29375Q94.79375 54.1375 96.6375 54.1375Q98.46562 54.1375 99.8875 53.340626Q101.30937 52.54375 101.98125 51.153126Q102.49687 50.075 102.49687 47.996876L102.49687 46.825ZM110.59062 56.2L110.59062 30.434376L113.7625 30.434376L113.7625 45.121876L121.24687 37.528126L125.34062 37.528126L118.2 44.45L126.05937 56.2L122.15312 56.2L115.98125 46.653126L113.7625 48.79375L113.7625 56.2L110.59062 56.2ZM141.68437 56.2L141.68437 53.840626Q139.90312 56.621876 136.46562 56.621876Q134.23125 56.621876 132.35625 55.3875Q130.48125 54.153126 129.45 51.95Q128.43437 49.746876 128.43437 46.8875Q128.43437 44.090626 129.35625 41.809376Q130.29375 39.528126 132.15312 38.325Q134.02812 37.10625 136.325 37.10625Q138.0125 37.10625 139.325 37.825Q140.65312 38.528126 141.48125 39.66875L141.48125 30.434376L144.62187 30.434376L144.62187 56.2L141.68437 56.2ZM131.68437 46.8875Q131.68437 50.465626 133.18437 52.246876Q134.7 54.0125 136.7625 54.0125Q138.84062 54.0125 140.27812 52.325Q141.73125 50.621876 141.73125 47.153126Q141.73125 43.309376 140.24687 41.528126Q138.77812 39.73125 136.62187 39.73125Q134.5125 39.73125 133.09062 41.45Q131.68437 43.16875 131.68437 46.8875ZM148.40312 46.871876Q148.40312 41.684376 151.27812 39.184376Q153.68437 37.10625 157.15312 37.10625Q160.99687 37.10625 163.43437 39.6375Q165.8875 42.153126 165.8875 46.60625Q165.8875 50.2 164.80937 52.278126Q163.73125 54.340626 161.65312 55.48125Q159.59062 56.621876 157.15312 56.621876Q153.23125 56.621876 150.80937 54.10625Q148.40312 51.590626 148.40312 46.871876ZM151.65312 46.871876Q151.65312 50.45 153.21562 52.23125Q154.77812 54.0125 157.15312 54.0125Q159.5125 54.0125 161.075 52.23125Q162.6375 50.434376 162.6375 46.7625Q162.6375 43.29375 161.05937 41.5125Q159.48125 39.73125 157.15312 39.73125Q154.77812 39.73125 153.21562 41.5125Q151.65312 43.278126 151.65312 46.871876ZM173.0125 56.2L167.30937 37.528126L170.575 37.528126L173.54375 48.309376L174.65312 52.309376Q174.73125 52.0125 175.62187 48.465626L178.59062 37.528126L181.84062 37.528126L184.6375 48.35625L185.575 51.934376L186.6375 48.325L189.84062 37.528126L192.91875 37.528126L187.075 56.2L183.79375 56.2L180.825 45.0125L180.10625 41.840626L176.325 56.2L173.0125 56.2ZM194.575 56.2L194.575 37.528126L197.41875 37.528126L197.41875 40.184376Q199.48125 37.10625 203.35625 37.10625Q205.04375 37.10625 206.46562 37.715626Q207.8875 38.325 208.59062 39.309376Q209.29375 40.29375 209.575 41.6375Q209.74687 42.528126 209.74687 44.715626L209.74687 56.2L206.575 56.2L206.575 44.840626Q206.575 42.903126 206.2 41.95Q205.84062 40.996876 204.90312 40.434376Q203.96562 39.85625 202.7 39.85625Q200.66875 39.85625 199.2 41.1375Q197.73125 42.41875 197.73125 45.996876L197.73125 56.2L194.575 56.2ZM222.40312 46.871876Q222.40312 41.684376 225.27812 39.184376Q227.68437 37.10625 231.15312 37.10625Q234.99687 37.10625 237.43437 39.6375Q239.8875 42.153126 239.8875 46.60625Q239.8875 50.2 238.80937 52.278126Q237.73125 54.340626 235.65312 55.48125Q233.59062 56.621876 231.15312 56.621876Q227.23125 56.621876 224.80937 54.10625Q222.40312 51.590626 222.40312 46.871876ZM225.65312 46.871876Q225.65312 50.45 227.21562 52.23125Q228.77812 54.0125 231.15312 54.0125Q233.5125 54.0125 235.075 52.23125Q236.6375 50.434376 236.6375 46.7625Q236.6375 43.29375 235.05937 41.5125Q233.48125 39.73125 231.15312 39.73125Q228.77812 39.73125 227.21562 41.5125Q225.65312 43.278126 225.65312 46.871876ZM244.325 56.2L244.325 39.996876L241.52812 39.996876L241.52812 37.528126L244.325 37.528126L244.325 35.54375Q244.325 33.66875 244.66875 32.746876Q245.12187 31.5125 246.2625 30.7625Q247.41875 29.996876 249.49687 29.996876Q250.84062 29.996876 252.45 30.309376L251.98125 33.059376Q250.99687 32.8875 250.10625 32.8875Q248.66875 32.8875 248.075 33.5125Q247.48125 34.121876 247.48125 35.809376L247.48125 37.528126L251.12187 37.528126L251.12187 39.996876L247.48125 39.996876L247.48125 56.2L244.325 56.2ZM263.98126 56.2L263.98126 30.434376L272.85626 30.434376Q275.85626 30.434376 277.45 30.79375Q279.65314 31.309376 281.21564 32.6375Q283.2625 34.371876 284.2625 37.059376Q285.27814 39.73125 285.27814 43.16875Q285.27814 46.10625 284.59064 48.371876Q283.91876 50.6375 282.84064 52.1375Q281.7625 53.621876 280.48126 54.48125Q279.21564 55.325 277.41876 55.7625Q275.6219 56.2 273.27814 56.2L263.98126 56.2ZM267.3875 53.153126L272.8875 53.153126Q275.4344 53.153126 276.8875 52.684376Q278.34064 52.215626 279.2 51.340626Q280.41876 50.1375 281.09064 48.090626Q281.7625 46.04375 281.7625 43.121876Q281.7625 39.075 280.4344 36.903126Q279.10626 34.73125 277.21564 33.996876Q275.84064 33.465626 272.8094 33.465626L267.3875 33.465626L267.3875 53.153126ZM302.35626 50.184376L305.6219 50.590626Q304.85626 53.45 302.7625 55.04375Q300.66876 56.621876 297.41876 56.621876Q293.325 56.621876 290.91876 54.10625Q288.5125 51.575 288.5125 47.028126Q288.5125 42.309376 290.9344 39.715626Q293.3719 37.10625 297.23126 37.10625Q300.98126 37.10625 303.35626 39.653126Q305.73126 42.2 305.73126 46.825Q305.73126 47.10625 305.71564 47.66875L291.79376 47.66875Q291.96564 50.746876 293.52814 52.3875Q295.09064 54.0125 297.4344 54.0125Q299.16876 54.0125 300.40314 53.10625Q301.6375 52.184376 302.35626 50.184376ZM291.96564 45.075L302.3875 45.075Q302.1844 42.715626 301.2 41.54375Q299.6844 39.715626 297.27814 39.715626Q295.09064 39.715626 293.60626 41.16875Q292.1219 42.621876 291.96564 45.075ZM321.7625 49.35625L324.8719 49.7625Q324.35626 52.98125 322.2469 54.809376Q320.15314 56.621876 317.09064 56.621876Q313.2625 56.621876 310.9344 54.121876Q308.60626 51.60625 308.60626 46.934376Q308.60626 43.91875 309.60626 41.653126Q310.60626 39.371876 312.65314 38.246876Q314.7 37.10625 317.1219 37.10625Q320.15314 37.10625 322.09064 38.653126Q324.02814 40.184376 324.575 43.0125L321.4969 43.496876Q321.0594 41.60625 319.9344 40.66875Q318.825 39.715626 317.23126 39.715626Q314.84064 39.715626 313.34064 41.434376Q311.85626 43.1375 311.85626 46.840626Q311.85626 50.60625 313.29376 52.309376Q314.7469 54.0125 317.0594 54.0125Q318.91876 54.0125 320.16876 52.871876Q321.41876 51.73125 321.7625 49.35625ZM327.59064 34.075L327.59064 30.434376L330.7625 30.434376L330.7625 34.075L327.59064 34.075ZM327.59064 56.2L327.59064 37.528126L330.7625 37.528126L330.7625 56.2L327.59064 56.2ZM333.3094 50.621876L336.4344 50.1375Q336.7 52.0125 337.90314 53.0125Q339.10626 54.0125 341.27814 54.0125Q343.45 54.0125 344.4969 53.1375Q345.5594 52.246876 345.5594 51.04375Q345.5594 49.98125 344.6219 49.35625Q343.98126 48.934376 341.3875 48.29375Q337.91876 47.403126 336.575 46.7625Q335.23126 46.121876 334.52814 44.996876Q333.84064 43.85625 333.84064 42.48125Q333.84064 41.246876 334.40314 40.184376Q334.98126 39.10625 335.96564 38.403126Q336.7 37.871876 337.96564 37.496876Q339.2469 37.10625 340.71564 37.10625Q342.90314 37.10625 344.5594 37.746876Q346.23126 38.371876 347.0125 39.465626Q347.8094 40.54375 348.10626 42.340626L345.0125 42.7625Q344.8094 41.325 343.79376 40.528126Q342.77814 39.715626 340.9344 39.715626Q338.7625 39.715626 337.825 40.434376Q336.8875 41.153126 336.8875 42.121876Q336.8875 42.73125 337.27814 43.23125Q337.66876 43.73125 338.4969 44.075Q338.96564 44.246876 341.29376 44.871876Q344.65314 45.778126 345.96564 46.35625Q347.29376 46.91875 348.04376 48.0125Q348.8094 49.090626 348.8094 50.715626Q348.8094 52.29375 347.8875 53.7Q346.96564 55.090626 345.21564 55.85625Q343.48126 56.621876 341.29376 56.621876Q337.65314 56.621876 335.7469 55.10625Q333.84064 53.590626 333.3094 50.621876ZM352.59064 34.075L352.59064 30.434376L355.7625 30.434376L355.7625 34.075L352.59064 34.075ZM352.59064 56.2L352.59064 37.528126L355.7625 37.528126L355.7625 56.2L352.59064 56.2ZM358.40314 46.871876Q358.40314 41.684376 361.27814 39.184376Q363.6844 37.10625 367.15314 37.10625Q370.9969 37.10625 373.4344 39.6375Q375.8875 42.153126 375.8875 46.60625Q375.8875 50.2 374.8094 52.278126Q373.73126 54.340626 371.65314 55.48125Q369.59064 56.621876 367.15314 56.621876Q363.23126 56.621876 360.8094 54.10625Q358.40314 51.590626 358.40314 46.871876ZM361.65314 46.871876Q361.65314 50.45 363.21564 52.23125Q364.77814 54.0125 367.15314 54.0125Q369.5125 54.0125 371.075 52.23125Q372.6375 50.434376 372.6375 46.7625Q372.6375 43.29375 371.0594 41.5125Q369.48126 39.73125 367.15314 39.73125Q364.77814 39.73125 363.21564 41.5125Q361.65314 43.278126 361.65314 46.871876ZM379.575 56.2L379.575 37.528126L382.41876 37.528126L382.41876 40.184376Q384.48126 37.10625 388.35626 37.10625Q390.04376 37.10625 391.46564 37.715626Q392.8875 38.325 393.59064 39.309376Q394.29376 40.29375 394.575 41.6375Q394.7469 42.528126 394.7469 44.715626L394.7469 56.2L391.575 56.2L391.575 44.840626Q391.575 42.903126 391.2 41.95Q390.84064 40.996876 389.90314 40.434376Q388.96564 39.85625 387.7 39.85625Q385.66876 39.85625 384.2 41.1375Q382.73126 42.41875 382.73126 45.996876L382.73126 56.2L379.575 56.2ZM397.3094 50.621876L400.4344 50.1375Q400.7 52.0125 401.90314 53.0125Q403.10626 54.0125 405.27814 54.0125Q407.45 54.0125 408.4969 53.1375Q409.5594 52.246876 409.5594 51.04375Q409.5594 49.98125 408.6219 49.35625Q407.98126 48.934376 405.3875 48.29375Q401.91876 47.403126 400.575 46.7625Q399.23126 46.121876 398.52814 44.996876Q397.84064 43.85625 397.84064 42.48125Q397.84064 41.246876 398.40314 40.184376Q398.98126 39.10625 399.96564 38.403126Q400.7 37.871876 401.96564 37.496876Q403.2469 37.10625 404.71564 37.10625Q406.90314 37.10625 408.5594 37.746876Q410.23126 38.371876 411.0125 39.465626Q411.8094 40.54375 412.10626 42.340626L409.0125 42.7625Q408.8094 41.325 407.79376 40.528126Q406.77814 39.715626 404.9344 39.715626Q402.7625 39.715626 401.825 40.434376Q400.8875 41.153126 400.8875 42.121876Q400.8875 42.73125 401.27814 43.23125Q401.66876 43.73125 402.4969 44.075Q402.96564 44.246876 405.29376 44.871876Q408.65314 45.778126 409.96564 46.35625Q411.29376 46.91875 412.04376 48.0125Q412.8094 49.090626 412.8094 50.715626Q412.8094 52.29375 411.8875 53.7Q410.96564 55.090626 409.21564 55.85625Q407.48126 56.621876 405.29376 56.621876Q401.65314 56.621876 399.7469 55.10625Q397.84064 53.590626 397.3094 50.621876ZM426.575 63.35625L426.575 37.528126L429.45 37.528126L429.45 39.95Q430.48126 38.528126 431.7625 37.825Q433.04376 37.10625 434.8719 37.10625Q437.2625 37.10625 439.09064 38.340626Q440.91876 39.575 441.84064 41.825Q442.77814 44.059376 442.77814 46.73125Q442.77814 49.590626 441.7469 51.8875Q440.73126 54.184376 438.7625 55.403126Q436.8094 56.621876 434.6375 56.621876Q433.0594 56.621876 431.79376 55.95Q430.54376 55.278126 429.73126 54.2625L429.73126 63.35625L426.575 63.35625ZM429.4344 46.965626Q429.4344 50.575 430.8875 52.29375Q432.35626 54.0125 434.4344 54.0125Q436.54376 54.0125 438.04376 52.23125Q439.54376 50.45 439.54376 46.7Q439.54376 43.1375 438.075 41.371876Q436.60626 39.590626 434.575 39.590626Q432.54376 39.590626 430.98126 41.48125Q429.4344 43.371876 429.4344 46.965626ZM459.35626 50.184376L462.6219 50.590626Q461.85626 53.45 459.7625 55.04375Q457.66876 56.621876 454.41876 56.621876Q450.325 56.621876 447.91876 54.10625Q445.5125 51.575 445.5125 47.028126Q445.5125 42.309376 447.9344 39.715626Q450.3719 37.10625 454.23126 37.10625Q457.98126 37.10625 460.35626 39.653126Q462.73126 42.2 462.73126 46.825Q462.73126 47.10625 462.71564 47.66875L448.79376 47.66875Q448.96564 50.746876 450.52814 52.3875Q452.09064 54.0125 454.4344 54.0125Q456.16876 54.0125 457.40314 53.10625Q458.6375 52.184376 459.35626 50.184376ZM448.96564 45.075L459.3875 45.075Q459.1844 42.715626 458.2 41.54375Q456.6844 39.715626 454.27814 39.715626Q452.09064 39.715626 450.60626 41.16875Q449.1219 42.621876 448.96564 45.075ZM466.54376 56.2L466.54376 37.528126L469.3875 37.528126L469.3875 40.35625Q470.48126 38.371876 471.40314 37.746876Q472.325 37.10625 473.4344 37.10625Q475.02814 37.10625 476.6844 38.121876L475.59064 41.059376Q474.4344 40.371876 473.27814 40.371876Q472.23126 40.371876 471.40314 40.996876Q470.575 41.621876 470.23126 42.73125Q469.7 44.41875 469.7 46.41875L469.7 56.2L466.54376 56.2ZM507.3719 47.16875L510.77814 48.028126Q509.7 52.23125 506.91876 54.434376Q504.1375 56.6375 500.10626 56.6375Q495.9344 56.6375 493.325 54.95Q490.71564 53.246876 489.35626 50.028126Q487.9969 46.809376 487.9969 43.121876Q487.9969 39.090626 489.52814 36.10625Q491.075 33.10625 493.90314 31.559376Q496.7469 29.996876 500.15314 29.996876Q504.02814 29.996876 506.65314 31.965626Q509.29376 33.934376 510.34064 37.496876L506.98126 38.29375Q506.075 35.48125 504.3719 34.2Q502.66876 32.903126 500.09064 32.903126Q497.1219 32.903126 495.1219 34.340626Q493.1219 35.7625 492.3094 38.16875Q491.5125 40.559376 491.5125 43.10625Q491.5125 46.3875 492.46564 48.840626Q493.41876 51.29375 495.4344 52.5125Q497.46564 53.715626 499.825 53.715626Q502.6844 53.715626 504.66876 52.075Q506.66876 50.41875 507.3719 47.16875ZM513.40314 46.871876Q513.40314 41.684376 516.27814 39.184376Q518.6844 37.10625 522.15314 37.10625Q525.9969 37.10625 528.4344 39.6375Q530.8875 42.153126 530.8875 46.60625Q530.8875 50.2 529.8094 52.278126Q528.73126 54.340626 526.65314 55.48125Q524.59064 56.621876 522.15314 56.621876Q518.23126 56.621876 515.8094 54.10625Q513.40314 51.590626 513.40314 46.871876ZM516.65314 46.871876Q516.65314 50.45 518.21564 52.23125Q519.77814 54.0125 522.15314 54.0125Q524.5125 54.0125 526.075 52.23125Q527.6375 50.434376 527.6375 46.7625Q527.6375 43.29375 526.0594 41.5125Q524.48126 39.73125 522.15314 39.73125Q519.77814 39.73125 518.21564 41.5125Q516.65314 43.278126 516.65314 46.871876ZM534.575 56.2L534.575 37.528126L537.41876 37.528126L537.41876 40.184376Q539.48126 37.10625 543.35626 37.10625Q545.04376 37.10625 546.46564 37.715626Q547.8875 38.325 548.59064 39.309376Q549.29376 40.29375 549.575 41.6375Q549.7469 42.528126 549.7469 44.715626L549.7469 56.2L546.575 56.2L546.575 44.840626Q546.575 42.903126 546.2 41.95Q545.84064 40.996876 544.90314 40.434376Q543.96564 39.85625 542.7 39.85625Q540.66876 39.85625 539.2 41.1375Q537.73126 42.41875 537.73126 45.996876L537.73126 56.2L534.575 56.2ZM560.48126 53.371876L560.9344 56.16875Q559.60626 56.45 558.54376 56.45Q556.825 56.45 555.8719 55.903126Q554.9344 55.35625 554.54376 54.465626Q554.15314 53.575 554.15314 50.73125L554.15314 39.996876L551.84064 39.996876L551.84064 37.528126L554.15314 37.528126L554.15314 32.903126L557.29376 31.0125L557.29376 37.528126L560.48126 37.528126L560.48126 39.996876L557.29376 39.996876L557.29376 50.903126Q557.29376 52.2625 557.46564 52.653126Q557.6375 53.028126 558.0125 53.2625Q558.3875 53.496876 559.09064 53.496876Q559.6219 53.496876 560.48126 53.371876ZM563.54376 56.2L563.54376 37.528126L566.3875 37.528126L566.3875 40.35625Q567.48126 38.371876 568.40314 37.746876Q569.325 37.10625 570.4344 37.10625Q572.02814 37.10625 573.6844 38.121876L572.59064 41.059376Q571.4344 40.371876 570.27814 40.371876Q569.23126 40.371876 568.40314 40.996876Q567.575 41.621876 567.23126 42.73125Q566.7 44.41875 566.7 46.41875L566.7 56.2L563.54376 56.2ZM575.59064 34.075L575.59064 30.434376L578.7625 30.434376L578.7625 34.075L575.59064 34.075ZM575.59064 56.2L575.59064 37.528126L578.7625 37.528126L578.7625 56.2L575.59064 56.2ZM585.4969 56.2L582.5594 56.2L582.5594 30.434376L585.71564 30.434376L585.71564 39.621876Q587.73126 37.10625 590.84064 37.10625Q592.5594 37.10625 594.09064 37.809376Q595.6375 38.496876 596.6219 39.7625Q597.6219 41.0125 598.1844 42.79375Q598.7469 44.559376 598.7469 46.590626Q598.7469 51.3875 596.3719 54.0125Q593.9969 56.621876 590.6844 56.621876Q587.3719 56.621876 585.4969 53.85625L585.4969 56.2ZM585.45 46.73125Q585.45 50.075 586.3719 51.575Q587.8719 54.0125 590.41876 54.0125Q592.48126 54.0125 593.9969 52.215626Q595.5125 50.41875 595.5125 46.840626Q595.5125 43.184376 594.0594 41.45Q592.60626 39.715626 590.5594 39.715626Q588.48126 39.715626 586.96564 41.5125Q585.45 43.309376 585.45 46.73125ZM614.8094 56.2L614.8094 53.45Q612.6219 56.621876 608.8875 56.621876Q607.23126 56.621876 605.79376 55.996876Q604.3719 55.35625 603.66876 54.403126Q602.98126 53.434376 602.7 52.04375Q602.4969 51.121876 602.4969 49.090626L602.4969 37.528126L605.66876 37.528126L605.66876 47.8875Q605.66876 50.35625 605.85626 51.23125Q606.15314 52.465626 607.1219 53.184376Q608.09064 53.903126 609.5125 53.903126Q610.9344 53.903126 612.1844 53.16875Q613.4344 52.434376 613.95 51.184376Q614.48126 49.91875 614.48126 47.528126L614.48126 37.528126L617.6375 37.528126L617.6375 56.2L614.8094 56.2ZM628.48126 53.371876L628.9344 56.16875Q627.60626 56.45 626.54376 56.45Q624.825 56.45 623.8719 55.903126Q622.9344 55.35625 622.54376 54.465626Q622.15314 53.575 622.15314 50.73125L622.15314 39.996876L619.84064 39.996876L619.84064 37.528126L622.15314 37.528126L622.15314 32.903126L625.29376 31.0125L625.29376 37.528126L628.48126 37.528126L628.48126 39.996876L625.29376 39.996876L625.29376 50.903126Q625.29376 52.2625 625.46564 52.653126Q625.6375 53.028126 626.0125 53.2625Q626.3875 53.496876 627.09064 53.496876Q627.6219 53.496876 628.48126 53.371876ZM631.59064 34.075L631.59064 30.434376L634.7625 30.434376L634.7625 34.075L631.59064 34.075ZM631.59064 56.2L631.59064 37.528126L634.7625 37.528126L634.7625 56.2L631.59064 56.2ZM637.40314 46.871876Q637.40314 41.684376 640.27814 39.184376Q642.6844 37.10625 646.15314 37.10625Q649.9969 37.10625 652.4344 39.6375Q654.8875 42.153126 654.8875 46.60625Q654.8875 50.2 653.8094 52.278126Q652.73126 54.340626 650.65314 55.48125Q648.59064 56.621876 646.15314 56.621876Q642.23126 56.621876 639.8094 54.10625Q637.40314 51.590626 637.40314 46.871876ZM640.65314 46.871876Q640.65314 50.45 642.21564 52.23125Q643.77814 54.0125 646.15314 54.0125Q648.5125 54.0125 650.075 52.23125Q651.6375 50.434376 651.6375 46.7625Q651.6375 43.29375 650.0594 41.5125Q648.48126 39.73125 646.15314 39.73125Q643.77814 39.73125 642.21564 41.5125Q640.65314 43.278126 640.65314 46.871876ZM658.575 56.2L658.575 37.528126L661.41876 37.528126L661.41876 40.184376Q663.48126 37.10625 667.35626 37.10625Q669.04376 37.10625 670.46564 37.715626Q671.8875 38.325 672.59064 39.309376Q673.29376 40.29375 673.575 41.6375Q673.7469 42.528126 673.7469 44.715626L673.7469 56.2L670.575 56.2L670.575 44.840626Q670.575 42.903126 670.2 41.95Q669.84064 40.996876 668.90314 40.434376Q667.96564 39.85625 666.7 39.85625Q664.66876 39.85625 663.2 41.1375Q661.73126 42.41875 661.73126 45.996876L661.73126 56.2L658.575 56.2ZM694.52814 56.2L694.52814 33.465626L686.04376 33.465626L686.04376 30.434376L706.46564 30.434376L706.46564 33.465626L697.95 33.465626L697.95 56.2L694.52814 56.2ZM708.4344 63.3875L708.075 60.41875Q709.1219 60.7 709.8875 60.7Q710.95 60.7 711.575 60.340626Q712.21564 59.996876 712.6219 59.371876Q712.91876 58.8875 713.59064 57.0125Q713.66876 56.746876 713.8719 56.23125L706.77814 37.528126L710.1844 37.528126L714.075 48.340626Q714.825 50.403126 715.4344 52.66875Q715.98126 50.48125 716.73126 48.41875L720.71564 37.528126L723.8875 37.528126L716.77814 56.5125Q715.6375 59.590626 715.0125 60.746876Q714.16876 62.325 713.075 63.04375Q711.98126 63.778126 710.46564 63.778126Q709.5594 63.778126 708.4344 63.3875ZM725.575 63.35625L725.575 37.528126L728.45 37.528126L728.45 39.95Q729.48126 38.528126 730.7625 37.825Q732.04376 37.10625 733.8719 37.10625Q736.2625 37.10625 738.09064 38.340626Q739.91876 39.575 740.84064 41.825Q741.77814 44.059376 741.77814 46.73125Q741.77814 49.590626 740.7469 51.8875Q739.73126 54.184376 737.7625 55.403126Q735.8094 56.621876 733.6375 56.621876Q732.0594 56.621876 730.79376 55.95Q729.54376 55.278126 728.73126 54.2625L728.73126 63.35625L725.575 63.35625ZM728.4344 46.965626Q728.4344 50.575 729.8875 52.29375Q731.35626 54.0125 733.4344 54.0125Q735.54376 54.0125 737.04376 52.23125Q738.54376 50.45 738.54376 46.7Q738.54376 43.1375 737.075 41.371876Q735.60626 39.590626 733.575 39.590626Q731.54376 39.590626 729.98126 41.48125Q728.4344 43.371876 728.4344 46.965626ZM758.35626 50.184376L761.6219 50.590626Q760.85626 53.45 758.7625 55.04375Q756.66876 56.621876 753.41876 56.621876Q749.325 56.621876 746.91876 54.10625Q744.5125 51.575 744.5125 47.028126Q744.5125 42.309376 746.9344 39.715626Q749.3719 37.10625 753.23126 37.10625Q756.98126 37.10625 759.35626 39.653126Q761.73126 42.2 761.73126 46.825Q761.73126 47.10625 761.71564 47.66875L747.79376 47.66875Q747.96564 50.746876 749.52814 52.3875Q751.09064 54.0125 753.4344 54.0125Q755.16876 54.0125 756.40314 53.10625Q757.6375 52.184376 758.35626 50.184376ZM747.96564 45.075L758.3875 45.075Q758.1844 42.715626 757.2 41.54375Q755.6844 39.715626 753.27814 39.715626Q751.09064 39.715626 749.60626 41.16875Q748.1219 42.621876 747.96564 45.075ZM781.6219 63.778126Q778.9969 60.465626 777.1844 56.04375Q775.3875 51.60625 775.3875 46.871876Q775.3875 42.684376 776.73126 38.85625Q778.3094 34.403126 781.6219 29.996876L783.8875 29.996876Q781.7625 33.653126 781.075 35.215626Q779.9969 37.6375 779.3875 40.278126Q778.6375 43.559376 778.6375 46.8875Q778.6375 55.340626 783.8875 63.778126L781.6219 63.778126ZM787.59064 34.075L787.59064 30.434376L790.7625 30.434376L790.7625 34.075L787.59064 34.075ZM787.59064 56.2L787.59064 37.528126L790.7625 37.528126L790.7625 56.2L787.59064 56.2ZM794.575 56.2L794.575 37.528126L797.41876 37.528126L797.41876 40.184376Q799.48126 37.10625 803.35626 37.10625Q805.04376 37.10625 806.46564 37.715626Q807.8875 38.325 808.59064 39.309376Q809.29376 40.29375 809.575 41.6375Q809.7469 42.528126 809.7469 44.715626L809.7469 56.2L806.575 56.2L806.575 44.840626Q806.575 42.903126 806.2 41.95Q805.84064 40.996876 804.90314 40.434376Q803.96564 39.85625 802.7 39.85625Q800.66876 39.85625 799.2 41.1375Q797.73126 42.41875 797.73126 45.996876L797.73126 56.2L794.575 56.2ZM823.29376 36.621876Q823.29376 33.85625 824.6844 31.934376Q826.075 29.996876 828.7 29.996876Q831.1375 29.996876 832.71564 31.73125Q834.3094 33.45 834.3094 36.809376Q834.3094 40.075 832.7 41.840626Q831.09064 43.60625 828.7469 43.60625Q826.40314 43.60625 824.84064 41.871876Q823.29376 40.1375 823.29376 36.621876ZM828.79376 32.16875Q827.6219 32.16875 826.84064 33.2Q826.0594 34.215626 826.0594 36.934376Q826.0594 39.41875 826.84064 40.434376Q827.6375 41.434376 828.79376 41.434376Q829.9969 41.434376 830.77814 40.41875Q831.5594 39.3875 831.5594 36.684376Q831.5594 34.184376 830.7625 33.184376Q829.96564 32.16875 828.79376 32.16875ZM828.8094 57.153126L842.90314 29.996876L845.48126 29.996876L831.4344 57.153126L828.8094 57.153126ZM839.95 50.153126Q839.95 47.371876 841.34064 45.45Q842.73126 43.528126 845.3875 43.528126Q847.8094 43.528126 849.40314 45.2625Q850.9969 46.98125 850.9969 50.340626Q850.9969 53.621876 849.3875 55.3875Q847.77814 57.153126 845.40314 57.153126Q843.075 57.153126 841.5125 55.403126Q839.95 53.653126 839.95 50.153126ZM845.48126 45.7Q844.27814 45.7 843.4969 46.73125Q842.71564 47.746876 842.71564 50.465626Q842.71564 52.934376 843.4969 53.95Q844.29376 54.965626 845.46564 54.965626Q846.66876 54.965626 847.45 53.95Q848.23126 52.934376 848.23126 50.215626Q848.23126 47.73125 847.4344 46.715626Q846.65314 45.7 845.48126 45.7ZM857.65314 63.778126L855.3875 63.778126Q860.6375 55.340626 860.6375 46.8875Q860.6375 43.575 859.8875 40.325Q859.27814 37.684376 858.21564 35.2625Q857.52814 33.684376 855.3875 29.996876L857.65314 29.996876Q860.95 34.403126 862.52814 38.85625Q863.8875 42.684376 863.8875 46.871876Q863.8875 51.60625 862.0594 56.04375Q860.2469 60.465626 857.65314 63.778126Z" fill-rule="nonzero"/></svg>