<svg version="1.1" viewBox="0.0 0.0 848.0 525.0" fill="none" stroke="none" stroke-linecap="square" stroke-miterlimit="10" width="848" height="525" xmlns:xlink="http://www.w3.org/1999/xlink" xmlns="http://www.w3.org/2000/svg"><path fill="#ffffff" d="M0 0L848.0 0L848.0 525.0L0 525.0L0 0Z" fill-rule="nonzero"/><path fill="#4285f4" d="M424.0 84.75C479.1652 84.75 532.0484 106.769615 570.9115 145.92131L424.0 291.75Z" fill-rule="nonzero"/><path fill="#46bdc6" d="M333.26736 105.69466C361.52835 91.912766 392.55762 84.75 424.0 84.75L424.0 291.75Z" fill-rule="nonzero"/><path fill="#ff6d01" d="M254.81047 172.486C274.91513 143.96524 301.9035 120.989716 333.26736 105.69466L424.0 291.75Z" fill-rule="nonzero"/><path fill="#34a853" d="M217.86101 272.88965C221.16643 236.76216 233.90851 202.13779 254.81047 172.486L424.0 291.75Z" fill-rule="nonzero"/><path fill="#fbbc04" d="M388.44586 495.67377C282.24915 477.15836 208.03915 380.24 217.86101 272.88965L424.0 291.75Z" fill-rule="nonzero"/><path fill="#ea4335" d="M570.9115 145.92131C634.40656 209.8878 649.2144 307.58664 607.52606 387.49542C565.8377 467.4042 477.236 511.15433 388.44586 495.67377L424.0 291.75Z" fill-rule="nonzero"/><path fill="#000000" d="M479.5533 139.62804Q478.45956 139.22179 477.9283 138.48741Q477.4127 137.73741 477.4127 136.70616Q477.4127 135.14366 478.5377 134.08116Q479.6627 133.01866 481.52206 133.01866Q483.39706 133.01866 484.5377 134.11241Q485.6783 135.19054 485.6783 136.75304Q485.6783 137.75304 485.14706 138.48741Q484.63144 139.22179 483.56894 139.62804Q484.89706 140.06554 485.58456 141.01866Q486.27206 141.97179 486.27206 143.29991Q486.27206 145.14366 484.95956 146.39366Q483.6627 147.64366 481.5533 147.64366Q479.4283 147.64366 478.13144 146.39366Q476.83456 145.12804 476.83456 143.25304Q476.83456 141.86241 477.5377 140.92491Q478.25644 139.97179 479.5533 139.62804ZM479.20956 136.64366Q479.20956 137.65929 479.8658 138.31554Q480.52206 138.95616 481.5533 138.95616Q482.56894 138.95616 483.2252 138.31554Q483.88144 137.67491 483.88144 136.75304Q483.88144 135.78429 483.20956 135.12804Q482.5377 134.45616 481.5377 134.45616Q480.5377 134.45616 479.8658 135.11241Q479.20956 135.75304 479.20956 136.64366ZM478.64706 143.26866Q478.64706 144.01866 478.9908 144.72179Q479.3502 145.42491 480.0533 145.81554Q480.75644 146.19054 481.56894 146.19054Q482.83456 146.19054 483.64706 145.37804Q484.4752 144.56554 484.4752 143.31554Q484.4752 142.04991 483.63144 141.22179Q482.7877 140.39366 481.50644 140.39366Q480.27206 140.39366 479.45956 141.22179Q478.64706 142.03429 478.64706 143.26866ZM487.8502 140.33116Q487.8502 137.79991 488.3658 136.25304Q488.89706 134.69054 489.9283 133.86241Q490.95956 133.01866 492.52206 133.01866Q493.6783 133.01866 494.5377 133.48741Q495.4127 133.94054 495.9752 134.81554Q496.5377 135.69054 496.8658 136.95616Q497.19394 138.20616 497.19394 140.33116Q497.19394 142.84679 496.6627 144.39366Q496.14706 145.94054 495.1158 146.79991Q494.1002 147.64366 492.52206 147.64366Q490.44394 147.64366 489.27206 146.15929Q487.8502 144.36241 487.8502 140.33116ZM489.6627 140.33116Q489.6627 143.86241 490.4752 145.03429Q491.3033 146.19054 492.52206 146.19054Q493.7252 146.19054 494.5533 145.01866Q495.38144 143.84679 495.38144 140.33116Q495.38144 136.79991 494.5533 135.64366Q493.7252 134.47179 492.50644 134.47179Q491.2877 134.47179 490.56894 135.50304Q489.6627 136.79991 489.6627 140.33116Z" fill-rule="nonzero"/><path fill="#000000" d="M558.13965 370.40152L558.13965 372.08902L548.6865 372.08902Q548.6709 371.4484 548.88965 370.87027Q549.249 369.90152 550.0459 368.96402Q550.8428 368.02652 552.3428 366.79214Q554.6865 364.8859 555.499 363.77652Q556.32715 362.65152 556.32715 361.65152Q556.32715 360.60464 555.57715 359.8859Q554.82715 359.16714 553.624 359.16714Q552.3584 359.16714 551.5928 359.93277Q550.82715 360.6984 550.82715 362.04214L549.01465 361.85464Q549.20215 359.83902 550.4053 358.77652Q551.624 357.71402 553.6709 357.71402Q555.7178 357.71402 556.9209 358.85464Q558.124 359.99527 558.124 361.68277Q558.124 362.54214 557.76465 363.3859Q557.4209 364.21402 556.6084 365.1359Q555.7959 366.04214 553.9053 367.65152Q552.3115 368.97964 551.8584 369.4484Q551.4209 369.91714 551.124 370.40152L558.13965 370.40152ZM559.9053 368.33902L561.749 368.18277Q561.95215 369.52652 562.70215 370.21402Q563.45215 370.8859 564.51465 370.8859Q565.7803 370.8859 566.6553 369.93277Q567.5303 368.97964 567.5303 367.3859Q567.5303 365.8859 566.6865 365.02652Q565.8428 364.15152 564.4834 364.15152Q563.624 364.15152 562.9365 364.54214Q562.26465 364.91714 561.874 365.54214L560.2178 365.3234L561.6084 357.96402L568.7334 357.96402L568.7334 359.65152L563.01465 359.65152L562.249 363.49527Q563.5303 362.58902 564.95215 362.58902Q566.82715 362.58902 568.1084 363.90152Q569.4053 365.1984 569.4053 367.22964Q569.4053 369.18277 568.26465 370.58902Q566.88965 372.33902 564.51465 372.33902Q562.5615 372.33902 561.3115 371.24527Q560.07715 370.15152 559.9053 368.33902ZM580.0303 361.27652L578.2803 361.41714Q578.0459 360.3859 577.624 359.91714Q576.9053 359.15152 575.8584 359.15152Q575.01465 359.15152 574.38965 359.62027Q573.5615 360.22964 573.07715 361.40152Q572.5928 362.55777 572.57715 364.6984Q573.2178 363.74527 574.124 363.27652Q575.0459 362.80777 576.0615 362.80777Q577.8115 362.80777 579.0459 364.10464Q580.2803 365.3859 580.2803 367.43277Q580.2803 368.79214 579.70215 369.9484Q579.124 371.10464 578.1084 371.72964Q577.0928 372.33902 575.7959 372.33902Q573.6084 372.33902 572.2178 370.72964Q570.82715 369.10464 570.82715 365.3859Q570.82715 361.24527 572.3584 359.35464Q573.70215 357.71402 575.9678 357.71402Q577.6553 357.71402 578.7334 358.66714Q579.8115 359.60464 580.0303 361.27652ZM572.8584 367.4484Q572.8584 368.35464 573.2334 369.18277Q573.624 370.0109 574.3115 370.4484Q575.01465 370.8859 575.76465 370.8859Q576.88965 370.8859 577.6865 369.99527Q578.4834 369.08902 578.4834 367.54214Q578.4834 366.05777 577.6865 365.21402Q576.9053 364.35464 575.70215 364.35464Q574.51465 364.35464 573.6865 365.21402Q572.8584 366.05777 572.8584 367.4484Z" fill-rule="nonzero"/><path fill="#000000" d="M289.8562 394.5362L288.09058 394.5362L288.09058 383.33307Q287.46558 383.94244 286.43433 384.55182Q285.40308 385.14557 284.57495 385.45807L284.57495 383.75494Q286.05933 383.06744 287.15308 382.08307Q288.26245 381.08307 288.71558 380.1612L289.8562 380.1612L289.8562 394.5362ZM294.2312 390.7862L296.07495 390.62994Q296.27808 391.9737 297.02808 392.6612Q297.77808 393.33307 298.84058 393.33307Q300.1062 393.33307 300.9812 392.37994Q301.8562 391.42682 301.8562 389.83307Q301.8562 388.33307 301.01245 387.4737Q300.1687 386.5987 298.80933 386.5987Q297.94995 386.5987 297.26245 386.98932Q296.59058 387.36432 296.19995 387.98932L294.5437 387.77057L295.93433 380.4112L303.05933 380.4112L303.05933 382.0987L297.34058 382.0987L296.57495 385.94244Q297.8562 385.0362 299.27808 385.0362Q301.15308 385.0362 302.43433 386.3487Q303.7312 387.64557 303.7312 389.67682Q303.7312 391.62994 302.59058 393.0362Q301.21558 394.7862 298.84058 394.7862Q296.88745 394.7862 295.63745 393.69244Q294.40308 392.5987 294.2312 390.7862ZM311.8562 394.5362L310.09058 394.5362L310.09058 383.33307Q309.46558 383.94244 308.43433 384.55182Q307.40308 385.14557 306.57495 385.45807L306.57495 383.75494Q308.05933 383.06744 309.15308 382.08307Q310.26245 381.08307 310.71558 380.1612L311.8562 380.1612L311.8562 394.5362Z" fill-rule="nonzero"/><path fill="#000000" d="M258.96793 238.01001L260.81168 237.85376Q261.0148 239.19751 261.7648 239.88501Q262.5148 240.55688 263.5773 240.55688Q264.84293 240.55688 265.71793 239.60376Q266.59293 238.65063 266.59293 237.05688Q266.59293 235.55688 265.74918 234.69751Q264.90543 233.82251 263.54605 233.82251Q262.68668 233.82251 261.99918 234.21313Q261.3273 234.58813 260.93668 235.21313L259.28043 234.99438L260.67105 227.63501L267.79605 227.63501L267.79605 229.32251L262.0773 229.32251L261.31168 233.16626Q262.59293 232.26001 264.0148 232.26001Q265.8898 232.26001 267.17105 233.57251Q268.46793 234.86938 268.46793 236.90063Q268.46793 238.85376 267.3273 240.26001Q265.9523 242.01001 263.5773 242.01001Q261.62418 242.01001 260.37418 240.91626Q259.1398 239.82251 258.96793 238.01001ZM269.98355 237.97876L271.73355 237.74438Q272.04605 239.24438 272.7648 239.90063Q273.49918 240.55688 274.54605 240.55688Q275.78043 240.55688 276.62418 239.69751Q277.48355 238.83813 277.48355 237.57251Q277.48355 236.35376 276.68668 235.57251Q275.90543 234.79126 274.68668 234.79126Q274.18668 234.79126 273.4523 234.97876L273.6398 233.43188Q273.81168 233.46313 273.92105 233.46313Q275.04605 233.46313 275.93668 232.88501Q276.84293 232.29126 276.84293 231.07251Q276.84293 230.10376 276.18668 229.46313Q275.53043 228.82251 274.49918 228.82251Q273.48355 228.82251 272.79605 229.47876Q272.10855 230.11938 271.92105 231.40063L270.15543 231.08813Q270.48355 229.32251 271.62418 228.35376Q272.7648 227.38501 274.46793 227.38501Q275.6398 227.38501 276.62418 227.88501Q277.60855 228.38501 278.12418 229.26001Q278.65543 230.13501 278.65543 231.10376Q278.65543 232.02563 278.15543 232.79126Q277.65543 233.55688 276.68668 234.01001Q277.9523 234.29126 278.65543 235.22876Q279.35855 236.15063 279.35855 237.52563Q279.35855 239.40063 277.98355 240.71313Q276.62418 242.01001 274.53043 242.01001Q272.6398 242.01001 271.3898 240.88501Q270.15543 239.76001 269.98355 237.97876Z" fill-rule="nonzero"/><path fill="#000000" d="M309.11914 172.00288L310.9629 171.84663Q311.16602 173.19038 311.91602 173.87788Q312.66602 174.54976 313.72852 174.54976Q314.99414 174.54976 315.86914 173.59663Q316.74414 172.64351 316.74414 171.04976Q316.74414 169.54976 315.9004 168.69038Q315.05664 167.81538 313.69727 167.81538Q312.8379 167.81538 312.1504 168.20601Q311.47852 168.58101 311.0879 169.20601L309.43164 168.98726L310.82227 161.62788L317.94727 161.62788L317.94727 163.31538L312.22852 163.31538L311.4629 167.15913Q312.74414 166.25288 314.16602 166.25288Q316.04102 166.25288 317.32227 167.56538Q318.61914 168.86226 318.61914 170.89351Q318.61914 172.84663 317.47852 174.25288Q316.10352 176.00288 313.72852 176.00288Q311.7754 176.00288 310.5254 174.90913Q309.29102 173.81538 309.11914 172.00288ZM326.74414 175.75288L324.97852 175.75288L324.97852 164.54976Q324.35352 165.15913 323.32227 165.76851Q322.29102 166.36226 321.4629 166.67476L321.4629 164.97163Q322.94727 164.28413 324.04102 163.29976Q325.1504 162.29976 325.60352 161.37788L326.74414 161.37788L326.74414 175.75288Z" fill-rule="nonzero"/><path fill="#000000" d="M381.98157 136.35481L381.98157 132.93294L375.76282 132.93294L375.76282 131.30794L382.29407 122.04231L383.73157 122.04231L383.73157 131.30794L385.66907 131.30794L385.66907 132.93294L383.73157 132.93294L383.73157 136.35481L381.98157 136.35481ZM381.98157 131.30794L381.98157 124.85481L377.4972 131.30794L381.98157 131.30794ZM396.46594 125.54231L394.71594 125.68294Q394.48157 124.65169 394.0597 124.18294Q393.34094 123.41731 392.29407 123.41731Q391.45032 123.41731 390.82532 123.88606Q389.9972 124.49544 389.51282 125.66731Q389.02844 126.82356 389.01282 128.96419Q389.65344 128.01106 390.5597 127.54231Q391.48157 127.07356 392.4972 127.07356Q394.2472 127.07356 395.48157 128.37044Q396.71594 129.65169 396.71594 131.69856Q396.71594 133.05794 396.13782 134.21419Q395.5597 135.37044 394.54407 135.99544Q393.52844 136.60481 392.23157 136.60481Q390.04407 136.60481 388.65344 134.99544Q387.26282 133.37044 387.26282 129.65169Q387.26282 125.51106 388.79407 123.62044Q390.13782 121.97981 392.40344 121.97981Q394.09094 121.97981 395.16907 122.93294Q396.2472 123.87044 396.46594 125.54231ZM389.29407 131.71419Q389.29407 132.62044 389.66907 133.44856Q390.0597 134.27669 390.7472 134.71419Q391.45032 135.15169 392.20032 135.15169Q393.32532 135.15169 394.1222 134.26106Q394.91907 133.35481 394.91907 131.80794Q394.91907 130.32356 394.1222 129.47981Q393.34094 128.62044 392.13782 128.62044Q390.95032 128.62044 390.1222 129.47981Q389.29407 130.32356 389.29407 131.71419Z" fill-rule="nonzero"/><path fill="#1a1a1a" d="M30.796875 103.75L33.4375 91.0625L28.734375 91.0625L29.078125 89.4375L40.359375 89.4375L40.015625 91.0625L35.359375 91.0625L32.703125 103.75L30.796875 103.75ZM38.921875 103.75L41.90625 89.4375L43.671875 89.4375L42.53125 94.9375Q43.515625 93.96875 44.359375 93.5625Q45.21875 93.140625 46.109375 93.140625Q47.40625 93.140625 48.109375 93.828125Q48.828125 94.5 48.828125 95.609375Q48.828125 96.15625 48.515625 97.625L47.234375 103.75L45.46875 103.75L46.78125 97.46875Q47.0625 96.109375 47.0625 95.75Q47.0625 95.25 46.703125 94.921875Q46.359375 94.59375 45.703125 94.59375Q44.75 94.59375 43.875 95.109375Q43.0 95.609375 42.5 96.484375Q42.015625 97.359375 41.609375 99.296875L40.6875 103.75L38.921875 103.75ZM57.53125 100.21875L59.25 100.40625Q58.875 101.671875 57.546875 102.828125Q56.21875 103.984375 54.375 103.984375Q53.21875 103.984375 52.25 103.453125Q51.296875 102.921875 50.78125 101.90625Q50.28125 100.890625 50.28125 99.59375Q50.28125 97.890625 51.0625 96.296875Q51.859375 94.703125 53.109375 93.921875Q54.359375 93.140625 55.8125 93.140625Q57.671875 93.140625 58.78125 94.296875Q59.890625 95.453125 59.890625 97.4375Q59.890625 98.203125 59.75 99.0L52.109375 99.0Q52.078125 99.3125 52.078125 99.546875Q52.078125 101.0 52.734375 101.765625Q53.40625 102.53125 54.375 102.53125Q55.28125 102.53125 56.15625 101.9375Q57.046875 101.34375 57.53125 100.21875ZM52.390625 97.65625L58.21875 97.65625Q58.21875 97.375 58.21875 97.265625Q58.21875 95.9375 57.546875 95.234375Q56.890625 94.515625 55.859375 94.515625Q54.71875 94.515625 53.78125 95.296875Q52.859375 96.078125 52.390625 97.65625ZM61.234375 99.8125Q61.234375 96.78125 63.015625 94.78125Q64.484375 93.140625 66.875 93.140625Q68.75 93.140625 69.890625 94.3125Q71.046875 95.484375 71.046875 97.484375Q71.046875 99.265625 70.328125 100.8125Q69.609375 102.34375 68.265625 103.171875Q66.9375 103.984375 65.46875 103.984375Q64.25 103.984375 63.25 103.46875Q62.265625 102.953125 61.75 102.0Q61.234375 101.046875 61.234375 99.8125ZM63.0 99.640625Q63.0 101.109375 63.703125 101.859375Q64.40625 102.609375 65.484375 102.609375Q66.046875 102.609375 66.609375 102.390625Q67.171875 102.15625 67.640625 101.6875Q68.125 101.21875 68.453125 100.625Q68.796875 100.015625 69.0 99.328125Q69.296875 98.359375 69.296875 97.46875Q69.296875 96.0625 68.59375 95.296875Q67.890625 94.515625 66.8125 94.515625Q65.984375 94.515625 65.296875 94.90625Q64.609375 95.296875 64.0625 96.0625Q63.515625 96.828125 63.25 97.84375Q63.0 98.84375 63.0 99.640625ZM71.921875 103.75L74.078125 93.375L75.640625 93.375L75.203125 95.5Q76.0 94.296875 76.765625 93.71875Q77.546875 93.140625 78.34375 93.140625Q78.875 93.140625 79.640625 93.53125L78.921875 95.171875Q78.453125 94.828125 77.90625 94.828125Q76.984375 94.828125 76.0 95.875Q75.03125 96.90625 74.46875 99.59375L73.59375 103.75L71.921875 103.75ZM78.25 107.75L78.359375 106.09375Q78.90625 106.25 79.421875 106.25Q79.953125 106.25 80.296875 106.0Q80.71875 105.6875 81.234375 104.796875L81.796875 103.78125L80.0625 93.375L81.8125 93.375L82.59375 98.625Q82.828125 100.171875 82.984375 101.734375L87.625 93.375L89.46875 93.375L82.859375 105.125Q81.90625 106.84375 81.15625 107.390625Q80.421875 107.953125 79.453125 107.953125Q78.84375 107.953125 78.25 107.75Z" fill-rule="nonzero"/><path fill="#9e9e9e" d="M29.15625 130.75Q29.390625 129.29688 30.140625 127.265625Q31.0625 124.828125 32.53125 122.40625Q34.0 119.984375 35.8125 118.25L28.671875 118.25L29.015625 116.625L38.15625 116.625L37.828125 118.25Q35.5 120.296875 33.765625 123.515625Q31.734375 127.234375 31.0 130.75L29.15625 130.75ZM38.40625 130.75L38.828125 128.75L40.828125 128.75L40.390625 130.75L38.40625 130.75ZM44.421875 130.75Q44.703125 129.46875 45.171875 128.60938Q45.65625 127.734375 46.453125 126.96875Q47.265625 126.1875 49.546875 124.359375Q50.9375 123.265625 51.4375 122.734375Q52.171875 121.96875 52.515625 121.234375Q52.734375 120.734375 52.734375 120.15625Q52.734375 119.171875 52.03125 118.484375Q51.34375 117.796875 50.328125 117.796875Q49.3125 117.796875 48.5625 118.5Q47.8125 119.1875 47.484375 120.734375L45.765625 120.46875Q46.015625 118.578125 47.234375 117.484375Q48.46875 116.375 50.296875 116.375Q51.515625 116.375 52.5 116.890625Q53.5 117.390625 53.984375 118.3125Q54.484375 119.21875 54.484375 120.203125Q54.484375 121.625 53.46875 122.953125Q52.84375 123.765625 49.796875 126.171875Q48.5 127.21875 47.859375 127.890625Q47.21875 128.54688 46.890625 129.125L53.296875 129.125L52.953125 130.75L44.421875 130.75ZM57.046875 131.28125L68.875 116.1875L70.46875 116.1875L58.6875 131.28125L57.046875 131.28125ZM56.1875 120.84375Q56.1875 120.4375 56.375 119.609375Q56.5625 118.78125 56.90625 118.125Q57.265625 117.46875 57.6875 117.078125Q58.125 116.6875 58.625 116.5Q59.140625 116.3125 59.78125 116.3125Q61.15625 116.3125 61.859375 117.015625Q62.578125 117.71875 62.578125 119.0625Q62.578125 120.1875 62.09375 121.4375Q61.625 122.6875 60.796875 123.265625Q59.96875 123.84375 58.828125 123.84375Q57.546875 123.84375 56.859375 123.125Q56.1875 122.390625 56.1875 120.84375ZM57.703125 121.15625Q57.703125 121.984375 58.0 122.328125Q58.3125 122.65625 58.828125 122.65625Q59.453125 122.65625 59.953125 122.1875Q60.453125 121.71875 60.734375 120.671875Q61.03125 119.609375 61.03125 118.859375Q61.03125 118.203125 60.6875 117.859375Q60.359375 117.5 59.828125 117.5Q59.265625 117.5 58.78125 117.953125Q58.296875 118.40625 58.0 119.390625Q57.703125 120.375 57.703125 121.15625ZM64.921875 128.26562Q64.921875 127.875 65.09375 127.046875Q65.28125 126.203125 65.625 125.5625Q65.984375 124.90625 66.40625 124.515625Q66.84375 124.125 67.34375 123.9375Q67.859375 123.75 68.515625 123.75Q69.890625 123.75 70.59375 124.453125Q71.296875 125.140625 71.296875 126.484375Q71.296875 127.609375 70.828125 128.85938Q70.359375 130.10938 69.53125 130.70312Q68.703125 131.28125 67.546875 131.28125Q66.265625 131.28125 65.59375 130.5625Q64.921875 129.82812 64.921875 128.26562ZM66.421875 128.59375Q66.421875 129.40625 66.734375 129.76562Q67.046875 130.10938 67.5625 130.10938Q68.171875 130.10938 68.671875 129.64062Q69.171875 129.15625 69.46875 128.10938Q69.765625 127.0625 69.765625 126.296875Q69.765625 125.625 69.421875 125.28125Q69.09375 124.921875 68.5625 124.921875Q67.984375 124.921875 67.5 125.390625Q67.03125 125.84375 66.71875 126.828125Q66.421875 127.8125 66.421875 128.59375Z" fill-rule="nonzero"/><path stroke="#757575" stroke-width="1.0" stroke-linecap="butt" d="M26.25 110.25L211.0 110.25L379.76862 100.138916" fill-rule="nonzero"/><path fill="#9e9e9e" d="M381.76862 100.138916C381.76862 99.03435 380.8732 98.138916 379.76862 98.138916C378.66406 98.138916 377.76862 99.03435 377.76862 100.138916C377.76862 101.243484 378.66406 102.138916 379.76862 102.138916C380.8732 102.138916 381.76862 101.243484 381.76862 100.138916" fill-rule="nonzero"/><path fill="#1a1a1a" d="M27.140625 154.75L30.125 140.4375L34.4375 140.4375Q36.0 140.4375 36.8125 140.65625Q37.984375 140.95312 38.8125 141.73438Q39.65625 142.51562 40.0625 143.6875Q40.484375 144.84375 40.484375 146.28125Q40.484375 148.01562 39.953125 149.4375Q39.4375 150.85938 38.59375 151.9375Q37.75 153.01562 36.828125 153.625Q35.90625 154.23438 34.65625 154.53125Q33.6875 154.75 32.296875 154.75L27.140625 154.75ZM29.390625 153.125L31.65625 153.125Q33.1875 153.125 34.390625 152.84375Q35.125 152.67188 35.65625 152.32812Q36.34375 151.89062 36.921875 151.17188Q37.65625 150.20312 38.09375 148.98438Q38.546875 147.75 38.546875 146.1875Q38.546875 144.45312 37.9375 143.53125Q37.328125 142.59375 36.390625 142.28125Q35.703125 142.0625 34.234375 142.0625L31.703125 142.0625L29.390625 153.125ZM48.53125 151.21875L50.25 151.40625Q49.875 152.67188 48.546875 153.82812Q47.21875 154.98438 45.375 154.98438Q44.21875 154.98438 43.25 154.45312Q42.296875 153.92188 41.78125 152.90625Q41.28125 151.89062 41.28125 150.59375Q41.28125 148.89062 42.0625 147.29688Q42.859375 145.70312 44.109375 144.92188Q45.359375 144.14062 46.8125 144.14062Q48.671875 144.14062 49.78125 145.29688Q50.890625 146.45312 50.890625 148.4375Q50.890625 149.20312 50.75 150.0L43.109375 150.0Q43.078125 150.3125 43.078125 150.54688Q43.078125 152.0 43.734375 152.76562Q44.40625 153.53125 45.375 153.53125Q46.28125 153.53125 47.15625 152.9375Q48.046875 152.34375 48.53125 151.21875ZM43.390625 148.65625L49.21875 148.65625Q49.21875 148.375 49.21875 148.26562Q49.21875 146.9375 48.546875 146.23438Q47.890625 145.51562 46.859375 145.51562Q45.71875 145.51562 44.78125 146.29688Q43.859375 147.07812 43.390625 148.65625ZM52.078125 151.20312L53.84375 151.09375Q53.84375 151.85938 54.078125 152.40625Q54.3125 152.9375 54.9375 153.28125Q55.578125 153.60938 56.421875 153.60938Q57.59375 153.60938 58.171875 153.14062Q58.765625 152.67188 58.765625 152.04688Q58.765625 151.57812 58.40625 151.17188Q58.046875 150.76562 56.640625 150.17188Q55.25 149.5625 54.859375 149.3125Q54.203125 148.92188 53.859375 148.375Q53.53125 147.82812 53.53125 147.125Q53.53125 145.90625 54.5 145.03125Q55.484375 144.14062 57.25 144.14062Q59.203125 144.14062 60.21875 145.04688Q61.234375 145.95312 61.28125 147.42188L59.546875 147.54688Q59.515625 146.60938 58.890625 146.0625Q58.265625 145.51562 57.125 145.51562Q56.203125 145.51562 55.6875 145.9375Q55.1875 146.34375 55.1875 146.84375Q55.1875 147.32812 55.625 147.70312Q55.921875 147.95312 57.140625 148.48438Q59.171875 149.35938 59.703125 149.85938Q60.53125 150.67188 60.53125 151.84375Q60.53125 152.60938 60.0625 153.35938Q59.59375 154.09375 58.609375 154.54688Q57.640625 154.98438 56.328125 154.98438Q54.53125 154.98438 53.265625 154.09375Q52.015625 153.20312 52.078125 151.20312ZM64.421875 142.4375L64.84375 140.4375L66.609375 140.4375L66.1875 142.4375L64.421875 142.4375ZM61.84375 154.75L64.015625 144.375L65.78125 144.375L63.609375 154.75L61.84375 154.75ZM66.8125 155.6875L68.609375 155.85938Q68.578125 156.45312 68.75 156.75Q68.921875 157.0625 69.28125 157.23438Q69.75 157.45312 70.515625 157.45312Q72.125 157.45312 72.828125 156.60938Q73.28125 156.0625 73.671875 154.1875L73.84375 153.35938Q72.46875 154.75 70.921875 154.75Q69.34375 154.75 68.28125 153.59375Q67.234375 152.4375 67.234375 150.3125Q67.234375 148.5625 68.0625 147.10938Q68.890625 145.64062 70.046875 144.89062Q71.203125 144.14062 72.421875 144.14062Q74.46875 144.14062 75.5625 146.07812L75.921875 144.375L77.546875 144.375L75.453125 154.39062Q75.109375 156.04688 74.546875 156.96875Q74.0 157.89062 73.0 158.39062Q72.015625 158.90625 70.71875 158.90625Q69.46875 158.90625 68.5625 158.57812Q67.65625 158.25 67.203125 157.625Q66.765625 157.01562 66.765625 156.21875Q66.765625 155.96875 66.8125 155.6875ZM69.03125 150.15625Q69.03125 151.21875 69.234375 151.76562Q69.515625 152.51562 70.0625 152.90625Q70.609375 153.29688 71.265625 153.29688Q72.140625 153.29688 73.0 152.6875Q73.859375 152.07812 74.390625 150.8125Q74.921875 149.53125 74.921875 148.35938Q74.921875 147.07812 74.203125 146.32812Q73.5 145.5625 72.46875 145.5625Q71.8125 145.5625 71.203125 145.92188Q70.609375 146.26562 70.078125 146.96875Q69.5625 147.67188 69.296875 148.67188Q69.03125 149.65625 69.03125 150.15625ZM77.921875 154.75L80.078125 144.375L81.6875 144.375L81.296875 146.1875Q82.34375 145.125 83.25 144.64062Q84.171875 144.14062 85.109375 144.14062Q86.375 144.14062 87.09375 144.82812Q87.8125 145.51562 87.8125 146.65625Q87.8125 147.23438 87.546875 148.46875L86.234375 154.75L84.46875 154.75L85.84375 148.17188Q86.046875 147.21875 86.046875 146.76562Q86.046875 146.25 85.6875 145.92188Q85.34375 145.59375 84.65625 145.59375Q83.3125 145.59375 82.25 146.57812Q81.1875 147.54688 80.6875 149.92188L79.6875 154.75L77.921875 154.75Z" fill-rule="nonzero"/><path fill="#9e9e9e" d="M30.765625 173.875Q29.96875 173.4375 29.5625 172.75Q29.15625 172.0625 29.15625 171.26562Q29.15625 169.96875 30.09375 168.875Q31.34375 167.375 33.484375 167.375Q35.375 167.375 36.453125 168.39062Q37.546875 169.39062 37.546875 170.85938Q37.546875 171.90625 36.953125 172.75Q36.375 173.57812 35.125 174.07812Q35.984375 174.625 36.34375 175.21875Q36.828125 176.01562 36.828125 177.07812Q36.828125 179.0 35.46875 180.5Q34.109375 182.0 31.84375 182.0Q30.03125 182.0 28.890625 180.89062Q27.75 179.78125 27.75 178.10938Q27.75 176.53125 28.546875 175.40625Q29.359375 174.28125 30.765625 173.875ZM30.90625 171.34375Q30.90625 172.26562 31.484375 172.82812Q32.078125 173.39062 33.109375 173.39062Q34.328125 173.39062 35.078125 172.65625Q35.84375 171.92188 35.84375 170.84375Q35.84375 169.9375 35.25 169.375Q34.65625 168.79688 33.625 168.79688Q32.84375 168.79688 32.1875 169.15625Q31.53125 169.51562 31.21875 170.14062Q30.90625 170.75 30.90625 171.34375ZM29.515625 178.25Q29.515625 178.84375 29.796875 179.39062Q30.09375 179.9375 30.671875 180.26562Q31.265625 180.59375 32.015625 180.59375Q33.453125 180.59375 34.34375 179.23438Q35.046875 178.1875 35.046875 176.96875Q35.046875 175.96875 34.390625 175.34375Q33.75 174.70312 32.703125 174.70312Q31.375 174.70312 30.4375 175.6875Q29.515625 176.67188 29.515625 178.25ZM38.40625 181.75L38.828125 179.75L40.828125 179.75L40.390625 181.75L38.40625 181.75ZM44.671875 177.04688Q44.671875 175.23438 45.203125 173.35938Q45.75 171.48438 46.40625 170.35938Q47.078125 169.23438 47.78125 168.60938Q48.5 167.96875 49.1875 167.67188Q49.875 167.375 50.71875 167.375Q52.359375 167.375 53.453125 168.59375Q54.5625 169.8125 54.5625 172.125Q54.5625 174.5 53.796875 176.8125Q52.90625 179.57812 51.296875 180.95312Q50.0625 182.0 48.5 182.0Q46.890625 182.0 45.78125 180.73438Q44.671875 179.46875 44.671875 177.04688ZM46.375 177.5Q46.375 178.8125 46.8125 179.5625Q47.40625 180.59375 48.578125 180.59375Q49.609375 180.59375 50.453125 179.65625Q51.65625 178.34375 52.265625 175.82812Q52.875 173.29688 52.875 171.70312Q52.875 170.15625 52.28125 169.48438Q51.703125 168.79688 50.734375 168.79688Q50.03125 168.79688 49.421875 169.15625Q48.8125 169.51562 48.25 170.39062Q47.453125 171.625 46.875 174.10938Q46.375 176.21875 46.375 177.5ZM57.046875 182.28125L68.875 167.1875L70.46875 167.1875L58.6875 182.28125L57.046875 182.28125ZM56.1875 171.84375Q56.1875 171.4375 56.375 170.60938Q56.5625 169.78125 56.90625 169.125Q57.265625 168.46875 57.6875 168.07812Q58.125 167.6875 58.625 167.5Q59.140625 167.3125 59.78125 167.3125Q61.15625 167.3125 61.859375 168.01562Q62.578125 168.71875 62.578125 170.0625Q62.578125 171.1875 62.09375 172.4375Q61.625 173.6875 60.796875 174.26562Q59.96875 174.84375 58.828125 174.84375Q57.546875 174.84375 56.859375 174.125Q56.1875 173.39062 56.1875 171.84375ZM57.703125 172.15625Q57.703125 172.98438 58.0 173.32812Q58.3125 173.65625 58.828125 173.65625Q59.453125 173.65625 59.953125 173.1875Q60.453125 172.71875 60.734375 171.67188Q61.03125 170.60938 61.03125 169.85938Q61.03125 169.20312 60.6875 168.85938Q60.359375 168.5 59.828125 168.5Q59.265625 168.5 58.78125 168.95312Q58.296875 169.40625 58.0 170.39062Q57.703125 171.375 57.703125 172.15625ZM64.921875 179.26562Q64.921875 178.875 65.09375 178.04688Q65.28125 177.20312 65.625 176.5625Q65.984375 175.90625 66.40625 175.51562Q66.84375 175.125 67.34375 174.9375Q67.859375 174.75 68.515625 174.75Q69.890625 174.75 70.59375 175.45312Q71.296875 176.14062 71.296875 177.48438Q71.296875 178.60938 70.828125 179.85938Q70.359375 181.10938 69.53125 181.70312Q68.703125 182.28125 67.546875 182.28125Q66.265625 182.28125 65.59375 181.5625Q64.921875 180.82812 64.921875 179.26562ZM66.421875 179.59375Q66.421875 180.40625 66.734375 180.76562Q67.046875 181.10938 67.5625 181.10938Q68.171875 181.10938 68.671875 180.64062Q69.171875 180.15625 69.46875 179.10938Q69.765625 178.0625 69.765625 177.29688Q69.765625 176.625 69.421875 176.28125Q69.09375 175.92188 68.5625 175.92188Q67.984375 175.92188 67.5 176.39062Q67.03125 176.84375 66.71875 177.82812Q66.421875 178.8125 66.421875 179.59375Z" fill-rule="nonzero"/><path stroke="#757575" stroke-width="1.0" stroke-linecap="butt" d="M26.25 161.25L211.0 161.25L296.52588 142.01166" fill-rule="nonzero"/><path fill="#9e9e9e" d="M298.52588 142.01166C298.52588 140.90709 297.63046 140.01166 296.52588 140.01166C295.42133 140.01166 294.52588 140.90709 294.52588 142.01166C294.52588 143.11623 295.42133 144.01166 296.52588 144.01166C297.63046 144.01166 298.52588 143.11623 298.52588 142.01166" fill-rule="nonzero"/><path fill="#1a1a1a" d="M27.65625 212.70897L29.53125 212.52147L29.515625 213.02147Q29.515625 213.8496 29.890625 214.55272Q30.28125 215.24022 31.15625 215.61522Q32.03125 215.99022 33.25 215.99022Q34.96875 215.99022 35.859375 215.24022Q36.765625 214.4746 36.765625 213.52147Q36.765625 212.83397 36.296875 212.2871Q35.796875 211.74022 33.625 210.80272Q31.9375 210.06834 31.3125 209.67772Q30.359375 209.0371 29.890625 208.30272Q29.4375 207.55272 29.4375 206.58397Q29.4375 205.49022 30.03125 204.5996Q30.640625 203.70897 31.8125 203.24022Q32.984375 202.77147 34.4375 202.77147Q36.1875 202.77147 37.390625 203.36522Q38.59375 203.94334 39.125 204.92772Q39.671875 205.89647 39.671875 206.7871Q39.671875 206.88084 39.671875 207.08397L37.828125 207.2246Q37.828125 206.61522 37.71875 206.27147Q37.515625 205.67772 37.109375 205.27147Q36.703125 204.86522 35.984375 204.61522Q35.265625 204.36522 34.375 204.36522Q32.8125 204.36522 31.9375 205.06834Q31.28125 205.5996 31.28125 206.49022Q31.28125 207.02147 31.546875 207.44334Q31.828125 207.8496 32.546875 208.25584Q33.046875 208.5371 34.953125 209.38084Q36.5 210.05272 37.078125 210.44334Q37.859375 210.95897 38.28125 211.70897Q38.703125 212.44334 38.703125 213.38084Q38.703125 214.5371 37.984375 215.52147Q37.28125 216.50584 36.03125 217.05272Q34.78125 217.58397 33.171875 217.58397Q30.75 217.58397 29.203125 216.52147Q27.671875 215.45897 27.65625 212.70897ZM39.25 221.33397L39.359375 219.67772Q39.90625 219.83397 40.421875 219.83397Q40.953125 219.83397 41.296875 219.58397Q41.71875 219.27147 42.234375 218.38084L42.796875 217.36522L41.0625 206.95897L42.8125 206.95897L43.59375 212.20897Q43.828125 213.75584 43.984375 215.31834L48.625 206.95897L50.46875 206.95897L43.859375 218.70897Q42.90625 220.42772 42.15625 220.9746Q41.421875 221.5371 40.453125 221.5371Q39.84375 221.5371 39.25 221.33397ZM50.078125 213.7871L51.84375 213.67772Q51.84375 214.44334 52.078125 214.99022Q52.3125 215.52147 52.9375 215.86522Q53.578125 216.19334 54.421875 216.19334Q55.59375 216.19334 56.171875 215.7246Q56.765625 215.25584 56.765625 214.63084Q56.765625 214.1621 56.40625 213.75584Q56.046875 213.3496 54.640625 212.75584Q53.25 212.14647 52.859375 211.89647Q52.203125 211.50584 51.859375 210.95897Q51.53125 210.4121 51.53125 209.70897Q51.53125 208.49022 52.5 207.61522Q53.484375 206.7246 55.25 206.7246Q57.203125 206.7246 58.21875 207.63084Q59.234375 208.5371 59.28125 210.00584L57.546875 210.13084Q57.515625 209.19334 56.890625 208.64647Q56.265625 208.0996 55.125 208.0996Q54.203125 208.0996 53.6875 208.52147Q53.1875 208.92772 53.1875 209.42772Q53.1875 209.9121 53.625 210.2871Q53.921875 210.5371 55.140625 211.06834Q57.171875 211.94334 57.703125 212.44334Q58.53125 213.25584 58.53125 214.42772Q58.53125 215.19334 58.0625 215.94334Q57.59375 216.67772 56.609375 217.13084Q55.640625 217.56834 54.328125 217.56834Q52.53125 217.56834 51.265625 216.67772Q50.015625 215.7871 50.078125 213.7871ZM64.046875 215.89647L63.75 217.3496Q63.125 217.50584 62.515625 217.50584Q61.46875 217.50584 60.84375 216.99022Q60.375 216.5996 60.375 215.92772Q60.375 215.58397 60.625 214.3496L61.890625 208.33397L60.484375 208.33397L60.78125 206.95897L62.171875 206.95897L62.703125 204.4121L64.734375 203.19334L63.9375 206.95897L65.671875 206.95897L65.390625 208.33397L63.65625 208.33397L62.453125 214.06834Q62.234375 215.1621 62.234375 215.36522Q62.234375 215.67772 62.40625 215.8496Q62.59375 216.02147 63.0 216.02147Q63.59375 216.02147 64.046875 215.89647ZM72.53125 213.80272L74.25 213.99022Q73.875 215.25584 72.546875 216.4121Q71.21875 217.56834 69.375 217.56834Q68.21875 217.56834 67.25 217.0371Q66.296875 216.50584 65.78125 215.49022Q65.28125 214.4746 65.28125 213.17772Q65.28125 211.4746 66.0625 209.88084Q66.859375 208.2871 68.109375 207.50584Q69.359375 206.7246 70.8125 206.7246Q72.671875 206.7246 73.78125 207.88084Q74.890625 209.0371 74.890625 211.02147Q74.890625 211.7871 74.75 212.58397L67.109375 212.58397Q67.078125 212.89647 67.078125 213.13084Q67.078125 214.58397 67.734375 215.3496Q68.40625 216.11522 69.375 216.11522Q70.28125 216.11522 71.15625 215.52147Q72.046875 214.92772 72.53125 213.80272ZM67.390625 211.24022L73.21875 211.24022Q73.21875 210.95897 73.21875 210.8496Q73.21875 209.52147 72.546875 208.81834Q71.890625 208.0996 70.859375 208.0996Q69.71875 208.0996 68.78125 208.88084Q67.859375 209.6621 67.390625 211.24022ZM75.90625 217.33397L78.078125 206.95897L79.84375 206.95897L79.484375 208.67772Q80.46875 207.56834 81.234375 207.14647Q82.015625 206.7246 82.921875 206.7246Q83.890625 206.7246 84.53125 207.24022Q85.1875 207.75584 85.390625 208.67772Q86.1875 207.69334 87.0625 207.20897Q87.9375 206.7246 88.90625 206.7246Q90.203125 206.7246 90.84375 207.3496Q91.5 207.95897 91.5 209.06834Q91.5 209.55272 91.28125 210.64647L89.875 217.33397L88.109375 217.33397L89.53125 210.4746Q89.71875 209.63084 89.71875 209.27147Q89.71875 208.77147 89.390625 208.4746Q89.078125 208.17772 88.5 208.17772Q87.703125 208.17772 86.875 208.6621Q86.0625 209.14647 85.609375 209.92772Q85.15625 210.69334 84.8125 212.30272L83.75 217.33397L81.984375 217.33397L83.453125 210.33397Q83.609375 209.61522 83.609375 209.31834Q83.609375 208.80272 83.28125 208.49022Q82.96875 208.17772 82.46875 208.17772Q81.71875 208.17772 80.890625 208.6621Q80.0625 209.14647 79.546875 210.00584Q79.03125 210.8496 78.703125 212.42772L77.671875 217.33397L75.90625 217.33397Z" fill-rule="nonzero"/><path fill="#9e9e9e" d="M30.765625 236.45897Q29.96875 236.02147 29.5625 235.33397Q29.15625 234.64647 29.15625 233.8496Q29.15625 232.55272 30.09375 231.45897Q31.34375 229.95897 33.484375 229.95897Q35.375 229.95897 36.453125 230.9746Q37.546875 231.9746 37.546875 233.44334Q37.546875 234.49022 36.953125 235.33397Q36.375 236.1621 35.125 236.6621Q35.984375 237.20897 36.34375 237.80272Q36.828125 238.5996 36.828125 239.6621Q36.828125 241.58397 35.46875 243.08397Q34.109375 244.58397 31.84375 244.58397Q30.03125 244.58397 28.890625 243.4746Q27.75 242.36522 27.75 240.69334Q27.75 239.11522 28.546875 237.99022Q29.359375 236.86522 30.765625 236.45897ZM30.90625 233.92772Q30.90625 234.8496 31.484375 235.4121Q32.078125 235.9746 33.109375 235.9746Q34.328125 235.9746 35.078125 235.24022Q35.84375 234.50584 35.84375 233.42772Q35.84375 232.52147 35.25 231.95897Q34.65625 231.38084 33.625 231.38084Q32.84375 231.38084 32.1875 231.74022Q31.53125 232.0996 31.21875 232.7246Q30.90625 233.33397 30.90625 233.92772ZM29.515625 240.83397Q29.515625 241.42772 29.796875 241.9746Q30.09375 242.52147 30.671875 242.8496Q31.265625 243.17772 32.015625 243.17772Q33.453125 243.17772 34.34375 241.81834Q35.046875 240.77147 35.046875 239.55272Q35.046875 238.55272 34.390625 237.92772Q33.75 237.2871 32.703125 237.2871Q31.375 237.2871 30.4375 238.27147Q29.515625 239.25584 29.515625 240.83397ZM38.40625 244.33397L38.828125 242.33397L40.828125 242.33397L40.390625 244.33397L38.40625 244.33397ZM44.34375 240.58397L46.0625 240.36522Q46.265625 241.86522 46.921875 242.52147Q47.59375 243.17772 48.6875 243.17772Q49.984375 243.17772 50.9375 242.24022Q51.890625 241.30272 51.890625 240.08397Q51.890625 239.0371 51.171875 238.3496Q50.46875 237.64647 49.265625 237.64647Q49.125 237.64647 48.703125 237.69334L49.0 236.2246Q49.25 236.25584 49.484375 236.25584Q51.0 236.25584 51.8125 235.52147Q52.640625 234.7871 52.640625 233.70897Q52.640625 232.7246 51.96875 232.05272Q51.296875 231.38084 50.328125 231.38084Q49.390625 231.38084 48.625 232.06834Q47.875 232.75584 47.65625 234.00584L45.921875 233.6621Q46.34375 231.89647 47.5625 230.92772Q48.78125 229.95897 50.453125 229.95897Q52.21875 229.95897 53.296875 231.02147Q54.390625 232.08397 54.390625 233.64647Q54.390625 234.77147 53.796875 235.61522Q53.21875 236.45897 52.03125 237.02147Q52.875 237.52147 53.28125 238.2246Q53.703125 238.92772 53.703125 239.83397Q53.703125 241.75584 52.25 243.17772Q50.8125 244.58397 48.8125 244.58397Q46.875 244.58397 45.671875 243.49022Q44.484375 242.39647 44.34375 240.58397ZM57.046875 244.86522L68.875 229.77147L70.46875 229.77147L58.6875 244.86522L57.046875 244.86522ZM56.1875 234.42772Q56.1875 234.02147 56.375 233.19334Q56.5625 232.36522 56.90625 231.70897Q57.265625 231.05272 57.6875 230.6621Q58.125 230.27147 58.625 230.08397Q59.140625 229.89647 59.78125 229.89647Q61.15625 229.89647 61.859375 230.5996Q62.578125 231.30272 62.578125 232.64647Q62.578125 233.77147 62.09375 235.02147Q61.625 236.27147 60.796875 236.8496Q59.96875 237.42772 58.828125 237.42772Q57.546875 237.42772 56.859375 236.70897Q56.1875 235.9746 56.1875 234.42772ZM57.703125 234.74022Q57.703125 235.56834 58.0 235.9121Q58.3125 236.24022 58.828125 236.24022Q59.453125 236.24022 59.953125 235.77147Q60.453125 235.30272 60.734375 234.25584Q61.03125 233.19334 61.03125 232.44334Q61.03125 231.7871 60.6875 231.44334Q60.359375 231.08397 59.828125 231.08397Q59.265625 231.08397 58.78125 231.5371Q58.296875 231.99022 58.0 232.9746Q57.703125 233.95897 57.703125 234.74022ZM64.921875 241.8496Q64.921875 241.45897 65.09375 240.63084Q65.28125 239.7871 65.625 239.14647Q65.984375 238.49022 66.40625 238.0996Q66.84375 237.70897 67.34375 237.52147Q67.859375 237.33397 68.515625 237.33397Q69.890625 237.33397 70.59375 238.0371Q71.296875 238.7246 71.296875 240.06834Q71.296875 241.19334 70.828125 242.44334Q70.359375 243.69334 69.53125 244.2871Q68.703125 244.86522 67.546875 244.86522Q66.265625 244.86522 65.59375 244.14647Q64.921875 243.4121 64.921875 241.8496ZM66.421875 242.17772Q66.421875 242.99022 66.734375 243.3496Q67.046875 243.69334 67.5625 243.69334Q68.171875 243.69334 68.671875 243.2246Q69.171875 242.74022 69.46875 241.69334Q69.765625 240.64647 69.765625 239.88084Q69.765625 239.20897 69.421875 238.86522Q69.09375 238.50584 68.5625 238.50584Q67.984375 238.50584 67.5 238.9746Q67.03125 239.42772 66.71875 240.4121Q66.421875 241.39647 66.421875 242.17772Z" fill-rule="nonzero"/><path stroke="#757575" stroke-width="1.0" stroke-linecap="butt" d="M26.25 223.83397L211.0 223.83397L239.45018 223.83397" fill-rule="nonzero"/><path fill="#9e9e9e" d="M241.45018 223.83397C241.45018 222.72939 240.55475 221.83397 239.45018 221.83397C238.34561 221.83397 237.45018 222.72939 237.45018 223.83397C237.45018 224.93854 238.34561 225.83397 239.45018 225.83397C240.55475 225.83397 241.45018 224.93854 241.45018 223.83397" fill-rule="nonzero"/><path fill="#1a1a1a" d="M27.125 404.80258L30.125 390.49008L32.46875 390.49008L33.921875 399.7557Q34.203125 401.58383 34.28125 403.27133Q34.890625 401.8182 36.28125 399.34946L41.296875 390.49008L43.6875 390.49008L40.703125 404.80258L38.8125 404.80258L40.3125 397.83383Q40.828125 395.42758 41.796875 392.42758Q41.1875 393.8182 40.28125 395.4432L34.9375 404.80258L33.09375 404.80258L31.65625 395.61508Q31.46875 394.36508 31.375 392.67758Q31.140625 394.5682 30.90625 395.67758L29.0 404.80258L27.125 404.80258ZM46.421875 392.49008L46.84375 390.49008L48.609375 390.49008L48.1875 392.49008L46.421875 392.49008ZM43.84375 404.80258L46.015625 394.42758L47.78125 394.42758L45.609375 404.80258L43.84375 404.80258ZM48.21875 404.80258L52.734375 399.53696L50.140625 394.42758L52.09375 394.42758L52.984375 396.27133Q53.46875 397.3182 53.859375 398.2557L56.84375 394.42758L59.0 394.42758L54.640625 399.67758L57.265625 404.80258L55.3125 404.80258L54.28125 402.6932Q53.9375 402.02133 53.53125 401.02133L50.4375 404.80258L48.21875 404.80258ZM66.53125 401.27133L68.25 401.45883Q67.875 402.72446 66.546875 403.8807Q65.21875 405.03696 63.375 405.03696Q62.21875 405.03696 61.25 404.5057Q60.296875 403.97446 59.78125 402.95883Q59.28125 401.9432 59.28125 400.64633Q59.28125 398.9432 60.0625 397.34946Q60.859375 395.7557 62.109375 394.97446Q63.359375 394.1932 64.8125 394.1932Q66.671875 394.1932 67.78125 395.34946Q68.890625 396.5057 68.890625 398.49008Q68.890625 399.2557 68.75 400.05258L61.109375 400.05258Q61.078125 400.36508 61.078125 400.59946Q61.078125 402.05258 61.734375 402.8182Q62.40625 403.58383 63.375 403.58383Q64.28125 403.58383 65.15625 402.99008Q66.046875 402.39633 66.53125 401.27133ZM61.390625 398.70883L67.21875 398.70883Q67.21875 398.42758 67.21875 398.3182Q67.21875 396.99008 66.546875 396.28696Q65.890625 395.5682 64.859375 395.5682Q63.71875 395.5682 62.78125 396.34946Q61.859375 397.1307 61.390625 398.70883ZM76.90625 403.30258Q75.390625 405.03696 73.75 405.03696Q72.265625 405.03696 71.28125 403.95883Q70.3125 402.86508 70.3125 400.78696Q70.3125 398.89633 71.078125 397.33383Q71.859375 395.7557 73.015625 394.97446Q74.1875 394.1932 75.359375 394.1932Q77.296875 394.1932 78.28125 396.0682L79.453125 390.49008L81.21875 390.49008L78.21875 404.80258L76.59375 404.80258L76.90625 403.30258ZM72.0625 400.45883Q72.0625 401.53696 72.28125 402.16196Q72.5 402.78696 73.015625 403.20883Q73.53125 403.61508 74.25 403.61508Q75.453125 403.61508 76.421875 402.36508Q77.734375 400.70883 77.734375 398.27133Q77.734375 397.03696 77.09375 396.34946Q76.453125 395.64633 75.46875 395.64633Q74.84375 395.64633 74.3125 395.9432Q73.796875 396.22446 73.28125 396.89633Q72.765625 397.5682 72.40625 398.61508Q72.0625 399.66196 72.0625 400.45883ZM87.125 404.80258L90.125 390.49008L92.46875 390.49008L93.921875 399.7557Q94.203125 401.58383 94.28125 403.27133Q94.890625 401.8182 96.28125 399.34946L101.296875 390.49008L103.6875 390.49008L100.703125 404.80258L98.8125 404.80258L100.3125 397.83383Q100.828125 395.42758 101.796875 392.42758Q101.1875 393.8182 100.28125 395.4432L94.9375 404.80258L93.09375 404.80258L91.65625 395.61508Q91.46875 394.36508 91.375 392.67758Q91.140625 394.5682 90.90625 395.67758L89.0 404.80258L87.125 404.80258ZM111.53125 401.27133L113.25 401.45883Q112.875 402.72446 111.546875 403.8807Q110.21875 405.03696 108.375 405.03696Q107.21875 405.03696 106.25 404.5057Q105.296875 403.97446 104.78125 402.95883Q104.28125 401.9432 104.28125 400.64633Q104.28125 398.9432 105.0625 397.34946Q105.859375 395.7557 107.109375 394.97446Q108.359375 394.1932 109.8125 394.1932Q111.671875 394.1932 112.78125 395.34946Q113.890625 396.5057 113.890625 398.49008Q113.890625 399.2557 113.75 400.05258L106.109375 400.05258Q106.078125 400.36508 106.078125 400.59946Q106.078125 402.05258 106.734375 402.8182Q107.40625 403.58383 108.375 403.58383Q109.28125 403.58383 110.15625 402.99008Q111.046875 402.39633 111.53125 401.27133ZM106.390625 398.70883L112.21875 398.70883Q112.21875 398.42758 112.21875 398.3182Q112.21875 396.99008 111.546875 396.28696Q110.890625 395.5682 109.859375 395.5682Q108.71875 395.5682 107.78125 396.34946Q106.859375 397.1307 106.390625 398.70883ZM119.046875 403.36508L118.75 404.8182Q118.125 404.97446 117.515625 404.97446Q116.46875 404.97446 115.84375 404.45883Q115.375 404.0682 115.375 403.39633Q115.375 403.05258 115.625 401.8182L116.890625 395.80258L115.484375 395.80258L115.78125 394.42758L117.171875 394.42758L117.703125 391.8807L119.734375 390.66196L118.9375 394.42758L120.671875 394.42758L120.390625 395.80258L118.65625 395.80258L117.453125 401.53696Q117.234375 402.6307 117.234375 402.83383Q117.234375 403.14633 117.40625 403.3182Q117.59375 403.49008 118.0 403.49008Q118.59375 403.49008 119.046875 403.36508ZM119.921875 404.80258L122.90625 390.49008L124.671875 390.49008L123.53125 395.99008Q124.515625 395.02133 125.359375 394.61508Q126.21875 394.1932 127.109375 394.1932Q128.40625 394.1932 129.10938 394.8807Q129.82812 395.55258 129.82812 396.66196Q129.82812 397.20883 129.51562 398.67758L128.23438 404.80258L126.46875 404.80258L127.78125 398.52133Q128.0625 397.16196 128.0625 396.80258Q128.0625 396.30258 127.703125 395.97446Q127.359375 395.64633 126.703125 395.64633Q125.75 395.64633 124.875 396.16196Q124.0 396.66196 123.5 397.53696Q123.015625 398.41196 122.609375 400.34946L121.6875 404.80258L119.921875 404.80258ZM131.23438 400.86508Q131.23438 397.83383 133.01562 395.83383Q134.48438 394.1932 136.875 394.1932Q138.75 394.1932 139.89062 395.36508Q141.04688 396.53696 141.04688 398.53696Q141.04688 400.3182 140.32812 401.86508Q139.60938 403.39633 138.26562 404.22446Q136.9375 405.03696 135.46875 405.03696Q134.25 405.03696 133.25 404.52133Q132.26562 404.0057 131.75 403.05258Q131.23438 402.09946 131.23438 400.86508ZM133.0 400.6932Q133.0 402.16196 133.70312 402.91196Q134.40625 403.66196 135.48438 403.66196Q136.04688 403.66196 136.60938 403.4432Q137.17188 403.20883 137.64062 402.74008Q138.125 402.27133 138.45312 401.67758Q138.79688 401.0682 139.0 400.3807Q139.29688 399.41196 139.29688 398.52133Q139.29688 397.11508 138.59375 396.34946Q137.89062 395.5682 136.8125 395.5682Q135.98438 395.5682 135.29688 395.95883Q134.60938 396.34946 134.0625 397.11508Q133.51562 397.8807 133.25 398.89633Q133.0 399.89633 133.0 400.6932ZM148.90625 403.30258Q147.39062 405.03696 145.75 405.03696Q144.26562 405.03696 143.28125 403.95883Q142.3125 402.86508 142.3125 400.78696Q142.3125 398.89633 143.07812 397.33383Q143.85938 395.7557 145.01562 394.97446Q146.1875 394.1932 147.35938 394.1932Q149.29688 394.1932 150.28125 396.0682L151.45312 390.49008L153.21875 390.49008L150.21875 404.80258L148.59375 404.80258L148.90625 403.30258ZM144.0625 400.45883Q144.0625 401.53696 144.28125 402.16196Q144.5 402.78696 145.01562 403.20883Q145.53125 403.61508 146.25 403.61508Q147.45312 403.61508 148.42188 402.36508Q149.73438 400.70883 149.73438 398.27133Q149.73438 397.03696 149.09375 396.34946Q148.45312 395.64633 147.46875 395.64633Q146.84375 395.64633 146.3125 395.9432Q145.79688 396.22446 145.28125 396.89633Q144.76562 397.5682 144.40625 398.61508Q144.0625 399.66196 144.0625 400.45883ZM153.07812 401.2557L154.84375 401.14633Q154.84375 401.91196 155.07812 402.45883Q155.3125 402.99008 155.9375 403.33383Q156.57812 403.66196 157.42188 403.66196Q158.59375 403.66196 159.17188 403.1932Q159.76562 402.72446 159.76562 402.09946Q159.76562 401.6307 159.40625 401.22446Q159.04688 400.8182 157.64062 400.22446Q156.25 399.61508 155.85938 399.36508Q155.20312 398.97446 154.85938 398.42758Q154.53125 397.8807 154.53125 397.17758Q154.53125 395.95883 155.5 395.08383Q156.48438 394.1932 158.25 394.1932Q160.20312 394.1932 161.21875 395.09946Q162.23438 396.0057 162.28125 397.47446L160.54688 397.59946Q160.51562 396.66196 159.89062 396.11508Q159.26562 395.5682 158.125 395.5682Q157.20312 395.5682 156.6875 395.99008Q156.1875 396.39633 156.1875 396.89633Q156.1875 397.3807 156.625 397.7557Q156.92188 398.0057 158.14062 398.53696Q160.17188 399.41196 160.70312 399.91196Q161.53125 400.72446 161.53125 401.89633Q161.53125 402.66196 161.0625 403.41196Q160.59375 404.14633 159.60938 404.59946Q158.64062 405.03696 157.32812 405.03696Q155.53125 405.03696 154.26562 404.14633Q153.01562 403.2557 153.07812 401.2557Z" fill-rule="nonzero"/><path fill="#9e9e9e" d="M27.421875 431.80258Q27.703125 430.52133 28.171875 429.66196Q28.65625 428.78696 29.453125 428.02133Q30.265625 427.24008 32.546875 425.41196Q33.9375 424.3182 34.4375 423.78696Q35.171875 423.02133 35.515625 422.28696Q35.734375 421.78696 35.734375 421.20883Q35.734375 420.22446 35.03125 419.53696Q34.34375 418.84946 33.328125 418.84946Q32.3125 418.84946 31.5625 419.55258Q30.8125 420.24008 30.484375 421.78696L28.765625 421.52133Q29.015625 419.6307 30.234375 418.53696Q31.46875 417.42758 33.296875 417.42758Q34.515625 417.42758 35.5 417.9432Q36.5 418.4432 36.984375 419.36508Q37.484375 420.27133 37.484375 421.2557Q37.484375 422.67758 36.46875 424.0057Q35.84375 424.8182 32.796875 427.22446Q31.5 428.27133 30.859375 428.9432Q30.21875 429.59946 29.890625 430.17758L36.296875 430.17758L35.953125 431.80258L27.421875 431.80258ZM38.34375 428.05258L40.0625 427.83383Q40.265625 429.33383 40.921875 429.99008Q41.59375 430.64633 42.6875 430.64633Q43.984375 430.64633 44.9375 429.70883Q45.890625 428.77133 45.890625 427.55258Q45.890625 426.5057 45.171875 425.8182Q44.46875 425.11508 43.265625 425.11508Q43.125 425.11508 42.703125 425.16196L43.0 423.6932Q43.25 423.72446 43.484375 423.72446Q45.0 423.72446 45.8125 422.99008Q46.640625 422.2557 46.640625 421.17758Q46.640625 420.1932 45.96875 419.52133Q45.296875 418.84946 44.328125 418.84946Q43.390625 418.84946 42.625 419.53696Q41.875 420.22446 41.65625 421.47446L39.921875 421.1307Q40.34375 419.36508 41.5625 418.39633Q42.78125 417.42758 44.453125 417.42758Q46.21875 417.42758 47.296875 418.49008Q48.390625 419.55258 48.390625 421.11508Q48.390625 422.24008 47.796875 423.08383Q47.21875 423.92758 46.03125 424.49008Q46.875 424.99008 47.28125 425.6932Q47.703125 426.39633 47.703125 427.30258Q47.703125 429.22446 46.25 430.64633Q44.8125 432.05258 42.8125 432.05258Q40.875 432.05258 39.671875 430.95883Q38.484375 429.86508 38.34375 428.05258ZM49.40625 431.80258L49.828125 429.80258L51.828125 429.80258L51.390625 431.80258L49.40625 431.80258ZM57.15625 431.80258Q57.390625 430.34946 58.140625 428.3182Q59.0625 425.8807 60.53125 423.45883Q62.0 421.03696 63.8125 419.30258L56.671875 419.30258L57.015625 417.67758L66.15625 417.67758L65.828125 419.30258Q63.5 421.34946 61.765625 424.5682Q59.734375 428.28696 59.0 431.80258L57.15625 431.80258ZM68.046875 432.33383L79.875 417.24008L81.46875 417.24008L69.6875 432.33383L68.046875 432.33383ZM67.1875 421.89633Q67.1875 421.49008 67.375 420.66196Q67.5625 419.83383 67.90625 419.17758Q68.265625 418.52133 68.6875 418.1307Q69.125 417.74008 69.625 417.55258Q70.140625 417.36508 70.78125 417.36508Q72.15625 417.36508 72.859375 418.0682Q73.578125 418.77133 73.578125 420.11508Q73.578125 421.24008 73.09375 422.49008Q72.625 423.74008 71.796875 424.3182Q70.96875 424.89633 69.828125 424.89633Q68.546875 424.89633 67.859375 424.17758Q67.1875 423.4432 67.1875 421.89633ZM68.703125 422.20883Q68.703125 423.03696 69.0 423.3807Q69.3125 423.70883 69.828125 423.70883Q70.453125 423.70883 70.953125 423.24008Q71.453125 422.77133 71.734375 421.72446Q72.03125 420.66196 72.03125 419.91196Q72.03125 419.2557 71.6875 418.91196Q71.359375 418.55258 70.828125 418.55258Q70.265625 418.55258 69.78125 419.0057Q69.296875 419.45883 69.0 420.4432Q68.703125 421.42758 68.703125 422.20883ZM75.921875 429.3182Q75.921875 428.92758 76.09375 428.09946Q76.28125 427.2557 76.625 426.61508Q76.984375 425.95883 77.40625 425.5682Q77.84375 425.17758 78.34375 424.99008Q78.859375 424.80258 79.515625 424.80258Q80.890625 424.80258 81.59375 425.5057Q82.296875 426.1932 82.296875 427.53696Q82.296875 428.66196 81.828125 429.91196Q81.359375 431.16196 80.53125 431.7557Q79.703125 432.33383 78.546875 432.33383Q77.265625 432.33383 76.59375 431.61508Q75.921875 430.8807 75.921875 429.3182ZM77.421875 429.64633Q77.421875 430.45883 77.734375 430.8182Q78.046875 431.16196 78.5625 431.16196Q79.171875 431.16196 79.671875 430.6932Q80.171875 430.20883 80.46875 429.16196Q80.765625 428.11508 80.765625 427.34946Q80.765625 426.67758 80.421875 426.33383Q80.09375 425.97446 79.5625 425.97446Q78.984375 425.97446 78.5 426.4432Q78.03125 426.89633 77.71875 427.8807Q77.421875 428.86508 77.421875 429.64633Z" fill-rule="nonzero"/><path stroke="#757575" stroke-width="1.0" stroke-linecap="butt" d="M26.25 411.30258L211.0 411.30258L267.86414 411.30258" fill-rule="nonzero"/><path fill="#9e9e9e" d="M269.86414 411.30258C269.86414 410.198 268.96872 409.30258 267.86414 409.30258C266.75958 409.30258 265.86414 410.198 265.86414 411.30258C265.86414 412.40714 266.75958 413.30258 267.86414 413.30258C268.96872 413.30258 269.86414 412.40714 269.86414 411.30258" fill-rule="nonzero"/><path fill="#1a1a1a" d="M727.84375 102.59375Q728.5625 103.453125 729.7969 104.265625L728.9375 105.390625Q727.6406 104.546875 726.6094 103.328125Q725.15625 104.015625 723.84375 104.015625Q722.78125 104.015625 721.5156 103.625Q720.2656 103.21875 719.40625 102.40625Q718.5625 101.59375 718.0781 100.328125Q717.59375 99.046875 717.59375 97.5Q717.59375 95.640625 718.3125 93.921875Q718.90625 92.515625 719.8594 91.5Q720.8125 90.484375 721.9375 89.921875Q723.4375 89.1875 725.1719 89.1875Q727.84375 89.1875 729.53125 90.9375Q731.21875 92.671875 731.21875 95.609375Q731.21875 97.765625 730.3125 99.59375Q729.4219 101.40625 727.84375 102.59375ZM726.6719 101.359375Q727.84375 100.453125 728.5781 98.84375Q729.3125 97.234375 729.3125 95.5Q729.3125 93.328125 728.125 92.0625Q726.9375 90.78125 725.2031 90.78125Q723.7656 90.78125 722.4219 91.625Q721.0781 92.46875 720.28125 94.109375Q719.4844 95.734375 719.4844 97.65625Q719.4844 100.0625 720.9844 101.390625Q722.15625 102.40625 723.5 102.40625Q724.5625 102.40625 725.40625 102.078125Q724.5156 101.265625 723.5781 100.78125L724.28125 99.59375Q724.90625 99.859375 725.4219 100.234375Q725.9375 100.609375 726.6719 101.359375ZM739.5 101.875Q737.625 103.984375 735.6719 103.984375Q734.46875 103.984375 733.7344 103.296875Q733.0 102.609375 733.0 101.609375Q733.0 100.953125 733.3281 99.359375L734.5781 93.375L736.34375 93.375L734.96875 100.015625Q734.78125 100.84375 734.78125 101.296875Q734.78125 101.890625 735.1406 102.21875Q735.5 102.53125 736.1875 102.53125Q736.9375 102.53125 737.6406 102.171875Q738.3594 101.8125 738.8594 101.203125Q739.375 100.578125 739.7031 99.75Q739.9219 99.203125 740.2031 97.859375L741.1406 93.375L742.90625 93.375L740.7344 103.75L739.1094 103.75L739.5 101.875ZM750.40625 102.453125Q749.4844 103.25 748.6406 103.625Q747.7969 103.984375 746.8281 103.984375Q745.3906 103.984375 744.5 103.140625Q743.625 102.296875 743.625 100.96875Q743.625 100.109375 744.0156 99.4375Q744.4219 98.765625 745.0781 98.359375Q745.7344 97.953125 746.6719 97.78125Q747.2656 97.671875 748.9375 97.609375Q750.6094 97.53125 751.3281 97.25Q751.53125 96.515625 751.53125 96.046875Q751.53125 95.421875 751.0781 95.078125Q750.46875 94.59375 749.28125 94.59375Q748.1719 94.59375 747.4531 95.09375Q746.75 95.578125 746.4375 96.484375L744.6406 96.328125Q745.1875 94.78125 746.375 93.96875Q747.5625 93.140625 749.375 93.140625Q751.2969 93.140625 752.4219 94.0625Q753.28125 94.75 753.28125 95.84375Q753.28125 96.671875 753.03125 97.765625L752.4531 100.34375Q752.1875 101.578125 752.1875 102.34375Q752.1875 102.828125 752.40625 103.75L750.6094 103.75Q750.46875 103.234375 750.40625 102.453125ZM751.0625 98.5Q750.6875 98.640625 750.2656 98.71875Q749.84375 98.796875 748.84375 98.890625Q747.2969 99.015625 746.65625 99.234375Q746.03125 99.4375 745.7031 99.90625Q745.3906 100.359375 745.3906 100.921875Q745.3906 101.65625 745.8906 102.140625Q746.40625 102.609375 747.3594 102.609375Q748.2344 102.609375 749.0469 102.15625Q749.8594 101.6875 750.3281 100.859375Q750.7969 100.03125 751.0625 98.5ZM754.4219 103.75L756.5781 93.375L758.1875 93.375L757.7969 95.1875Q758.84375 94.125 759.75 93.640625Q760.6719 93.140625 761.6094 93.140625Q762.875 93.140625 763.59375 93.828125Q764.3125 94.515625 764.3125 95.65625Q764.3125 96.234375 764.0469 97.46875L762.7344 103.75L760.96875 103.75L762.34375 97.171875Q762.5469 96.21875 762.5469 95.765625Q762.5469 95.25 762.1875 94.921875Q761.84375 94.59375 761.15625 94.59375Q759.8125 94.59375 758.75 95.578125Q757.6875 96.546875 757.1875 98.921875L756.1875 103.75L754.4219 103.75ZM769.5469 102.3125L769.25 103.765625Q768.625 103.921875 768.0156 103.921875Q766.96875 103.921875 766.34375 103.40625Q765.875 103.015625 765.875 102.34375Q765.875 102.0 766.125 100.765625L767.3906 94.75L765.9844 94.75L766.28125 93.375L767.6719 93.375L768.2031 90.828125L770.2344 89.609375L769.4375 93.375L771.1719 93.375L770.8906 94.75L769.15625 94.75L767.9531 100.484375Q767.7344 101.578125 767.7344 101.78125Q767.7344 102.09375 767.90625 102.265625Q768.09375 102.4375 768.5 102.4375Q769.09375 102.4375 769.5469 102.3125ZM772.9219 91.4375L773.34375 89.4375L775.1094 89.4375L774.6875 91.4375L772.9219 91.4375ZM770.34375 103.75L772.5156 93.375L774.28125 93.375L772.1094 103.75L770.34375 103.75ZM779.5469 102.3125L779.25 103.765625Q778.625 103.921875 778.0156 103.921875Q776.96875 103.921875 776.34375 103.40625Q775.875 103.015625 775.875 102.34375Q775.875 102.0 776.125 100.765625L777.3906 94.75L775.9844 94.75L776.28125 93.375L777.6719 93.375L778.2031 90.828125L780.2344 89.609375L779.4375 93.375L781.1719 93.375L780.8906 94.75L779.15625 94.75L777.9531 100.484375Q777.7344 101.578125 777.7344 101.78125Q777.7344 102.09375 777.90625 102.265625Q778.09375 102.4375 778.5 102.4375Q779.09375 102.4375 779.5469 102.3125ZM787.40625 102.453125Q786.4844 103.25 785.6406 103.625Q784.7969 103.984375 783.8281 103.984375Q782.3906 103.984375 781.5 103.140625Q780.625 102.296875 780.625 100.96875Q780.625 100.109375 781.0156 99.4375Q781.4219 98.765625 782.0781 98.359375Q782.7344 97.953125 783.6719 97.78125Q784.2656 97.671875 785.9375 97.609375Q787.6094 97.53125 788.3281 97.25Q788.53125 96.515625 788.53125 96.046875Q788.53125 95.421875 788.0781 95.078125Q787.46875 94.59375 786.28125 94.59375Q785.1719 94.59375 784.4531 95.09375Q783.75 95.578125 783.4375 96.484375L781.6406 96.328125Q782.1875 94.78125 783.375 93.96875Q784.5625 93.140625 786.375 93.140625Q788.2969 93.140625 789.4219 94.0625Q790.28125 94.75 790.28125 95.84375Q790.28125 96.671875 790.03125 97.765625L789.4531 100.34375Q789.1875 101.578125 789.1875 102.34375Q789.1875 102.828125 789.40625 103.75L787.6094 103.75Q787.46875 103.234375 787.40625 102.453125ZM788.0625 98.5Q787.6875 98.640625 787.2656 98.71875Q786.84375 98.796875 785.84375 98.890625Q784.2969 99.015625 783.65625 99.234375Q783.03125 99.4375 782.7031 99.90625Q782.3906 100.359375 782.3906 100.921875Q782.3906 101.65625 782.8906 102.140625Q783.40625 102.609375 784.3594 102.609375Q785.2344 102.609375 786.0469 102.15625Q786.8594 101.6875 787.3281 100.859375Q787.7969 100.03125 788.0625 98.5ZM795.5469 102.3125L795.25 103.765625Q794.625 103.921875 794.0156 103.921875Q792.96875 103.921875 792.34375 103.40625Q791.875 103.015625 791.875 102.34375Q791.875 102.0 792.125 100.765625L793.3906 94.75L791.9844 94.75L792.28125 93.375L793.6719 93.375L794.2031 90.828125L796.2344 89.609375L795.4375 93.375L797.1719 93.375L796.8906 94.75L795.15625 94.75L793.9531 100.484375Q793.7344 101.578125 793.7344 101.78125Q793.7344 102.09375 793.90625 102.265625Q794.09375 102.4375 794.5 102.4375Q795.09375 102.4375 795.5469 102.3125ZM798.9219 91.4375L799.34375 89.4375L801.1094 89.4375L800.6875 91.4375L798.9219 91.4375ZM796.34375 103.75L798.5156 93.375L800.28125 93.375L798.1094 103.75L796.34375 103.75ZM804.03125 103.75L802.3281 93.375L804.0469 93.375L804.9375 99.09375Q805.09375 100.03125 805.2969 102.140625Q805.8125 101.046875 806.59375 99.625L810.0625 93.375L811.9375 93.375L806.0 103.75L804.03125 103.75ZM819.03125 100.21875L820.75 100.40625Q820.375 101.671875 819.0469 102.828125Q817.71875 103.984375 815.875 103.984375Q814.71875 103.984375 813.75 103.453125Q812.7969 102.921875 812.28125 101.90625Q811.78125 100.890625 811.78125 99.59375Q811.78125 97.890625 812.5625 96.296875Q813.3594 94.703125 814.6094 93.921875Q815.8594 93.140625 817.3125 93.140625Q819.1719 93.140625 820.28125 94.296875Q821.3906 95.453125 821.3906 97.4375Q821.3906 98.203125 821.25 99.0L813.6094 99.0Q813.5781 99.3125 813.5781 99.546875Q813.5781 101.0 814.2344 101.765625Q814.90625 102.53125 815.875 102.53125Q816.78125 102.53125 817.65625 101.9375Q818.5469 101.34375 819.03125 100.21875ZM813.8906 97.65625L819.71875 97.65625Q819.71875 97.375 819.71875 97.265625Q819.71875 95.9375 819.0469 95.234375Q818.3906 94.515625 817.3594 94.515625Q816.21875 94.515625 815.28125 95.296875Q814.3594 96.078125 813.8906 97.65625Z" fill-rule="nonzero"/><path fill="#9e9e9e" d="M769.5625 130.75L771.8281 119.9375Q770.3594 121.09375 767.7031 121.78125L768.0469 120.1875Q769.3594 119.65625 770.6406 118.8125Q771.9219 117.953125 772.5781 117.328125Q772.96875 116.9375 773.3125 116.375L774.34375 116.375L771.34375 130.75L769.5625 130.75ZM776.9219 130.75Q777.2031 129.46875 777.6719 128.60938Q778.15625 127.734375 778.9531 126.96875Q779.7656 126.1875 782.0469 124.359375Q783.4375 123.265625 783.9375 122.734375Q784.6719 121.96875 785.0156 121.234375Q785.2344 120.734375 785.2344 120.15625Q785.2344 119.171875 784.53125 118.484375Q783.84375 117.796875 782.8281 117.796875Q781.8125 117.796875 781.0625 118.5Q780.3125 119.1875 779.9844 120.734375L778.2656 120.46875Q778.5156 118.578125 779.7344 117.484375Q780.96875 116.375 782.7969 116.375Q784.0156 116.375 785.0 116.890625Q786.0 117.390625 786.4844 118.3125Q786.9844 119.21875 786.9844 120.203125Q786.9844 121.625 785.96875 122.953125Q785.34375 123.765625 782.2969 126.171875Q781.0 127.21875 780.3594 127.890625Q779.71875 128.54688 779.3906 129.125L785.7969 129.125L785.4531 130.75L776.9219 130.75ZM787.90625 130.75L788.3281 128.75L790.3281 128.75L789.8906 130.75L787.90625 130.75ZM796.78125 122.453125Q797.5156 121.828125 798.25 121.53125Q798.9844 121.21875 799.71875 121.21875Q801.34375 121.21875 802.40625 122.328125Q803.46875 123.4375 803.46875 125.328125Q803.46875 127.765625 801.8906 129.5Q800.53125 131.0 798.5781 131.0Q796.7969 131.0 795.6094 129.70312Q794.4219 128.39062 794.4219 125.96875Q794.4219 123.8125 795.1875 121.515625Q795.7656 119.75 796.625 118.609375Q797.5 117.453125 798.46875 116.921875Q799.4375 116.375 800.65625 116.375Q802.125 116.375 803.0469 117.296875Q803.9844 118.203125 804.1094 119.90625L802.46875 120.0625Q802.3281 118.890625 801.7969 118.375Q801.28125 117.859375 800.53125 117.859375Q799.75 117.859375 798.9375 118.484375Q798.1406 119.09375 797.5625 120.296875Q796.9844 121.5 796.78125 122.453125ZM796.15625 126.71875Q796.15625 127.9375 796.90625 128.76562Q797.65625 129.59375 798.6094 129.59375Q799.28125 129.59375 800.0156 129.09375Q800.7656 128.57812 801.28125 127.5625Q801.7969 126.53125 801.7969 125.515625Q801.7969 124.203125 801.0781 123.421875Q800.3594 122.640625 799.34375 122.640625Q798.1719 122.640625 797.15625 123.78125Q796.15625 124.921875 796.15625 126.71875ZM806.5469 131.28125L818.375 116.1875L819.96875 116.1875L808.1875 131.28125L806.5469 131.28125ZM805.6875 120.84375Q805.6875 120.4375 805.875 119.609375Q806.0625 118.78125 806.40625 118.125Q806.7656 117.46875 807.1875 117.078125Q807.625 116.6875 808.125 116.5Q808.6406 116.3125 809.28125 116.3125Q810.65625 116.3125 811.3594 117.015625Q812.0781 117.71875 812.0781 119.0625Q812.0781 120.1875 811.59375 121.4375Q811.125 122.6875 810.2969 123.265625Q809.46875 123.84375 808.3281 123.84375Q807.0469 123.84375 806.3594 123.125Q805.6875 122.390625 805.6875 120.84375ZM807.2031 121.15625Q807.2031 121.984375 807.5 122.328125Q807.8125 122.65625 808.3281 122.65625Q808.9531 122.65625 809.4531 122.1875Q809.9531 121.71875 810.2344 120.671875Q810.53125 119.609375 810.53125 118.859375Q810.53125 118.203125 810.1875 117.859375Q809.8594 117.5 809.3281 117.5Q808.7656 117.5 808.28125 117.953125Q807.7969 118.40625 807.5 119.390625Q807.2031 120.375 807.2031 121.15625ZM814.4219 128.26562Q814.4219 127.875 814.59375 127.046875Q814.78125 126.203125 815.125 125.5625Q815.4844 124.90625 815.90625 124.515625Q816.34375 124.125 816.84375 123.9375Q817.3594 123.75 818.0156 123.75Q819.3906 123.75 820.09375 124.453125Q820.7969 125.140625 820.7969 126.484375Q820.7969 127.609375 820.3281 128.85938Q819.8594 130.10938 819.03125 130.70312Q818.2031 131.28125 817.0469 131.28125Q815.7656 131.28125 815.09375 130.5625Q814.4219 129.82812 814.4219 128.26562ZM815.9219 128.59375Q815.9219 129.40625 816.2344 129.76562Q816.5469 130.10938 817.0625 130.10938Q817.6719 130.10938 818.1719 129.64062Q818.6719 129.15625 818.96875 128.10938Q819.2656 127.0625 819.2656 126.296875Q819.2656 125.625 818.9219 125.28125Q818.59375 124.921875 818.0625 124.921875Q817.4844 124.921875 817.0 125.390625Q816.53125 125.84375 816.21875 126.828125Q815.9219 127.8125 815.9219 128.59375Z" fill-rule="nonzero"/><path stroke="#757575" stroke-width="1.0" stroke-linecap="butt" d="M821.75 110.25L637.0 110.25L499.59058 110.20858" fill-rule="nonzero"/><path fill="#9e9e9e" d="M501.59058 110.20858C501.59058 109.10401 500.69516 108.20858 499.59058 108.20858C498.486 108.20858 497.59058 109.10401 497.59058 110.20858C497.59058 111.31315 498.486 112.20858 499.59058 112.20858C500.69516 112.20858 501.59058 111.31315 501.59058 110.20858" fill-rule="nonzero"/><path fill="#1a1a1a" d="M738.84375 375.0519Q739.5625 375.9113 740.7969 376.7238L739.9375 377.8488Q738.6406 377.00504 737.6094 375.7863Q736.15625 376.4738 734.84375 376.4738Q733.78125 376.4738 732.5156 376.08316Q731.2656 375.6769 730.40625 374.8644Q729.5625 374.0519 729.0781 372.7863Q728.59375 371.50504 728.59375 369.95816Q728.59375 368.0988 729.3125 366.38004Q729.90625 364.9738 730.8594 363.95816Q731.8125 362.94254 732.9375 362.38004Q734.4375 361.64566 736.1719 361.64566Q738.84375 361.64566 740.53125 363.39566Q742.21875 365.13004 742.21875 368.06754Q742.21875 370.2238 741.3125 372.0519Q740.4219 373.8644 738.84375 375.0519ZM737.6719 373.81754Q738.84375 372.9113 739.5781 371.3019Q740.3125 369.69254 740.3125 367.95816Q740.3125 365.7863 739.125 364.52066Q737.9375 363.2394 736.2031 363.2394Q734.7656 363.2394 733.4219 364.08316Q732.0781 364.9269 731.28125 366.56754Q730.4844 368.19254 730.4844 370.1144Q730.4844 372.52066 731.9844 373.8488Q733.15625 374.8644 734.5 374.8644Q735.5625 374.8644 736.40625 374.5363Q735.5156 373.7238 734.5781 373.2394L735.28125 372.0519Q735.90625 372.31754 736.4219 372.69254Q736.9375 373.06754 737.6719 373.81754ZM750.5 374.33316Q748.625 376.44254 746.6719 376.44254Q745.46875 376.44254 744.7344 375.75504Q744.0 375.06754 744.0 374.06754Q744.0 373.4113 744.3281 371.81754L745.5781 365.83316L747.34375 365.83316L745.96875 372.4738Q745.78125 373.3019 745.78125 373.75504Q745.78125 374.3488 746.1406 374.6769Q746.5 374.9894 747.1875 374.9894Q747.9375 374.9894 748.6406 374.63004Q749.3594 374.27066 749.8594 373.6613Q750.375 373.0363 750.7031 372.20816Q750.9219 371.6613 751.2031 370.31754L752.1406 365.83316L753.90625 365.83316L751.7344 376.20816L750.1094 376.20816L750.5 374.33316ZM761.40625 374.9113Q760.4844 375.70816 759.6406 376.08316Q758.7969 376.44254 757.8281 376.44254Q756.3906 376.44254 755.5 375.5988Q754.625 374.75504 754.625 373.4269Q754.625 372.56754 755.0156 371.89566Q755.4219 371.2238 756.0781 370.81754Q756.7344 370.4113 757.6719 370.2394Q758.2656 370.13004 759.9375 370.06754Q761.6094 369.9894 762.3281 369.70816Q762.53125 368.9738 762.53125 368.50504Q762.53125 367.88004 762.0781 367.5363Q761.46875 367.0519 760.28125 367.0519Q759.1719 367.0519 758.4531 367.5519Q757.75 368.0363 757.4375 368.94254L755.6406 368.7863Q756.1875 367.2394 757.375 366.4269Q758.5625 365.5988 760.375 365.5988Q762.2969 365.5988 763.4219 366.52066Q764.28125 367.20816 764.28125 368.3019Q764.28125 369.13004 764.03125 370.2238L763.4531 372.8019Q763.1875 374.0363 763.1875 374.8019Q763.1875 375.2863 763.40625 376.20816L761.6094 376.20816Q761.46875 375.69254 761.40625 374.9113ZM762.0625 370.95816Q761.6875 371.0988 761.2656 371.1769Q760.84375 371.25504 759.84375 371.3488Q758.2969 371.4738 757.65625 371.69254Q757.03125 371.89566 756.7031 372.3644Q756.3906 372.81754 756.3906 373.38004Q756.3906 374.1144 756.8906 374.5988Q757.40625 375.06754 758.3594 375.06754Q759.2344 375.06754 760.0469 374.6144Q760.8594 374.14566 761.3281 373.31754Q761.7969 372.4894 762.0625 370.95816ZM765.28125 376.20816L768.2656 361.89566L770.03125 361.89566L767.0469 376.20816L765.28125 376.20816ZM772.9219 363.89566L773.34375 361.89566L775.1094 361.89566L774.6875 363.89566L772.9219 363.89566ZM770.34375 376.20816L772.5156 365.83316L774.28125 365.83316L772.1094 376.20816L770.34375 376.20816ZM779.5469 374.77066L779.25 376.2238Q778.625 376.38004 778.0156 376.38004Q776.96875 376.38004 776.34375 375.8644Q775.875 375.4738 775.875 374.8019Q775.875 374.45816 776.125 373.2238L777.3906 367.20816L775.9844 367.20816L776.28125 365.83316L777.6719 365.83316L778.2031 363.2863L780.2344 362.06754L779.4375 365.83316L781.1719 365.83316L780.8906 367.20816L779.15625 367.20816L777.9531 372.94254Q777.7344 374.0363 777.7344 374.2394Q777.7344 374.5519 777.90625 374.7238Q778.09375 374.89566 778.5 374.89566Q779.09375 374.89566 779.5469 374.77066ZM787.40625 374.9113Q786.4844 375.70816 785.6406 376.08316Q784.7969 376.44254 783.8281 376.44254Q782.3906 376.44254 781.5 375.5988Q780.625 374.75504 780.625 373.4269Q780.625 372.56754 781.0156 371.89566Q781.4219 371.2238 782.0781 370.81754Q782.7344 370.4113 783.6719 370.2394Q784.2656 370.13004 785.9375 370.06754Q787.6094 369.9894 788.3281 369.70816Q788.53125 368.9738 788.53125 368.50504Q788.53125 367.88004 788.0781 367.5363Q787.46875 367.0519 786.28125 367.0519Q785.1719 367.0519 784.4531 367.5519Q783.75 368.0363 783.4375 368.94254L781.6406 368.7863Q782.1875 367.2394 783.375 366.4269Q784.5625 365.5988 786.375 365.5988Q788.2969 365.5988 789.4219 366.52066Q790.28125 367.20816 790.28125 368.3019Q790.28125 369.13004 790.03125 370.2238L789.4531 372.8019Q789.1875 374.0363 789.1875 374.8019Q789.1875 375.2863 789.40625 376.20816L787.6094 376.20816Q787.46875 375.69254 787.40625 374.9113ZM788.0625 370.95816Q787.6875 371.0988 787.2656 371.1769Q786.84375 371.25504 785.84375 371.3488Q784.2969 371.4738 783.65625 371.69254Q783.03125 371.89566 782.7031 372.3644Q782.3906 372.81754 782.3906 373.38004Q782.3906 374.1144 782.8906 374.5988Q783.40625 375.06754 784.3594 375.06754Q785.2344 375.06754 786.0469 374.6144Q786.8594 374.14566 787.3281 373.31754Q787.7969 372.4894 788.0625 370.95816ZM795.5469 374.77066L795.25 376.2238Q794.625 376.38004 794.0156 376.38004Q792.96875 376.38004 792.34375 375.8644Q791.875 375.4738 791.875 374.8019Q791.875 374.45816 792.125 373.2238L793.3906 367.20816L791.9844 367.20816L792.28125 365.83316L793.6719 365.83316L794.2031 363.2863L796.2344 362.06754L795.4375 365.83316L797.1719 365.83316L796.8906 367.20816L795.15625 367.20816L793.9531 372.94254Q793.7344 374.0363 793.7344 374.2394Q793.7344 374.5519 793.90625 374.7238Q794.09375 374.89566 794.5 374.89566Q795.09375 374.89566 795.5469 374.77066ZM798.9219 363.89566L799.34375 361.89566L801.1094 361.89566L800.6875 363.89566L798.9219 363.89566ZM796.34375 376.20816L798.5156 365.83316L800.28125 365.83316L798.1094 376.20816L796.34375 376.20816ZM804.03125 376.20816L802.3281 365.83316L804.0469 365.83316L804.9375 371.5519Q805.09375 372.4894 805.2969 374.5988Q805.8125 373.50504 806.59375 372.08316L810.0625 365.83316L811.9375 365.83316L806.0 376.20816L804.03125 376.20816ZM819.03125 372.6769L820.75 372.8644Q820.375 374.13004 819.0469 375.2863Q817.71875 376.44254 815.875 376.44254Q814.71875 376.44254 813.75 375.9113Q812.7969 375.38004 812.28125 374.3644Q811.78125 373.3488 811.78125 372.0519Q811.78125 370.3488 812.5625 368.75504Q813.3594 367.1613 814.6094 366.38004Q815.8594 365.5988 817.3125 365.5988Q819.1719 365.5988 820.28125 366.75504Q821.3906 367.9113 821.3906 369.89566Q821.3906 370.6613 821.25 371.45816L813.6094 371.45816Q813.5781 371.77066 813.5781 372.00504Q813.5781 373.45816 814.2344 374.2238Q814.90625 374.9894 815.875 374.9894Q816.78125 374.9894 817.65625 374.39566Q818.5469 373.8019 819.03125 372.6769ZM813.8906 370.1144L819.71875 370.1144Q819.71875 369.83316 819.71875 369.7238Q819.71875 368.39566 819.0469 367.69254Q818.3906 366.9738 817.3594 366.9738Q816.21875 366.9738 815.28125 367.75504Q814.3594 368.5363 813.8906 370.1144Z" fill-rule="nonzero"/><path fill="#9e9e9e" d="M770.7344 403.20816L771.5 399.5519L765.65625 399.5519L766.03125 397.8019L774.0469 388.89566L775.5 388.89566L773.59375 397.9894L775.59375 397.9894L775.28125 399.5519L773.2656 399.5519L772.5 403.20816L770.7344 403.20816ZM771.8281 397.9894L773.0781 392.02066L767.7344 397.9894L771.8281 397.9894ZM777.1719 398.50504Q777.1719 396.69254 777.7031 394.81754Q778.25 392.94254 778.90625 391.81754Q779.5781 390.69254 780.28125 390.06754Q781.0 389.4269 781.6875 389.13004Q782.375 388.83316 783.21875 388.83316Q784.8594 388.83316 785.9531 390.0519Q787.0625 391.27066 787.0625 393.58316Q787.0625 395.95816 786.2969 398.27066Q785.40625 401.0363 783.7969 402.4113Q782.5625 403.45816 781.0 403.45816Q779.3906 403.45816 778.28125 402.19254Q777.1719 400.9269 777.1719 398.50504ZM778.875 398.95816Q778.875 400.27066 779.3125 401.02066Q779.90625 402.0519 781.0781 402.0519Q782.1094 402.0519 782.9531 401.1144Q784.15625 399.8019 784.7656 397.2863Q785.375 394.75504 785.375 393.1613Q785.375 391.6144 784.78125 390.94254Q784.2031 390.25504 783.2344 390.25504Q782.53125 390.25504 781.9219 390.6144Q781.3125 390.9738 780.75 391.8488Q779.9531 393.08316 779.375 395.56754Q778.875 397.6769 778.875 398.95816ZM787.90625 403.20816L788.3281 401.20816L790.3281 401.20816L789.8906 403.20816L787.90625 403.20816ZM793.9219 403.20816Q794.2031 401.9269 794.6719 401.06754Q795.15625 400.19254 795.9531 399.4269Q796.7656 398.64566 799.0469 396.81754Q800.4375 395.7238 800.9375 395.19254Q801.6719 394.4269 802.0156 393.69254Q802.2344 393.19254 802.2344 392.6144Q802.2344 391.63004 801.53125 390.94254Q800.84375 390.25504 799.8281 390.25504Q798.8125 390.25504 798.0625 390.95816Q797.3125 391.64566 796.9844 393.19254L795.2656 392.9269Q795.5156 391.0363 796.7344 389.94254Q797.96875 388.83316 799.7969 388.83316Q801.0156 388.83316 802.0 389.3488Q803.0 389.8488 803.4844 390.77066Q803.9844 391.6769 803.9844 392.6613Q803.9844 394.08316 802.96875 395.4113Q802.34375 396.2238 799.2969 398.63004Q798.0 399.6769 797.3594 400.3488Q796.71875 401.00504 796.3906 401.58316L802.7969 401.58316L802.4531 403.20816L793.9219 403.20816ZM806.5469 403.7394L818.375 388.64566L819.96875 388.64566L808.1875 403.7394L806.5469 403.7394ZM805.6875 393.3019Q805.6875 392.89566 805.875 392.06754Q806.0625 391.2394 806.40625 390.58316Q806.7656 389.9269 807.1875 389.5363Q807.625 389.14566 808.125 388.95816Q808.6406 388.77066 809.28125 388.77066Q810.65625 388.77066 811.3594 389.4738Q812.0781 390.1769 812.0781 391.52066Q812.0781 392.64566 811.59375 393.89566Q811.125 395.14566 810.2969 395.7238Q809.46875 396.3019 808.3281 396.3019Q807.0469 396.3019 806.3594 395.58316Q805.6875 394.8488 805.6875 393.3019ZM807.2031 393.6144Q807.2031 394.44254 807.5 394.7863Q807.8125 395.1144 808.3281 395.1144Q808.9531 395.1144 809.4531 394.64566Q809.9531 394.1769 810.2344 393.13004Q810.53125 392.06754 810.53125 391.31754Q810.53125 390.6613 810.1875 390.31754Q809.8594 389.95816 809.3281 389.95816Q808.7656 389.95816 808.28125 390.4113Q807.7969 390.8644 807.5 391.8488Q807.2031 392.83316 807.2031 393.6144ZM814.4219 400.7238Q814.4219 400.33316 814.59375 399.50504Q814.78125 398.6613 815.125 398.02066Q815.4844 397.3644 815.90625 396.9738Q816.34375 396.58316 816.84375 396.39566Q817.3594 396.20816 818.0156 396.20816Q819.3906 396.20816 820.09375 396.9113Q820.7969 397.5988 820.7969 398.94254Q820.7969 400.06754 820.3281 401.31754Q819.8594 402.56754 819.03125 403.1613Q818.2031 403.7394 817.0469 403.7394Q815.7656 403.7394 815.09375 403.02066Q814.4219 402.2863 814.4219 400.7238ZM815.9219 401.0519Q815.9219 401.8644 816.2344 402.2238Q816.5469 402.56754 817.0625 402.56754Q817.6719 402.56754 818.1719 402.0988Q818.6719 401.6144 818.96875 400.56754Q819.2656 399.52066 819.2656 398.75504Q819.2656 398.08316 818.9219 397.7394Q818.59375 397.38004 818.0625 397.38004Q817.4844 397.38004 817.0 397.8488Q816.53125 398.3019 816.21875 399.2863Q815.9219 400.27066 815.9219 401.0519Z" fill-rule="nonzero"/><path stroke="#757575" stroke-width="1.0" stroke-linecap="butt" d="M821.75 382.70816L637.0 382.70816L598.34973 382.70816" fill-rule="nonzero"/><path fill="#9e9e9e" d="M600.34973 382.70816C600.34973 381.60358 599.45435 380.70816 598.34973 380.70816C597.2452 380.70816 596.34973 381.60358 596.34973 382.70816C596.34973 383.8127 597.2452 384.70816 598.34973 384.70816C599.45435 384.70816 600.34973 383.8127 600.34973 382.70816" fill-rule="nonzero"/><path fill="#757575" d="M27.875 50.96875L31.078125 50.6875Q31.3125 52.625 32.140625 53.859375Q32.984375 55.09375 34.734375 55.859375Q36.5 56.625 38.703125 56.625Q40.640625 56.625 42.140625 56.046875Q43.640625 55.46875 44.359375 54.46875Q45.09375 53.453125 45.09375 52.25Q45.09375 51.046875 44.390625 50.140625Q43.6875 49.234375 42.078125 48.609375Q41.03125 48.203125 37.484375 47.359375Q33.9375 46.5 32.515625 45.75Q30.65625 44.78125 29.75 43.359375Q28.859375 41.921875 28.859375 40.140625Q28.859375 38.1875 29.953125 36.5Q31.0625 34.796875 33.1875 33.921875Q35.328125 33.046875 37.921875 33.046875Q40.78125 33.046875 42.96875 33.96875Q45.171875 34.890625 46.34375 36.6875Q47.515625 38.46875 47.609375 40.734375L44.34375 40.984375Q44.078125 38.546875 42.546875 37.296875Q41.03125 36.046875 38.0625 36.046875Q34.96875 36.046875 33.546875 37.1875Q32.140625 38.3125 32.140625 39.90625Q32.140625 41.296875 33.140625 42.203125Q34.125 43.09375 38.28125 44.03125Q42.4375 44.96875 43.984375 45.671875Q46.234375 46.71875 47.296875 48.3125Q48.375 49.890625 48.375 51.96875Q48.375 54.03125 47.203125 55.859375Q46.03125 57.671875 43.8125 58.6875Q41.609375 59.6875 38.859375 59.6875Q35.359375 59.6875 32.984375 58.671875Q30.625 57.65625 29.28125 55.609375Q27.9375 53.546875 27.875 50.96875ZM64.859375 59.25L64.859375 56.5Q62.671875 59.671875 58.9375 59.671875Q57.28125 59.671875 55.84375 59.046875Q54.421875 58.40625 53.71875 57.453125Q53.03125 56.484375 52.75 55.09375Q52.546875 54.171875 52.546875 52.140625L52.546875 40.578125L55.71875 40.578125L55.71875 50.9375Q55.71875 53.40625 55.90625 54.28125Q56.203125 55.515625 57.171875 56.234375Q58.140625 56.953125 59.5625 56.953125Q60.984375 56.953125 62.234375 56.21875Q63.484375 55.484375 64.0 54.234375Q64.53125 52.96875 64.53125 50.578125L64.53125 40.578125L67.6875 40.578125L67.6875 59.25L64.859375 59.25ZM74.546875 59.25L71.609375 59.25L71.609375 33.484375L74.765625 33.484375L74.765625 42.671875Q76.78125 40.15625 79.890625 40.15625Q81.609375 40.15625 83.140625 40.859375Q84.6875 41.546875 85.671875 42.8125Q86.671875 44.0625 87.234375 45.84375Q87.796875 47.609375 87.796875 49.640625Q87.796875 54.4375 85.421875 57.0625Q83.046875 59.671875 79.734375 59.671875Q76.421875 59.671875 74.546875 56.90625L74.546875 59.25ZM74.5 49.78125Q74.5 53.125 75.421875 54.625Q76.921875 57.0625 79.46875 57.0625Q81.53125 57.0625 83.046875 55.265625Q84.5625 53.46875 84.5625 49.890625Q84.5625 46.234375 83.109375 44.5Q81.65625 42.765625 79.609375 42.765625Q77.53125 42.765625 76.015625 44.5625Q74.5 46.359375 74.5 49.78125ZM91.625 59.25L91.625 40.578125L94.453125 40.578125L94.453125 43.203125Q95.328125 41.828125 96.78125 41.0Q98.25 40.15625 100.109375 40.15625Q102.1875 40.15625 103.515625 41.015625Q104.84375 41.875 105.390625 43.421875Q107.609375 40.15625 111.15625 40.15625Q113.9375 40.15625 115.421875 41.703125Q116.921875 43.234375 116.921875 46.4375L116.921875 59.25L113.765625 59.25L113.765625 47.484375Q113.765625 45.59375 113.453125 44.765625Q113.15625 43.921875 112.34375 43.421875Q111.546875 42.90625 110.453125 42.90625Q108.484375 42.90625 107.171875 44.21875Q105.875 45.515625 105.875 48.40625L105.875 59.25L102.71875 59.25L102.71875 47.125Q102.71875 45.015625 101.9375 43.96875Q101.171875 42.90625 99.40625 42.90625Q98.078125 42.90625 96.9375 43.609375Q95.8125 44.3125 95.296875 45.671875Q94.78125 47.015625 94.78125 49.5625L94.78125 59.25L91.625 59.25ZM122.640625 37.125L122.640625 33.484375L125.8125 33.484375L125.8125 37.125L122.640625 37.125ZM122.640625 59.25L122.640625 40.578125L125.8125 40.578125L125.8125 59.25L122.640625 59.25ZM128.35938 53.671875L131.48438 53.1875Q131.75 55.0625 132.95312 56.0625Q134.15625 57.0625 136.32812 57.0625Q138.5 57.0625 139.54688 56.1875Q140.60938 55.296875 140.60938 54.09375Q140.60938 53.03125 139.67188 52.40625Q139.03125 51.984375 136.4375 51.34375Q132.96875 50.453125 131.625 49.8125Q130.28125 49.171875 129.57812 48.046875Q128.89062 46.90625 128.89062 45.53125Q128.89062 44.296875 129.45312 43.234375Q130.03125 42.15625 131.01562 41.453125Q131.75 40.921875 133.01562 40.546875Q134.29688 40.15625 135.76562 40.15625Q137.95312 40.15625 139.60938 40.796875Q141.28125 41.421875 142.0625 42.515625Q142.85938 43.59375 143.15625 45.390625L140.0625 45.8125Q139.85938 44.375 138.84375 43.578125Q137.82812 42.765625 135.98438 42.765625Q133.8125 42.765625 132.875 43.484375Q131.9375 44.203125 131.9375 45.171875Q131.9375 45.78125 132.32812 46.28125Q132.71875 46.78125 133.54688 47.125Q134.01562 47.296875 136.34375 47.921875Q139.70312 48.828125 141.01562 49.40625Q142.34375 49.96875 143.09375 51.0625Q143.85938 52.140625 143.85938 53.765625Q143.85938 55.34375 142.9375 56.75Q142.01562 58.140625 140.26562 58.90625Q138.53125 59.671875 136.34375 59.671875Q132.70312 59.671875 130.79688 58.15625Q128.89062 56.640625 128.35938 53.671875ZM146.35938 53.671875L149.48438 53.1875Q149.75 55.0625 150.95312 56.0625Q152.15625 57.0625 154.32812 57.0625Q156.5 57.0625 157.54688 56.1875Q158.60938 55.296875 158.60938 54.09375Q158.60938 53.03125 157.67188 52.40625Q157.03125 51.984375 154.4375 51.34375Q150.96875 50.453125 149.625 49.8125Q148.28125 49.171875 147.57812 48.046875Q146.89062 46.90625 146.89062 45.53125Q146.89062 44.296875 147.45312 43.234375Q148.03125 42.15625 149.01562 41.453125Q149.75 40.921875 151.01562 40.546875Q152.29688 40.15625 153.76562 40.15625Q155.95312 40.15625 157.60938 40.796875Q159.28125 41.421875 160.0625 42.515625Q160.85938 43.59375 161.15625 45.390625L158.0625 45.8125Q157.85938 44.375 156.84375 43.578125Q155.82812 42.765625 153.98438 42.765625Q151.8125 42.765625 150.875 43.484375Q149.9375 44.203125 149.9375 45.171875Q149.9375 45.78125 150.32812 46.28125Q150.71875 46.78125 151.54688 47.125Q152.01562 47.296875 154.34375 47.921875Q157.70312 48.828125 159.01562 49.40625Q160.34375 49.96875 161.09375 51.0625Q161.85938 52.140625 161.85938 53.765625Q161.85938 55.34375 160.9375 56.75Q160.01562 58.140625 158.26562 58.90625Q156.53125 59.671875 154.34375 59.671875Q150.70312 59.671875 148.79688 58.15625Q146.89062 56.640625 146.35938 53.671875ZM165.64062 37.125L165.64062 33.484375L168.8125 33.484375L168.8125 37.125L165.64062 37.125ZM165.64062 59.25L165.64062 40.578125L168.8125 40.578125L168.8125 59.25L165.64062 59.25ZM171.45312 49.921875Q171.45312 44.734375 174.32812 42.234375Q176.73438 40.15625 180.20312 40.15625Q184.04688 40.15625 186.48438 42.6875Q188.9375 45.203125 188.9375 49.65625Q188.9375 53.25 187.85938 55.328125Q186.78125 57.390625 184.70312 58.53125Q182.64062 59.671875 180.20312 59.671875Q176.28125 59.671875 173.85938 57.15625Q171.45312 54.640625 171.45312 49.921875ZM174.70312 49.921875Q174.70312 53.5 176.26562 55.28125Q177.82812 57.0625 180.20312 57.0625Q182.5625 57.0625 184.125 55.28125Q185.6875 53.484375 185.6875 49.8125Q185.6875 46.34375 184.10938 44.5625Q182.53125 42.78125 180.20312 42.78125Q177.82812 42.78125 176.26562 44.5625Q174.70312 46.328125 174.70312 49.921875ZM192.625 59.25L192.625 40.578125L195.46875 40.578125L195.46875 43.234375Q197.53125 40.15625 201.40625 40.15625Q203.09375 40.15625 204.51562 40.765625Q205.9375 41.375 206.64062 42.359375Q207.34375 43.34375 207.625 44.6875Q207.79688 45.578125 207.79688 47.765625L207.79688 59.25L204.625 59.25L204.625 47.890625Q204.625 45.953125 204.25 45.0Q203.89062 44.046875 202.95312 43.484375Q202.01562 42.90625 200.75 42.90625Q198.71875 42.90625 197.25 44.1875Q195.78125 45.46875 195.78125 49.046875L195.78125 59.25L192.625 59.25ZM210.35938 53.671875L213.48438 53.1875Q213.75 55.0625 214.95312 56.0625Q216.15625 57.0625 218.32812 57.0625Q220.5 57.0625 221.54688 56.1875Q222.60938 55.296875 222.60938 54.09375Q222.60938 53.03125 221.67188 52.40625Q221.03125 51.984375 218.4375 51.34375Q214.96875 50.453125 213.625 49.8125Q212.28125 49.171875 211.57812 48.046875Q210.89062 46.90625 210.89062 45.53125Q210.89062 44.296875 211.45312 43.234375Q212.03125 42.15625 213.01562 41.453125Q213.75 40.921875 215.01562 40.546875Q216.29688 40.15625 217.76562 40.15625Q219.95312 40.15625 221.60938 40.796875Q223.28125 41.421875 224.0625 42.515625Q224.85938 43.59375 225.15625 45.390625L222.0625 45.8125Q221.85938 44.375 220.84375 43.578125Q219.82812 42.765625 217.98438 42.765625Q215.8125 42.765625 214.875 43.484375Q213.9375 44.203125 213.9375 45.171875Q213.9375 45.78125 214.32812 46.28125Q214.71875 46.78125 215.54688 47.125Q216.01562 47.296875 218.34375 47.921875Q221.70312 48.828125 223.01562 49.40625Q224.34375 49.96875 225.09375 51.0625Q225.85938 52.140625 225.85938 53.765625Q225.85938 55.34375 224.9375 56.75Q224.01562 58.140625 222.26562 58.90625Q220.53125 59.671875 218.34375 59.671875Q214.70312 59.671875 212.79688 58.15625Q210.89062 56.640625 210.35938 53.671875Z" fill-rule="nonzero"/></svg>